<svg width="1024" height="512" viewBox="0 0 1024 512" fill="none" xmlns="http://www.w3.org/2000/svg">
<g clip-path="url(#clip0_4233_1171)">
<rect width="1024" height="512" fill="#DFF756"/>
<path d="M823.382 414.827C815.209 414.827 807.036 414.827 798.863 414.827C795.739 414.827 795.666 414.852 796.047 418.025C797.313 428.552 798.644 439.07 799.926 449.588C800.876 457.364 801.777 465.139 802.743 472.914C802.921 474.318 802.491 474.862 801.022 474.862C789.408 474.821 777.786 474.813 766.172 474.846C764.768 474.846 764.135 474.399 763.956 472.93C761.805 454.758 759.606 436.587 757.415 418.423C757.35 417.887 757.22 417.351 757.187 416.816C757.106 415.339 756.465 414.714 754.882 414.73C749.209 414.803 743.536 414.787 737.863 414.714C736.215 414.689 735.655 415.371 735.469 416.954C733.269 435.531 730.989 454.093 728.789 472.671C728.603 474.269 727.986 474.878 726.362 474.87C714.951 474.821 703.532 474.821 692.121 474.87C690.278 474.878 689.832 474.245 690.051 472.443C692.997 448.517 695.87 424.583 698.768 400.649C701.43 378.727 704.124 356.806 706.762 334.876C710.212 306.251 713.604 277.617 717.053 248.992C718.555 236.526 720.178 224.067 721.696 211.601C723.287 198.599 724.804 185.589 726.379 172.579C726.817 168.959 726.135 169.008 730.347 169.008C757.699 169.008 785.058 169.016 812.409 169.016C847.121 169.016 881.842 169.016 916.554 169C920.75 169 919.914 169.187 920.296 172.303C922.008 186.312 923.745 200.32 925.441 214.328C927.284 229.546 929.094 244.763 930.92 259.989C932.705 274.874 934.475 289.759 936.284 304.636C939.344 329.771 942.445 354.907 945.496 380.042C948.483 404.642 951.445 429.25 954.408 453.858C955.171 460.156 955.844 466.462 956.688 472.752C956.915 474.448 956.428 474.87 954.813 474.87C943.329 474.821 931.853 474.821 920.369 474.854C918.762 474.854 918.121 474.278 917.934 472.662C915.726 454.02 913.438 435.385 911.238 416.743C911.052 415.168 910.402 414.673 908.917 414.681C903.382 414.722 897.839 414.754 892.303 414.665C890.315 414.633 889.625 415.412 889.398 417.335C887.231 435.71 884.958 454.077 882.8 472.451C882.589 474.237 882.02 474.878 880.202 474.87C868.791 474.813 857.372 474.821 845.961 474.87C844.208 474.87 843.802 474.269 844.013 472.565C846.261 454.401 848.444 436.238 850.644 418.066C851.033 414.836 851.05 414.827 847.706 414.819C839.598 414.811 831.498 414.819 823.39 414.819L823.382 414.827ZM822.765 172.206C792.711 172.206 762.658 172.206 732.596 172.206C729.698 172.206 729.682 172.222 729.325 175.209C728.392 182.919 727.491 190.629 726.541 198.34C724.39 215.83 722.183 233.32 720.056 250.81C718.368 264.688 716.794 278.575 715.114 292.445C712.646 312.825 710.114 333.196 707.639 353.575C705.942 367.584 704.319 381.608 702.623 395.617C699.628 420.281 696.609 444.946 693.574 469.603C693.403 470.999 693.801 471.615 695.262 471.615C704.782 471.591 714.31 471.591 723.83 471.599C725.137 471.599 725.746 471.064 725.908 469.7C728.059 451.455 730.258 433.218 732.441 414.982C732.872 411.411 732.847 411.394 736.516 411.394C745.224 411.386 753.933 411.378 762.649 411.386C784.668 411.386 806.679 411.394 828.698 411.402C836.465 411.402 844.232 411.402 851.999 411.459C854.564 411.475 854.588 411.565 854.328 414.186C854.158 415.866 853.898 417.538 853.695 419.21C852.121 432.212 850.554 445.222 848.98 458.224C848.525 461.982 848.071 465.731 847.592 469.481C847.414 470.885 847.811 471.615 849.402 471.607C858.857 471.567 868.312 471.575 877.768 471.583C879.082 471.583 879.748 471.023 879.87 469.684C880.056 467.598 880.332 465.52 880.584 463.443C882.58 446.951 884.569 430.459 886.582 413.967C888.586 397.548 890.64 381.13 892.628 364.711C894.17 351.977 895.607 339.226 897.141 326.484C898.78 312.938 900.509 299.409 902.148 285.871C904.664 265.094 907.115 244.301 909.631 223.524C911.547 207.632 913.519 191.749 915.451 175.858C915.897 172.198 915.864 172.198 912.131 172.198C882.345 172.198 852.559 172.198 822.773 172.198L822.765 172.206Z" fill="black"/>
<path d="M912.123 172.206L822.765 172.206L822.757 172.214H732.588C729.69 172.214 729.682 172.23 729.317 175.217C728.943 178.301 728.575 181.385 728.207 184.469C727.655 189.095 727.103 193.721 726.533 198.348C725.763 204.583 724.988 210.817 724.214 217.052C722.815 228.305 721.417 239.558 720.048 250.818C719.17 258.037 718.322 265.26 717.474 272.484C716.693 279.14 715.911 285.798 715.106 292.454C713.791 303.312 712.458 314.167 711.125 325.023C709.956 334.543 708.787 344.062 707.631 353.584C706.783 360.588 705.953 367.596 705.123 374.604C704.293 381.613 703.463 388.621 702.615 395.625C699.62 420.29 696.601 444.954 693.566 469.611C693.395 471.015 693.793 471.624 695.254 471.624C702.393 471.599 709.537 471.602 716.679 471.605C719.06 471.607 721.441 471.608 723.822 471.608C725.129 471.608 725.738 471.072 725.9 469.708C727.637 455.028 729.395 440.352 731.153 425.677C731.58 422.115 732.007 418.552 732.433 414.99L732.44 414.935C732.855 411.427 732.858 411.403 736.508 411.403C745.224 411.394 753.933 411.394 762.641 411.394C784.66 411.394 806.671 411.403 828.69 411.411C830.244 411.412 831.799 411.413 833.353 411.414C839.566 411.418 845.778 411.422 851.991 411.467C854.556 411.484 854.58 411.573 854.32 414.195C854.216 415.226 854.077 416.255 853.939 417.282C853.852 417.928 853.766 418.573 853.687 419.218C852.9 425.719 852.115 432.222 851.33 438.725C850.544 445.228 849.759 451.731 848.972 458.232L848.921 458.654C848.483 462.264 848.045 465.88 847.584 469.489C847.405 470.893 847.803 471.616 849.394 471.616C858.849 471.575 868.304 471.583 877.76 471.591C879.074 471.591 879.74 471.031 879.862 469.692C880.009 468.049 880.211 466.412 880.413 464.775C880.468 464.333 880.522 463.892 880.576 463.451C881.076 459.323 881.575 455.196 882.074 451.068C883.569 438.704 885.065 426.34 886.574 413.975C887.428 406.978 888.291 399.983 889.154 392.987C890.317 383.567 891.479 374.145 892.62 364.719C893.388 358.374 894.128 352.027 894.867 345.681C895.613 339.283 896.358 332.886 897.133 326.492C897.948 319.761 898.785 313.032 899.622 306.302C900.469 299.497 901.316 292.69 902.14 285.88C903.505 274.606 904.854 263.331 906.202 252.054C907.339 242.547 908.476 233.04 909.623 223.532C910.689 214.729 911.767 205.929 912.845 197.128C913.713 190.042 914.581 182.955 915.442 175.866C915.881 172.206 915.856 172.206 912.123 172.206Z" fill="white"/>
<path d="M766.663 200.431C769.445 199.272 773.2 199.38 774.899 201.847C775.861 203.241 775.386 205.267 773.792 205.981C773.438 206.144 772.977 206.306 772.604 206.193C772.275 206.061 772.048 205.739 772.081 205.358C772.107 205.062 772.276 204.831 772.304 204.514C772.546 203.204 771.816 202.068 770.694 201.519C769.449 200.925 767.983 200.899 766.683 201.661C764.645 202.833 763.631 206.397 765.54 209.376C768.461 213.92 774.64 212.099 776.007 208.626C776.034 208.563 776.062 208.479 776.089 208.416C776.145 208.269 776.303 208.165 776.451 208.168C776.621 208.171 776.761 208.279 776.79 208.428C776.802 208.534 776.795 208.619 776.764 208.724C776.468 209.927 775.992 210.745 775.218 211.813C773.665 213.757 771.257 215.028 768.644 214.983C764.418 214.909 761.318 211.443 761.686 207.232C761.953 204.185 763.947 201.571 766.663 200.431ZM780.648 203.981C781.25 203.907 781.822 203.938 782.448 204.076C784.007 204.485 785.257 205.757 785.707 208.16C785.79 208.67 785.838 209.328 785.893 209.922L786.081 211.663C786.125 212.13 786.18 212.47 786.207 212.895C786.361 213.809 786.572 214.067 787.008 214.434C787.109 214.5 787.161 214.628 787.15 214.755C787.132 214.966 786.949 215.112 786.758 215.108L786.46 215.103L784.868 215.075C783.912 215.059 783.473 214.479 783.291 214.136C783.256 214.051 783.219 213.987 783.185 213.88C782.264 214.691 781.098 215.37 779.76 215.346C778.295 215.321 777.035 214.642 777.052 212.989C777.047 211.59 778.136 210.571 779.239 209.636C780.274 208.743 781.474 207.916 782.18 206.89C781.951 206.357 781.64 206.012 781.277 205.794C780.468 205.313 779.267 205.42 778.413 206.189C778.294 206.335 778.097 206.395 777.933 206.329C777.79 206.263 777.72 206.092 777.754 205.944C777.765 205.817 777.857 205.734 777.911 205.608C778.525 204.665 779.571 204.132 780.648 203.981ZM782.532 207.977C781.812 208.918 780.834 209.876 780.395 210.526C779.807 211.405 779.771 212.062 780.066 212.576C780.696 213.646 782.109 213.544 783.082 212.628L783.018 211.906L782.849 210.187C782.776 209.317 782.671 208.573 782.532 207.977ZM793.076 199.409C793.12 199.388 793.186 199.368 793.228 199.369C793.294 199.349 793.381 199.329 793.442 199.352C793.568 199.375 793.665 199.483 793.696 199.61C793.712 199.674 793.706 199.738 793.68 199.801C793.429 202.912 793.155 206.043 792.883 209.154L792.566 212.772C792.531 213.175 792.533 213.641 793.46 214.462C793.519 214.527 793.58 214.549 793.619 214.592C793.677 214.657 793.732 214.764 793.723 214.87C793.683 215.081 793.521 215.226 793.309 215.223L788.339 215.136C788.127 215.132 787.991 214.981 788.01 214.77C788.019 214.664 788.071 214.559 788.14 214.497C788.207 214.455 788.252 214.435 788.321 214.373C789.389 213.586 789.494 213.122 789.529 212.719L789.846 209.101L790.22 204.827L790.27 204.255C790.423 202.499 790.053 201.624 789.379 201.061C789.279 200.996 789.226 200.867 789.237 200.741C789.248 200.614 789.3 200.508 789.412 200.447C789.481 200.384 789.61 200.366 789.699 200.325L793.076 199.409ZM801.382 204.047C803.23 204.079 804.693 204.867 805.319 206.213C805.895 207.41 805.596 208.401 804.147 209.16L801.746 210.347L798.946 211.718C800.551 213.548 804.357 213.805 805.868 210.885C805.896 210.801 805.923 210.738 805.973 210.654C806.046 210.549 806.179 210.488 806.306 210.49C806.455 210.493 806.596 210.58 806.626 210.729C806.661 210.814 806.63 210.92 806.623 211.005C806.439 212.379 804.921 213.921 804.758 214.087C803.58 215.148 802.034 215.799 800.378 215.77C797.129 215.713 794.725 213.043 795.008 209.806C795.271 206.801 797.737 204.386 800.678 204.077C800.915 204.038 801.149 204.043 801.382 204.047ZM800.08 205.317C799.804 205.312 799.544 205.371 799.276 205.515C797.896 206.211 797.22 208.594 798.402 210.882L799.959 210.104C801.404 209.388 802.743 208.182 801.828 206.492C801.447 205.743 800.762 205.307 800.08 205.317ZM814.672 204.766C815.145 204.711 815.57 204.718 816.029 204.811C817.43 205.09 818.532 206.105 818.598 208.035C818.607 208.416 818.589 208.861 818.531 209.284C818.416 210.596 818.323 211.908 818.208 213.22C818.173 213.622 818.174 214.088 819.102 214.91C819.16 214.975 819.222 214.997 819.261 215.04C819.319 215.104 819.374 215.211 819.364 215.317C819.346 215.529 819.163 215.674 818.951 215.67L813.981 215.583C813.769 215.58 813.633 215.429 813.651 215.217C813.661 215.112 813.712 215.007 813.782 214.944C813.849 214.903 813.893 214.883 813.963 214.82C815.031 214.034 815.136 213.569 815.171 213.167L815.487 209.549L815.554 208.787C815.754 206.502 812.985 205.817 811.718 207.173C811.554 207.34 811.403 207.612 811.274 207.864L811.134 209.473L810.817 213.091C810.782 213.493 810.784 213.959 811.733 214.781C811.77 214.845 811.831 214.868 811.891 214.911C811.95 214.976 811.983 215.082 811.974 215.188C811.955 215.4 811.772 215.545 811.581 215.542L806.611 215.455C806.399 215.451 806.242 215.3 806.26 215.088C806.27 214.983 806.321 214.878 806.412 214.816C806.458 214.774 806.524 214.754 806.572 214.691C807.662 213.905 807.745 213.44 807.78 213.038L808.084 209.568C808.237 207.811 807.888 206.936 807.213 206.395C807.091 206.329 807.038 206.201 807.049 206.074C807.06 205.947 807.135 205.821 807.226 205.759C807.314 205.718 807.422 205.699 807.513 205.637L811.021 204.681C811.106 204.683 811.171 204.663 811.256 204.664C811.401 204.709 811.498 204.817 811.528 204.965C811.524 205.008 811.519 205.071 811.515 205.114L811.422 206.172C812.363 205.383 813.557 204.874 814.672 204.766ZM831.536 200.059C831.581 200.039 831.625 200.018 831.667 200.019C831.712 199.998 831.754 199.999 831.795 200.021C831.942 200.045 832.06 200.153 832.068 200.301C832.084 200.365 832.076 200.45 832.071 200.513C831.676 205.02 831.365 208.575 830.94 213.442C830.904 213.844 830.906 214.311 831.834 215.132C831.892 215.197 831.954 215.219 831.993 215.262C832.072 215.327 832.105 215.434 832.096 215.539C832.078 215.751 831.895 215.896 831.682 215.892L828.178 215.831C827.796 215.825 827.708 215.611 827.747 215.167L827.784 214.744C827.738 214.785 827.669 214.848 827.622 214.889C825.971 216.259 823.961 216.139 822.681 215.206C821.181 214.12 820.276 212.303 820.456 210.25C820.702 207.436 822.883 205.121 825.566 204.596C826.041 204.519 826.491 204.485 826.937 204.493C827.277 204.499 827.615 204.526 827.928 204.595C828.179 204.642 828.407 204.709 828.654 204.798C828.779 203.126 828.407 202.272 827.753 201.731C827.652 201.665 827.599 201.537 827.611 201.41C827.622 201.283 827.695 201.179 827.785 201.117C827.876 201.055 827.984 201.035 828.072 200.995L831.536 200.059ZM826.265 205.604C826.117 205.602 825.945 205.62 825.792 205.66C824.205 206.056 823.459 208.014 823.487 210.133C823.512 211.787 824.381 214.26 826.228 214.293C826.844 214.303 827.526 213.807 827.824 213.07C827.987 212.67 828.008 212.183 828.049 211.718L828.171 210.321C828.234 209.602 828.297 208.882 828.36 208.163C828.393 207.782 828.417 207.507 828.323 207.124C828.063 206.208 827.157 205.62 826.265 205.604ZM836.688 204.96C837.29 204.885 837.862 204.917 838.488 205.055C840.047 205.463 841.297 206.735 841.747 209.138C841.83 209.648 841.878 210.306 841.933 210.9L842.121 212.641C842.165 213.108 842.22 213.448 842.247 213.873C842.401 214.787 842.612 215.045 843.048 215.413C843.149 215.478 843.201 215.606 843.19 215.733C843.172 215.945 842.989 216.09 842.798 216.086L842.501 216.081L840.908 216.053C839.952 216.037 839.513 215.457 839.331 215.115C839.296 215.029 839.259 214.965 839.225 214.859C838.304 215.669 837.138 216.348 835.8 216.325C834.335 216.299 833.076 215.62 833.092 213.967C833.087 212.569 834.176 211.549 835.279 210.615C836.314 209.721 837.514 208.895 838.22 207.869C837.991 207.335 837.68 206.99 837.317 206.772C836.508 206.292 835.307 206.398 834.453 207.167C834.334 207.313 834.137 207.373 833.973 207.307C833.83 207.241 833.76 207.07 833.794 206.922C833.805 206.795 833.897 206.712 833.951 206.586C834.565 205.643 835.612 205.11 836.688 204.96ZM838.572 208.956C837.852 209.897 836.874 210.854 836.435 211.504C835.847 212.384 835.811 213.04 836.107 213.554C836.736 214.624 838.149 214.522 839.122 213.606L839.058 212.885L838.889 211.165C838.816 210.295 838.711 209.551 838.572 208.956ZM848.982 205.323C849.003 205.323 849.003 205.323 849.024 205.323C849.169 205.368 849.287 205.476 849.296 205.625C849.313 205.667 849.287 205.731 849.283 205.773L849.237 206.302C849.92 205.784 850.795 205.503 851.552 205.367C852.675 205.175 855.018 205.619 854.813 207.967C854.753 208.645 854.045 209.204 853.344 209.192C851.305 209.157 852.126 206.585 850.26 206.998C849.61 207.135 849.267 207.659 849.13 208.25C849.008 208.671 848.957 209.497 848.901 210.132L848.585 213.75C848.55 214.152 848.573 214.619 849.501 215.441C849.559 215.505 849.599 215.527 849.659 215.57C849.717 215.635 849.751 215.742 849.741 215.847C849.723 216.059 849.561 216.205 849.349 216.201L844.379 216.114C844.167 216.11 844.031 215.96 844.05 215.748C844.059 215.642 844.111 215.537 844.18 215.475C844.226 215.433 844.292 215.413 844.361 215.351C845.429 214.564 845.513 214.099 845.548 213.697L845.851 210.227C846.005 208.471 845.656 207.596 844.98 207.054C844.88 206.989 844.827 206.861 844.838 206.734C844.849 206.607 844.903 206.481 845.015 206.419C845.082 206.378 845.211 206.359 845.302 206.297L848.81 205.341C848.853 205.341 848.918 205.321 848.982 205.323ZM860.039 205.219C861.398 205.243 862.928 205.502 863.855 206.578C864.646 207.503 864.194 209.021 863.063 209.553C862.799 209.654 862.49 209.776 862.222 209.686C861.974 209.597 861.825 209.361 861.849 209.086C861.867 208.875 861.988 208.707 861.987 208.474C862.228 207.186 861.222 206.278 859.884 206.255C858.907 206.238 858.144 207.178 858.648 207.992C858.929 208.421 859.425 208.832 860.131 209.268C861.463 210.097 863.737 211.578 863.685 213.378C863.644 215.306 862.248 216.68 859.317 216.629C857.958 216.605 856.428 216.346 855.501 215.27C854.712 214.323 855.162 212.827 856.293 212.295C856.536 212.194 856.865 212.072 857.134 212.162C857.382 212.251 857.531 212.487 857.507 212.762C857.49 212.952 857.368 213.141 857.349 213.352C857.13 214.641 858.133 215.57 859.386 215.592C859.811 215.599 860.805 215.426 860.883 214.537C860.962 213.627 860.178 213.105 858.856 212.171C857.374 211.127 855.723 210.06 855.9 208.029C856.069 206.103 858.212 205.187 860.039 205.219Z" fill="black"/>
<line y1="-0.647892" x2="149.015" y2="-0.647892" transform="matrix(0.999848 0.0174524 -0.0871557 0.996195 736.865 226.957)" stroke="black" stroke-width="1.29578"/>
<path d="M783.648 235.636L783.667 235.658L786.067 235.7C787.001 235.716 787.317 235.997 787.63 236.553L793.167 247.416C793.434 244.369 793.679 241.321 793.946 238.274C794.023 237.873 793.979 237.406 793.051 236.584C792.993 236.52 792.931 236.498 792.892 236.454C792.813 236.39 792.78 236.283 792.789 236.177C792.808 235.966 792.99 235.82 793.203 235.824L796.176 235.876C796.389 235.88 796.545 236.031 796.527 236.242C796.518 236.348 796.445 236.453 796.375 236.515C796.329 236.557 796.264 236.577 796.194 236.639C795.126 237.426 795.043 237.891 795.008 238.293L794.071 249C794.277 249.321 794.507 249.601 794.85 249.819C795.051 249.95 795.324 249.997 795.296 250.314C795.277 250.526 795.093 250.692 794.88 250.688L794.817 250.687L792.884 250.653C791.567 250.63 791.034 250.155 790.583 249.236L785.392 239.036C785.129 242.041 784.866 245.046 784.603 248.051C784.568 248.453 784.57 248.919 785.498 249.74C785.556 249.805 785.618 249.827 785.657 249.87C785.736 249.935 785.769 250.042 785.76 250.148C785.741 250.359 785.557 250.526 785.344 250.522L782.371 250.47C782.159 250.466 782.025 250.294 782.043 250.083C782.053 249.977 782.104 249.872 782.174 249.81C782.22 249.768 782.285 249.748 782.355 249.686C783.423 248.899 783.549 248.435 783.542 248.032C783.841 244.604 784.161 241.198 784.461 237.77C784.503 237.283 784.35 237.089 784.195 236.917C784.059 236.767 783.9 236.637 783.699 236.506C783.498 236.375 783.247 236.328 783.274 236.011C783.291 235.821 783.455 235.654 783.646 235.657L783.648 235.636ZM802.647 239.486C803.157 239.495 803.682 239.567 804.181 239.703C806.521 240.422 808.084 242.738 807.847 245.447C807.564 248.684 804.805 251.285 801.704 251.231C798.582 251.177 796.308 248.488 796.591 245.25C796.824 242.584 798.721 240.35 801.142 239.671C801.641 239.553 802.137 239.477 802.647 239.486ZM800.836 240.98C800.581 240.976 800.365 241.014 800.164 241.117C798.937 241.773 798.875 244.188 800.011 246.518C801.147 248.848 803.069 250.217 804.274 249.581C805.48 248.924 805.542 246.509 804.406 244.179C803.486 242.298 802.027 240.98 800.836 240.98ZM812.84 238.35C812.954 238.267 813.064 238.226 813.232 238.251C813.355 238.295 813.431 238.402 813.462 238.53C813.478 238.594 813.451 238.657 813.446 238.721C813.381 239.461 813.318 240.181 813.255 240.9L814.551 240.923C814.657 240.925 814.742 240.926 814.825 240.949C815.055 240.995 815.206 241.21 815.186 241.442C815.165 241.675 815 241.863 814.78 241.944C814.694 241.964 814.609 241.962 814.502 241.96L813.164 241.937L812.676 247.523C812.465 249.936 813.899 249.833 814.768 249.382C814.835 249.341 814.901 249.321 814.964 249.322C815.177 249.326 815.332 249.498 815.313 249.71C815.306 249.794 815.254 249.9 815.185 249.962C814.36 250.88 813.141 251.198 812.016 251.178C810.805 251.157 809.389 250.327 809.587 248.063L809.861 244.931C810.05 242.773 810.112 242.541 809.951 242.199C809.751 241.814 809.357 241.934 809.112 241.824C809.052 241.78 808.992 241.737 808.955 241.673C808.877 241.587 808.846 241.459 808.857 241.332C808.868 241.205 808.922 241.079 809.014 240.996C809.062 240.933 809.129 240.892 809.197 240.85L812.84 238.35ZM822.046 239.824C823.894 239.857 825.357 240.645 825.983 241.991C826.559 243.188 826.26 244.179 824.811 244.938L822.41 246.125L819.61 247.496C821.215 249.325 825.021 249.583 826.532 246.663C826.56 246.579 826.587 246.516 826.637 246.432C826.71 246.327 826.843 246.266 826.97 246.268C827.119 246.271 827.26 246.358 827.29 246.507C827.325 246.592 827.295 246.698 827.287 246.782C827.103 248.157 825.586 249.698 825.422 249.865C824.245 250.925 822.699 251.577 821.042 251.548C817.793 251.491 815.389 248.821 815.672 245.583C815.935 242.579 818.401 240.163 821.342 239.854C821.579 239.816 821.813 239.82 822.046 239.824ZM820.744 241.094C820.468 241.09 820.208 241.149 819.94 241.292C818.56 241.989 817.884 244.372 819.066 246.66L820.623 245.882C822.068 245.165 823.408 243.96 822.492 242.269C822.111 241.521 821.426 241.085 820.744 241.094ZM832.876 240.162C834.235 240.185 835.765 240.445 836.692 241.521C837.483 242.446 837.031 243.964 835.9 244.495C835.636 244.597 835.328 244.719 835.059 244.629C834.811 244.54 834.662 244.304 834.686 244.029C834.704 243.818 834.825 243.65 834.825 243.417C835.065 242.128 834.06 241.221 832.722 241.197C831.745 241.18 830.982 242.121 831.485 242.935C831.766 243.364 832.262 243.775 832.968 244.211C834.3 245.04 836.574 246.521 836.523 248.321C836.482 250.249 835.085 251.623 832.154 251.572C830.795 251.548 829.265 251.288 828.338 250.213C827.549 249.266 827.999 247.77 829.13 247.238C829.373 247.137 829.703 247.015 829.971 247.105C830.219 247.194 830.368 247.429 830.344 247.705C830.328 247.895 830.205 248.084 830.186 248.295C829.967 249.584 830.971 250.513 832.224 250.535C832.648 250.542 833.642 250.369 833.72 249.48C833.799 248.57 833.016 248.048 831.694 247.114C830.211 246.07 828.56 245.003 828.738 242.972C828.906 241.046 831.05 240.13 832.876 240.162Z" fill="black"/>
<line y1="-0.647892" x2="149.015" y2="-0.647892" transform="matrix(0.999848 0.0174524 -0.0871557 0.996195 733.771 262.321)" stroke="black" stroke-width="1.29578"/>
<path d="M733.536 270.179L738.505 270.265C738.718 270.269 738.852 270.441 738.833 270.653C738.824 270.758 738.772 270.864 738.703 270.926C738.636 270.967 738.591 270.988 738.522 271.05C737.453 271.837 737.349 272.301 737.314 272.703L737.255 273.38L736.997 276.321L736.925 277.147L742.553 277.245L742.786 274.579L742.883 273.478L742.942 272.801C742.977 272.399 742.975 271.933 742.047 271.111C741.989 271.047 741.927 271.025 741.889 270.981C741.809 270.917 741.776 270.81 741.785 270.704C741.804 270.493 741.988 270.326 742.201 270.33L747.171 270.417C747.362 270.42 747.517 270.592 747.498 270.804C747.489 270.91 747.437 271.015 747.368 271.077C747.301 271.118 747.256 271.139 747.187 271.201C746.118 271.988 746.014 272.452 745.979 272.854L745.662 276.473L745.427 279.16L745.111 282.778C745.075 283.181 745.098 283.647 746.026 284.469C746.084 284.533 746.125 284.555 746.185 284.599C746.243 284.663 746.276 284.77 746.267 284.876C746.249 285.087 746.066 285.232 745.875 285.229L740.905 285.142C740.693 285.139 740.536 284.987 740.554 284.776C740.563 284.67 740.615 284.565 740.706 284.503C740.752 284.461 740.817 284.441 740.887 284.379C741.955 283.592 742.038 283.128 742.074 282.725L742.207 281.202L742.39 279.107L742.462 278.282L736.834 278.184L736.792 278.67L736.608 280.765L736.579 281.104L736.445 282.627C736.41 283.029 736.433 283.496 737.361 284.317C737.419 284.382 737.46 284.404 737.52 284.447C737.578 284.512 737.611 284.619 737.602 284.724C737.584 284.936 737.422 285.081 737.21 285.078L732.24 284.991C732.027 284.987 731.892 284.837 731.91 284.625C731.92 284.519 731.971 284.414 732.041 284.352C732.087 284.31 732.152 284.29 732.222 284.228C733.29 283.441 733.373 282.976 733.408 282.574L733.725 278.956L733.96 276.268L734.277 272.65C734.312 272.248 734.31 271.782 733.382 270.96C733.324 270.896 733.262 270.873 733.224 270.83C733.165 270.766 733.132 270.659 733.141 270.553C733.16 270.342 733.323 270.175 733.536 270.179ZM751.055 274.299C751.657 274.225 752.229 274.256 752.855 274.394C754.414 274.803 755.664 276.075 756.113 278.478C756.196 278.988 756.245 279.646 756.299 280.24L756.487 281.981C756.532 282.448 756.587 282.788 756.614 283.212C756.768 284.126 756.979 284.384 757.415 284.752C757.515 284.818 757.568 284.946 757.557 285.073C757.538 285.284 757.356 285.429 757.164 285.426L756.867 285.421L755.274 285.393C754.319 285.376 753.88 284.797 753.697 284.454C753.662 284.369 753.625 284.305 753.592 284.198C752.67 285.009 751.505 285.688 750.167 285.664C748.702 285.639 747.442 284.96 747.459 283.307C747.454 281.908 748.543 280.889 749.645 279.954C750.681 279.061 751.88 278.234 752.587 277.208C752.357 276.674 752.047 276.33 751.683 276.112C750.875 275.631 749.674 275.737 748.82 276.507C748.701 276.653 748.504 276.713 748.34 276.647C748.196 276.581 748.126 276.41 748.161 276.262C748.172 276.135 748.264 276.052 748.318 275.926C748.932 274.983 749.978 274.45 751.055 274.299ZM752.939 278.295C752.218 279.236 751.241 280.194 750.801 280.843C750.214 281.723 750.178 282.38 750.473 282.893C751.103 283.964 752.515 283.861 753.489 282.946L753.424 282.224L753.256 280.505C753.183 279.635 753.078 278.891 752.939 278.295ZM763.527 269.706C763.614 269.686 763.724 269.646 763.849 269.669C763.996 269.693 764.091 269.822 764.099 269.97C764.115 270.034 764.088 270.097 764.083 270.161C763.936 271.833 763.81 273.526 763.642 275.197L763.596 275.726C765.281 274.208 767.378 274.309 768.699 275.264C770.199 276.35 771.125 278.168 770.945 280.22C770.699 283.034 768.497 285.348 765.813 285.874C765.339 285.95 764.889 285.985 764.443 285.977C764.103 285.971 763.765 285.944 763.452 285.875C763.077 285.784 762.704 285.671 762.378 285.517L758.746 285.454C758.533 285.45 758.398 285.299 758.416 285.088C758.426 284.982 758.477 284.877 758.547 284.814C758.593 284.773 758.658 284.753 758.728 284.69C759.796 283.904 759.879 283.439 759.914 283.037L760.231 279.418L760.605 275.144L760.655 274.573C760.809 272.816 760.462 271.92 759.786 271.379C759.685 271.313 759.633 271.185 759.644 271.058C759.655 270.931 759.707 270.826 759.818 270.765C759.888 270.702 759.997 270.662 760.105 270.642L763.527 269.706ZM765.173 276.177C764.387 276.164 763.488 276.953 763.396 278.011L763.268 279.471L762.989 282.667C762.861 284.127 764.349 285.106 765.587 284.81C767.175 284.414 767.92 282.456 767.893 280.336C767.868 278.683 766.999 276.209 765.173 276.177ZM775.383 270.612C775.723 270.618 776.032 270.73 776.357 270.905C776.837 271.252 777.129 271.809 777.072 272.465C776.983 273.48 776.082 274.291 775.063 274.273C774.065 274.256 773.309 273.416 773.398 272.4C773.461 271.681 773.941 271.054 774.583 270.768C774.849 270.646 775.13 270.587 775.383 270.612ZM776.498 274.892C776.519 274.892 776.519 274.892 776.54 274.892C776.685 274.937 776.803 275.045 776.812 275.194C776.829 275.237 776.802 275.3 776.799 275.342L776.417 279.701L776.101 283.319C776.066 283.721 776.089 284.188 777.016 285.01C777.075 285.074 777.115 285.096 777.175 285.14C777.233 285.204 777.267 285.311 777.257 285.416C777.239 285.628 777.077 285.774 776.865 285.77L771.895 285.683C771.683 285.679 771.547 285.529 771.566 285.317C771.575 285.211 771.627 285.106 771.696 285.044C771.742 285.002 771.808 284.982 771.877 284.92C772.945 284.133 773.029 283.668 773.064 283.266L773.367 279.796C773.521 278.04 773.172 277.165 772.496 276.623C772.396 276.558 772.343 276.43 772.354 276.303C772.365 276.176 772.419 276.05 772.531 275.988C772.598 275.947 772.727 275.928 772.818 275.866L776.326 274.91C776.369 274.911 776.434 274.891 776.498 274.892ZM782.037 273.229C782.151 273.147 782.26 273.106 782.428 273.13C782.552 273.175 782.628 273.282 782.659 273.41C782.675 273.474 782.648 273.537 782.643 273.6C782.578 274.341 782.515 275.06 782.452 275.78L783.747 275.802C783.854 275.804 783.939 275.806 784.022 275.828C784.252 275.875 784.403 276.089 784.383 276.322C784.362 276.555 784.197 276.743 783.977 276.824C783.89 276.843 783.805 276.842 783.699 276.84L782.361 276.817L781.872 282.403C781.661 284.815 783.095 284.713 783.964 284.262C784.032 284.221 784.097 284.201 784.161 284.202C784.374 284.206 784.529 284.378 784.51 284.589C784.503 284.674 784.451 284.779 784.382 284.841C783.557 285.76 782.338 286.077 781.212 286.058C780.002 286.037 778.586 285.207 778.784 282.942L779.058 279.811C779.246 277.652 779.309 277.42 779.148 277.078C778.947 276.693 778.554 276.814 778.308 276.703C778.248 276.66 778.188 276.617 778.152 276.552C778.074 276.466 778.043 276.339 778.054 276.212C778.065 276.085 778.118 275.958 778.211 275.875C778.259 275.812 778.326 275.771 778.394 275.73L782.037 273.229ZM792.188 271.202L802.828 271.388C802.87 271.389 802.913 271.39 802.954 271.412C803.1 271.435 803.217 271.565 803.225 271.713L803.689 274.921C803.706 274.964 803.704 274.985 803.701 275.027C803.682 275.239 803.498 275.405 803.306 275.402C803.158 275.399 803.038 275.313 802.985 275.184C802.234 273.561 801.31 272.697 799.865 272.439C799.592 272.391 799.252 272.385 798.936 272.359L798.26 280.082L797.943 283.701C797.908 284.103 797.91 284.569 798.838 285.391C798.896 285.455 798.958 285.477 798.997 285.52C799.076 285.585 799.109 285.692 799.1 285.798C799.081 286.009 798.899 286.155 798.686 286.151L793.717 286.064C793.525 286.061 793.368 285.91 793.387 285.698C793.396 285.592 793.448 285.487 793.517 285.425C793.585 285.384 793.65 285.364 793.698 285.301C794.788 284.515 794.871 284.05 794.906 283.648C795.238 279.86 795.567 276.093 795.899 272.306C795.644 272.301 795.387 272.318 795.086 272.355C793.519 272.518 792.426 273.347 791.347 274.981C791.272 275.107 791.158 275.19 791.01 275.187C790.797 275.184 790.663 275.012 790.682 274.8C790.686 274.758 790.687 274.737 790.691 274.694L791.735 271.512C791.769 271.365 791.887 271.24 792.058 271.221C792.103 271.201 792.124 271.201 792.188 271.202ZM807.691 275.436C807.712 275.437 807.712 275.437 807.734 275.437C807.879 275.482 807.997 275.59 808.005 275.738C808.023 275.781 807.996 275.844 807.992 275.886L807.946 276.415C808.629 275.898 809.505 275.616 810.261 275.481C811.384 275.289 813.727 275.732 813.522 278.081C813.463 278.758 812.754 279.318 812.053 279.306C810.014 279.27 810.835 276.699 808.97 277.111C808.32 277.248 807.976 277.772 807.839 278.363C807.717 278.785 807.666 279.611 807.611 280.245L807.294 283.864C807.259 284.266 807.282 284.733 808.21 285.554C808.268 285.619 808.309 285.641 808.369 285.684C808.427 285.749 808.46 285.855 808.451 285.961C808.432 286.173 808.271 286.318 808.058 286.314L803.088 286.228C802.876 286.224 802.74 286.073 802.759 285.862C802.768 285.756 802.82 285.651 802.889 285.588C802.935 285.547 803.001 285.527 803.07 285.464C804.139 284.678 804.222 284.213 804.257 283.811L804.561 280.341C804.714 278.584 804.365 277.709 803.69 277.168C803.589 277.102 803.536 276.974 803.548 276.847C803.559 276.72 803.612 276.594 803.724 276.532C803.791 276.491 803.921 276.472 804.011 276.41L807.519 275.454C807.562 275.455 807.627 275.435 807.691 275.436ZM817.403 275.457C818.005 275.383 818.576 275.414 819.203 275.552C820.762 275.961 822.012 277.233 822.461 279.636C822.544 280.146 822.593 280.804 822.647 281.398L822.835 283.139C822.88 283.606 822.935 283.946 822.962 284.371C823.116 285.284 823.327 285.542 823.763 285.91C823.863 285.976 823.916 286.104 823.905 286.231C823.886 286.442 823.704 286.587 823.512 286.584L823.215 286.579L821.622 286.551C820.667 286.534 820.228 285.955 820.045 285.612C820.01 285.527 819.973 285.463 819.94 285.356C819.018 286.167 817.853 286.846 816.515 286.822C815.049 286.797 813.79 286.118 813.807 284.465C813.802 283.066 814.891 282.047 815.993 281.112C817.029 280.219 818.228 279.392 818.935 278.366C818.705 277.832 818.395 277.488 818.031 277.27C817.222 276.789 816.022 276.896 815.168 277.665C815.049 277.811 814.852 277.871 814.688 277.805C814.544 277.739 814.474 277.568 814.508 277.42C814.52 277.293 814.612 277.21 814.666 277.084C815.28 276.141 816.326 275.608 817.403 275.457ZM819.287 279.453C818.566 280.394 817.589 281.352 817.149 282.001C816.562 282.881 816.526 283.538 816.821 284.051C817.451 285.122 818.863 285.02 819.837 284.104L819.772 283.382L819.604 281.663C819.531 280.793 819.426 280.049 819.287 279.453ZM831.147 275.401C832.74 275.428 834.073 276.003 834.651 276.924C835.395 278.145 835.041 279.771 833.711 280.383C833.423 280.505 833.049 280.647 832.74 280.536C832.45 280.446 832.262 280.167 832.29 279.85C832.31 279.617 832.456 279.408 832.478 279.154C832.856 277.02 830.789 276.094 829.086 277.081C827.559 278.008 826.771 280.686 828.443 282.728C830.037 284.685 833.959 285.325 835.585 282.302C835.635 282.218 835.667 282.092 835.738 282.008C835.811 281.903 835.944 281.842 836.071 281.844C836.241 281.847 836.36 281.955 836.389 282.104C836.424 282.19 836.396 282.274 836.386 282.38C836.183 283.732 834.687 285.275 834.523 285.441C833.346 286.501 831.8 287.153 830.143 287.124C826.894 287.067 824.49 284.397 824.773 281.16C825.036 278.155 827.502 275.74 830.422 275.43C830.659 275.392 830.914 275.396 831.147 275.401ZM841.395 271.023C841.417 271.023 841.438 271.024 841.459 271.024C841.585 271.047 841.682 271.155 841.713 271.283C841.729 271.347 841.702 271.41 841.696 271.473C841.424 274.584 841.171 277.716 840.878 280.826L840.865 280.974L841.319 280.643L843.661 278.925C844.843 278.056 845.094 277.127 844.784 276.783C844.745 276.74 844.704 276.718 844.687 276.675C844.65 276.611 844.636 276.526 844.642 276.463C844.66 276.251 844.845 276.085 845.036 276.088L847.245 276.127L847.415 276.13L848.604 276.15L848.753 276.153C848.965 276.157 849.12 276.329 849.102 276.54C849.089 276.689 848.993 276.814 848.838 276.875C848.817 276.875 848.773 276.895 848.752 276.895C847.88 277.134 846.675 278.024 845.358 278.976L843.563 280.28C844.565 280.255 845.262 280.797 845.647 281.503L846.879 283.707C847.375 284.606 847.911 285.527 848.659 285.243C848.727 285.202 848.792 285.182 848.856 285.183C849.068 285.186 849.224 285.359 849.207 285.549C849.201 285.613 849.175 285.676 849.15 285.718C848.834 286.412 847.865 287.03 846.803 287.012C845.423 286.988 844.69 286.127 843.895 284.757L842.68 282.595C842.239 281.804 841.694 281.709 841.293 281.914L840.748 282.307L840.561 284.445C840.526 284.847 840.549 285.313 841.477 286.135C841.535 286.199 841.576 286.221 841.636 286.265C841.694 286.329 841.727 286.436 841.718 286.542C841.699 286.753 841.538 286.899 841.325 286.895L836.356 286.808C836.143 286.805 836.008 286.654 836.026 286.442C836.035 286.337 836.087 286.231 836.156 286.169C836.203 286.127 836.268 286.107 836.337 286.045C837.406 285.258 837.489 284.794 837.524 284.392L837.841 280.773L838.215 276.499L838.265 275.927C838.419 274.171 838.07 273.296 837.396 272.733C837.295 272.668 837.242 272.54 837.254 272.413C837.265 272.286 837.316 272.181 837.428 272.119C837.497 272.057 837.627 272.038 837.715 271.997L841.092 271.081C841.137 271.061 841.202 271.041 841.245 271.042C841.31 271.021 841.355 271.001 841.395 271.023ZM855.932 275.833C857.78 275.865 859.242 276.654 859.869 278C860.445 279.197 860.145 280.188 858.697 280.946L856.295 282.134L853.495 283.505C855.101 285.334 858.907 285.591 860.417 282.672C860.446 282.588 860.473 282.525 860.523 282.441C860.596 282.336 860.729 282.275 860.856 282.277C861.005 282.279 861.146 282.367 861.175 282.516C861.211 282.601 861.18 282.706 861.173 282.791C860.989 284.165 859.471 285.707 859.308 285.874C858.13 286.934 856.584 287.585 854.928 287.556C851.678 287.5 849.274 284.83 849.558 281.592C849.82 278.587 852.286 276.172 855.227 275.863C855.465 275.825 855.698 275.829 855.932 275.833ZM854.63 277.103C854.354 277.098 854.093 277.157 853.825 277.301C852.446 277.998 851.769 280.38 852.952 282.669L854.509 281.891C855.954 281.174 857.293 279.968 856.378 278.278C855.996 277.53 855.311 277.094 854.63 277.103ZM865.764 276.45C865.785 276.45 865.785 276.45 865.806 276.451C865.951 276.495 866.069 276.603 866.078 276.752C866.095 276.795 866.068 276.858 866.065 276.9L866.018 277.429C866.702 276.911 867.577 276.63 868.333 276.495C869.456 276.302 871.8 276.746 871.594 279.095C871.535 279.772 870.827 280.332 870.126 280.319C868.087 280.284 868.908 277.713 867.042 278.125C866.392 278.262 866.049 278.786 865.912 279.377C865.79 279.799 865.739 280.624 865.683 281.259L865.367 284.878C865.331 285.28 865.354 285.746 866.282 286.568C866.34 286.632 866.381 286.654 866.441 286.698C866.499 286.762 866.532 286.869 866.523 286.975C866.505 287.186 866.343 287.332 866.131 287.328L861.161 287.241C860.949 287.238 860.813 287.087 860.831 286.875C860.841 286.769 860.892 286.664 860.962 286.602C861.008 286.56 861.073 286.54 861.143 286.478C862.211 285.691 862.294 285.227 862.33 284.825L862.633 281.354C862.787 279.598 862.438 278.723 861.762 278.181C861.662 278.116 861.609 277.988 861.62 277.861C861.631 277.734 861.685 277.608 861.797 277.546C861.864 277.505 861.993 277.486 862.084 277.424L865.592 276.468C865.634 276.469 865.7 276.449 865.764 276.45ZM876.821 276.346C878.18 276.37 879.71 276.63 880.637 277.705C881.428 278.631 880.976 280.149 879.845 280.68C879.581 280.781 879.272 280.903 879.003 280.813C878.756 280.724 878.606 280.489 878.631 280.214C878.649 280.002 878.77 279.835 878.769 279.601C879.01 278.313 878.004 277.405 876.666 277.382C875.689 277.365 874.926 278.305 875.429 279.119C875.711 279.548 876.207 279.959 876.913 280.396C878.244 281.224 880.518 282.705 880.467 284.505C880.426 286.433 879.03 287.808 876.099 287.756C874.74 287.733 873.21 287.473 872.283 286.397C871.493 285.451 871.943 283.954 873.075 283.423C873.318 283.321 873.647 283.2 873.916 283.289C874.163 283.378 874.313 283.614 874.289 283.889C874.272 284.079 874.149 284.268 874.131 284.48C873.912 285.768 874.915 286.697 876.168 286.719C876.593 286.727 877.587 286.553 877.664 285.664C877.744 284.755 876.96 284.232 875.638 283.298C874.155 282.255 872.505 281.187 872.682 279.156C872.851 277.23 874.994 276.314 876.821 276.346Z" fill="black"/>
<line y1="-0.647892" x2="149.015" y2="-0.647892" transform="matrix(0.999848 0.0174524 -0.0871557 0.996195 730.677 297.684)" stroke="black" stroke-width="1.29578"/>
<path d="M767.513 306.062C768.073 305.987 768.581 306.017 769.133 306.026C770.909 306.142 772.439 306.889 773.053 307.896C773.873 309.224 773.503 311.019 772.042 311.672C771.732 311.815 771.315 311.956 770.964 311.844C770.675 311.733 770.468 311.433 770.497 311.094C770.521 310.819 770.667 310.61 770.693 310.313C770.946 308.644 770.336 307.107 768.042 307.067C767.106 307.072 766.236 307.777 766.164 308.602C765.987 310.38 768.144 311.498 769.66 312.648C771.296 313.884 773.324 315.255 773.155 317.18C772.985 319.127 771.697 320.97 768.959 321.388C767.903 321.539 766.696 321.476 765.584 321.308C764.247 321.03 763.154 320.397 762.65 319.583C761.831 318.254 762.2 316.459 763.661 315.807C763.972 315.664 764.388 315.523 764.742 315.614C765.051 315.725 765.238 316.025 765.206 316.385C765.184 316.639 765.036 316.869 765.012 317.144C764.76 318.814 765.665 320.377 767.959 320.417C769.042 320.436 770.306 319.843 770.41 318.658C770.523 317.368 769.431 316.48 768.035 315.417C766.36 314.137 763.275 312.197 763.485 309.806C763.646 307.965 764.586 306.943 765.972 306.416C766.498 306.235 766.998 306.116 767.513 306.062ZM778.269 308.581C778.383 308.498 778.493 308.457 778.661 308.481C778.784 308.526 778.86 308.633 778.891 308.761C778.907 308.825 778.88 308.888 778.875 308.951C778.81 309.692 778.747 310.412 778.684 311.131L779.98 311.154C780.086 311.155 780.171 311.157 780.254 311.18C780.484 311.226 780.635 311.441 780.615 311.673C780.594 311.906 780.429 312.094 780.209 312.175C780.123 312.195 780.038 312.193 779.931 312.191L778.593 312.168L778.105 317.754C777.894 320.166 779.328 320.064 780.197 319.613C780.264 319.572 780.33 319.552 780.393 319.553C780.606 319.557 780.761 319.729 780.742 319.941C780.735 320.025 780.683 320.13 780.614 320.193C779.789 321.111 778.57 321.429 777.445 321.409C776.234 321.388 774.818 320.558 775.016 318.294L775.29 315.162C775.479 313.004 775.541 312.772 775.38 312.43C775.18 312.045 774.786 312.165 774.541 312.055C774.481 312.011 774.421 311.968 774.384 311.904C774.306 311.818 774.275 311.69 774.286 311.563C774.297 311.436 774.351 311.31 774.443 311.226C774.491 311.164 774.558 311.123 774.626 311.081L778.269 308.581ZM785.325 306.203C785.665 306.209 785.974 306.32 786.299 306.496C786.779 306.843 787.071 307.399 787.013 308.055C786.924 309.071 786.024 309.882 785.004 309.864C784.006 309.846 783.25 309.007 783.339 307.991C783.402 307.271 783.882 306.644 784.524 306.359C784.79 306.236 785.072 306.177 785.325 306.203ZM786.439 310.482C786.461 310.483 786.461 310.483 786.482 310.483C786.627 310.528 786.745 310.636 786.753 310.784C786.771 310.827 786.744 310.89 786.74 310.933L786.359 315.292L786.042 318.91C786.007 319.312 786.03 319.779 786.958 320.6C787.016 320.665 787.057 320.687 787.117 320.73C787.175 320.795 787.208 320.901 787.199 321.007C787.18 321.219 787.019 321.364 786.806 321.36L781.837 321.274C781.624 321.27 781.489 321.119 781.507 320.908C781.516 320.802 781.568 320.697 781.637 320.634C781.683 320.593 781.749 320.573 781.818 320.51C782.887 319.724 782.97 319.259 783.005 318.857L783.309 315.387C783.463 313.63 783.114 312.755 782.438 312.214C782.337 312.148 782.285 312.02 782.296 311.893C782.307 311.766 782.36 311.64 782.472 311.579C782.54 311.537 782.669 311.518 782.759 311.456L786.268 310.5C786.31 310.501 786.376 310.481 786.439 310.482ZM794.859 310.184C796.452 310.212 797.784 310.786 798.363 311.708C799.107 312.929 798.752 314.554 797.422 315.167C797.135 315.289 796.761 315.431 796.452 315.319C796.162 315.23 795.973 314.951 796.001 314.633C796.022 314.401 796.168 314.191 796.19 313.937C796.568 311.803 794.501 310.877 792.798 311.865C791.27 312.792 790.483 315.47 792.155 317.512C793.749 319.468 797.67 320.109 799.296 317.086C799.346 317.002 799.379 316.875 799.45 316.792C799.523 316.687 799.656 316.626 799.783 316.628C799.953 316.631 800.071 316.739 800.101 316.888C800.136 316.973 800.107 317.057 800.098 317.163C799.894 318.516 798.398 320.058 798.235 320.225C797.057 321.285 795.511 321.936 793.855 321.907C790.605 321.851 788.201 319.181 788.485 315.943C788.747 312.938 791.213 310.523 794.133 310.214C794.371 310.176 794.625 310.18 794.859 310.184ZM805.107 305.807C805.128 305.807 805.149 305.807 805.171 305.808C805.296 305.831 805.393 305.939 805.424 306.066C805.44 306.13 805.413 306.193 805.408 306.257C805.136 309.367 804.883 312.5 804.589 315.61L804.577 315.758L805.031 315.427L807.372 313.709C808.554 312.839 808.806 311.911 808.495 311.567C808.457 311.524 808.416 311.502 808.398 311.459C808.362 311.395 808.348 311.31 808.353 311.246C808.372 311.035 808.556 310.868 808.748 310.872L810.956 310.91L811.126 310.913L812.316 310.934L812.464 310.936C812.677 310.94 812.832 311.112 812.813 311.324C812.8 311.472 812.704 311.598 812.55 311.659C812.529 311.658 812.484 311.679 812.463 311.678C811.591 311.917 810.386 312.808 809.069 313.759L807.275 315.063C808.277 315.038 808.974 315.58 809.359 316.286L810.591 318.491C811.087 319.39 811.623 320.31 812.371 320.027C812.438 319.985 812.504 319.965 812.568 319.966C812.78 319.97 812.935 320.142 812.918 320.333C812.913 320.396 812.886 320.459 812.861 320.501C812.545 321.195 811.576 321.814 810.515 321.796C809.134 321.771 808.401 320.911 807.606 319.541L806.392 317.379C805.95 316.587 805.406 316.493 805.005 316.698L804.46 317.091L804.273 319.228C804.238 319.63 804.261 320.097 805.189 320.918C805.247 320.983 805.287 321.005 805.347 321.048C805.406 321.113 805.439 321.219 805.429 321.325C805.411 321.537 805.249 321.682 805.037 321.679L800.067 321.592C799.855 321.588 799.719 321.438 799.738 321.226C799.747 321.12 799.799 321.015 799.868 320.953C799.914 320.911 799.98 320.891 800.049 320.829C801.118 320.042 801.201 319.577 801.236 319.175L801.552 315.557L801.926 311.282L801.976 310.711C802.13 308.955 801.781 308.08 801.107 307.517C801.007 307.452 800.954 307.324 800.965 307.197C800.976 307.07 801.028 306.965 801.14 306.903C801.209 306.841 801.338 306.822 801.427 306.781L804.804 305.865C804.848 305.844 804.914 305.824 804.956 305.825C805.022 305.805 805.066 305.785 805.107 305.807ZM819.644 310.617C821.491 310.649 822.954 311.437 823.58 312.784C824.156 313.98 823.857 314.971 822.408 315.73L820.007 316.917L817.207 318.288C818.812 320.118 822.619 320.375 824.129 317.456C824.158 317.371 824.184 317.308 824.234 317.224C824.307 317.12 824.44 317.058 824.568 317.061C824.716 317.063 824.858 317.15 824.887 317.299C824.922 317.385 824.892 317.49 824.884 317.575C824.7 318.949 823.183 320.491 823.019 320.657C821.842 321.718 820.296 322.369 818.639 322.34C815.39 322.283 812.986 319.613 813.269 316.376C813.532 313.371 815.998 310.956 818.939 310.647C819.176 310.609 819.41 310.613 819.644 310.617ZM818.341 311.887C818.065 311.882 817.805 311.941 817.537 312.085C816.157 312.781 815.481 315.164 816.663 317.452L818.22 316.674C819.666 315.958 821.005 314.752 820.089 313.062C819.708 312.313 819.023 311.877 818.341 311.887ZM829.475 311.233C829.496 311.234 829.496 311.234 829.518 311.234C829.663 311.279 829.781 311.387 829.789 311.536C829.807 311.578 829.78 311.641 829.776 311.684L829.73 312.213C830.413 311.695 831.289 311.413 832.045 311.278C833.168 311.086 835.511 311.53 835.306 313.878C835.247 314.555 834.538 315.115 833.837 315.103C831.799 315.067 832.619 312.496 830.754 312.909C830.104 313.046 829.76 313.57 829.623 314.161C829.501 314.582 829.45 315.408 829.395 316.043L829.078 319.661C829.043 320.063 829.066 320.53 829.994 321.351C830.052 321.416 830.093 321.438 830.153 321.481C830.211 321.546 830.244 321.652 830.235 321.758C830.216 321.97 830.055 322.115 829.842 322.112L824.873 322.025C824.66 322.021 824.524 321.871 824.543 321.659C824.552 321.553 824.604 321.448 824.673 321.386C824.719 321.344 824.785 321.324 824.854 321.262C825.923 320.475 826.006 320.01 826.041 319.608L826.345 316.138C826.498 314.382 826.15 313.507 825.474 312.965C825.373 312.9 825.321 312.772 825.332 312.645C825.343 312.518 825.396 312.391 825.508 312.33C825.576 312.289 825.705 312.27 825.795 312.208L829.303 311.252C829.346 311.252 829.412 311.232 829.475 311.233ZM840.532 311.13C841.891 311.153 843.421 311.413 844.348 312.489C845.139 313.414 844.688 314.932 843.556 315.463C843.292 315.565 842.984 315.687 842.715 315.597C842.468 315.508 842.318 315.272 842.342 314.997C842.361 314.786 842.482 314.618 842.481 314.385C842.721 313.096 841.716 312.189 840.378 312.165C839.401 312.148 838.638 313.089 839.141 313.903C839.422 314.332 839.918 314.743 840.625 315.179C841.956 316.008 844.23 317.488 844.179 319.289C844.138 321.217 842.741 322.591 839.81 322.54C838.451 322.516 836.921 322.256 835.994 321.181C835.205 320.234 835.655 318.738 836.786 318.206C837.029 318.105 837.359 317.983 837.627 318.073C837.875 318.162 838.024 318.397 838 318.673C837.984 318.863 837.861 319.052 837.842 319.263C837.623 320.552 838.627 321.481 839.88 321.503C840.305 321.51 841.298 321.337 841.376 320.448C841.456 319.538 840.672 319.016 839.35 318.081C837.867 317.038 836.216 315.971 836.394 313.94C836.562 312.014 838.706 311.098 840.532 311.13Z" fill="black"/>
<line y1="-0.647892" x2="149.015" y2="-0.647892" transform="matrix(0.999848 0.0174524 -0.0871557 0.996195 727.583 333.047)" stroke="black" stroke-width="1.29578"/>
<path d="M767.428 341.456C767.641 341.46 767.832 341.463 768.044 341.467C769.991 341.586 771.54 342.355 772.229 343.469C773.123 344.925 772.717 346.889 771.123 347.603C770.769 347.766 770.308 347.928 769.935 347.815C769.606 347.683 769.379 347.361 769.412 346.98C769.438 346.684 769.607 346.453 769.635 346.136C769.919 344.594 768.756 343.302 767.285 342.852C766.166 342.515 764.792 342.661 763.846 343.259C761.666 344.598 761.292 348.385 762.871 350.998C764.357 353.461 766.842 354.48 769.002 354.348C769.172 354.351 769.345 354.311 769.496 354.293L769.744 351.457C769.779 351.055 769.775 350.61 768.849 349.767C768.789 349.724 768.729 349.681 768.691 349.638C768.611 349.573 768.578 349.466 768.587 349.36C768.604 349.17 768.789 349.003 769.001 349.007L772.505 349.068C772.888 349.075 772.975 349.288 772.935 349.754L772.385 356.039C772.375 356.144 772.389 356.229 772.339 356.313C772.265 356.439 772.128 356.543 771.979 356.54C771.873 356.538 771.813 356.495 771.755 356.43C771.319 356.062 770.882 355.228 769.465 355.86C769.442 355.881 769.421 355.881 769.399 355.881C769.376 355.901 769.376 355.901 769.355 355.901C768.314 356.37 767.165 356.626 765.975 356.605C761.749 356.531 758.649 353.065 759.017 348.854C759.262 346.061 760.982 343.654 763.35 342.36C764.62 341.704 765.857 341.429 767.428 341.456ZM780.994 345.359C781.503 345.368 782.029 345.441 782.527 345.577C784.868 346.296 786.431 348.612 786.194 351.321C785.911 354.558 783.152 357.159 780.051 357.105C776.929 357.05 774.654 354.362 774.938 351.124C775.171 348.458 777.068 346.223 779.488 345.545C779.988 345.427 780.484 345.351 780.994 345.359ZM779.183 346.854C778.928 346.849 778.712 346.888 778.511 346.99C777.284 347.647 777.221 350.062 778.358 352.392C779.494 354.722 781.416 356.09 782.62 355.454C783.826 354.797 783.889 352.382 782.753 350.053C781.832 348.171 780.374 346.853 779.183 346.854ZM794.164 345.589C794.673 345.598 795.199 345.671 795.697 345.807C798.038 346.526 799.601 348.842 799.364 351.55C799.081 354.788 796.322 357.389 793.221 357.335C790.099 357.28 787.825 354.592 788.108 351.354C788.341 348.688 790.238 346.453 792.658 345.775C793.158 345.657 793.654 345.58 794.164 345.589ZM792.353 347.084C792.098 347.079 791.882 347.118 791.681 347.22C790.454 347.877 790.392 350.292 791.528 352.622C792.664 354.951 794.586 356.32 795.79 355.684C796.996 355.027 797.059 352.612 795.923 350.282C795.002 348.401 793.544 347.083 792.353 347.084ZM812.358 341.393C812.402 341.372 812.447 341.352 812.489 341.353C812.533 341.332 812.576 341.333 812.616 341.355C812.763 341.379 812.881 341.487 812.89 341.635C812.905 341.699 812.898 341.784 812.892 341.847C812.498 346.354 812.187 349.909 811.761 354.776C811.726 355.178 811.728 355.645 812.656 356.466C812.714 356.531 812.776 356.553 812.815 356.596C812.894 356.661 812.927 356.767 812.918 356.873C812.899 357.085 812.717 357.23 812.504 357.226L809 357.165C808.618 357.158 808.53 356.945 808.569 356.501L808.606 356.077C808.56 356.119 808.49 356.181 808.444 356.223C806.793 357.593 804.783 357.473 803.503 356.539C802.003 355.454 801.098 353.636 801.278 351.584C801.524 348.77 803.705 346.455 806.388 345.93C806.863 345.853 807.312 345.819 807.758 345.827C808.098 345.833 808.436 345.86 808.749 345.929C809 345.975 809.228 346.043 809.476 346.132C809.601 344.46 809.229 343.606 808.574 343.065C808.474 342.999 808.421 342.871 808.432 342.744C808.443 342.617 808.516 342.513 808.607 342.451C808.697 342.389 808.805 342.369 808.894 342.328L812.358 341.393ZM807.087 346.938C806.938 346.935 806.767 346.954 806.614 346.993C805.027 347.39 804.281 349.347 804.308 351.467C804.334 353.121 805.202 355.594 807.05 355.626C807.666 355.637 808.347 355.14 808.646 354.404C808.808 354.004 808.83 353.517 808.871 353.052L808.993 351.655C809.056 350.935 809.119 350.216 809.182 349.497C809.215 349.116 809.239 348.841 809.145 348.457C808.885 347.542 807.979 346.954 807.087 346.938ZM817.593 342.184C817.933 342.189 818.242 342.301 818.567 342.476C819.047 342.824 819.339 343.38 819.282 344.036C819.193 345.051 818.292 345.862 817.273 345.844C816.275 345.827 815.519 344.987 815.607 343.971C815.67 343.252 816.151 342.625 816.792 342.339C817.058 342.217 817.34 342.158 817.593 342.184ZM818.708 346.463C818.729 346.463 818.729 346.463 818.75 346.463C818.895 346.508 819.013 346.616 819.021 346.765C819.039 346.808 819.012 346.871 819.009 346.913L818.627 351.272L818.311 354.891C818.275 355.293 818.298 355.759 819.226 356.581C819.284 356.645 819.325 356.667 819.385 356.711C819.443 356.775 819.476 356.882 819.467 356.988C819.449 357.199 819.287 357.345 819.075 357.341L814.105 357.254C813.893 357.251 813.757 357.1 813.775 356.888C813.785 356.782 813.836 356.677 813.906 356.615C813.952 356.573 814.017 356.553 814.087 356.491C815.155 355.704 815.238 355.24 815.274 354.838L815.577 351.367C815.731 349.611 815.382 348.736 814.706 348.194C814.606 348.129 814.553 348.001 814.564 347.874C814.575 347.747 814.629 347.621 814.74 347.559C814.808 347.518 814.937 347.499 815.028 347.437L818.536 346.481C818.578 346.482 818.644 346.462 818.708 346.463ZM827.127 346.165C828.975 346.197 830.438 346.985 831.064 348.331C831.64 349.528 831.341 350.519 829.892 351.278L827.491 352.465L824.691 353.836C826.296 355.666 830.102 355.923 831.613 353.003C831.641 352.919 831.668 352.856 831.718 352.772C831.791 352.667 831.924 352.606 832.051 352.608C832.2 352.611 832.341 352.698 832.371 352.847C832.406 352.933 832.375 353.038 832.368 353.123C832.184 354.497 830.666 356.039 830.503 356.205C829.325 357.266 827.78 357.917 826.123 357.888C822.874 357.831 820.47 355.161 820.753 351.924C821.016 348.919 823.482 346.504 826.423 346.195C826.66 346.157 826.894 346.161 827.127 346.165ZM825.825 347.435C825.549 347.43 825.289 347.489 825.021 347.633C823.641 348.329 822.965 350.712 824.147 353L825.704 352.222C827.149 351.506 828.488 350.3 827.573 348.61C827.192 347.861 826.507 347.425 825.825 347.435ZM837.957 346.502C839.316 346.526 840.846 346.786 841.773 347.861C842.564 348.787 842.112 350.305 840.981 350.836C840.717 350.937 840.408 351.059 840.14 350.969C839.892 350.88 839.743 350.645 839.767 350.37C839.785 350.158 839.906 349.99 839.905 349.757C840.146 348.469 839.14 347.561 837.802 347.538C836.825 347.521 836.063 348.461 836.566 349.275C836.847 349.704 837.343 350.115 838.049 350.551C839.381 351.38 841.655 352.861 841.603 354.661C841.562 356.589 840.166 357.963 837.235 357.912C835.876 357.889 834.346 357.629 833.419 356.553C832.63 355.607 833.08 354.11 834.211 353.579C834.454 353.477 834.784 353.355 835.052 353.445C835.3 353.534 835.449 353.77 835.425 354.045C835.409 354.235 835.286 354.424 835.267 354.635C835.048 355.924 836.052 356.853 837.305 356.875C837.729 356.883 838.723 356.709 838.801 355.82C838.88 354.91 838.096 354.388 836.774 353.454C835.292 352.411 833.641 351.343 833.819 349.312C833.987 347.386 836.13 346.47 837.957 346.502Z" fill="black"/>
<g opacity="0.4">
<line x1="-28" y1="22.5007" x2="1366" y2="22.5007" stroke="black" stroke-opacity="0.4"/>
<line x1="-28" y1="82.5007" x2="1366" y2="82.5007" stroke="black" stroke-opacity="0.4"/>
<line x1="-28" y1="142.501" x2="1366" y2="142.501" stroke="black" stroke-opacity="0.4"/>
<line x1="-28" y1="202.501" x2="1366" y2="202.501" stroke="black" stroke-opacity="0.4"/>
<line x1="-28" y1="262.501" x2="1366" y2="262.501" stroke="black" stroke-opacity="0.4"/>
<line x1="-28" y1="322.501" x2="1366" y2="322.501" stroke="black" stroke-opacity="0.4"/>
<line x1="-28" y1="382.501" x2="1366" y2="382.501" stroke="black" stroke-opacity="0.4"/>
<line x1="-28" y1="442.501" x2="1366" y2="442.501" stroke="black" stroke-opacity="0.4"/>
<line x1="-28" y1="502.501" x2="1366" y2="502.501" stroke="black" stroke-opacity="0.4"/>
<line x1="957.5" y1="-268" x2="957.5" y2="734" stroke="black" stroke-opacity="0.4"/>
<line x1="897.5" y1="-268" x2="897.5" y2="734" stroke="black" stroke-opacity="0.4"/>
<line x1="837.5" y1="-268" x2="837.5" y2="734" stroke="black" stroke-opacity="0.4"/>
<line x1="777.5" y1="-268" x2="777.5" y2="734" stroke="black" stroke-opacity="0.4"/>
<line x1="717.5" y1="-268" x2="717.5" y2="734" stroke="black" stroke-opacity="0.4"/>
<line x1="657.5" y1="-268" x2="657.5" y2="734" stroke="black" stroke-opacity="0.4"/>
<line x1="597.5" y1="-268" x2="597.5" y2="734" stroke="black" stroke-opacity="0.4"/>
<line x1="537.5" y1="-268" x2="537.5" y2="734" stroke="black" stroke-opacity="0.4"/>
<line x1="477.5" y1="-268" x2="477.5" y2="734" stroke="black" stroke-opacity="0.4"/>
<line x1="417.5" y1="-268" x2="417.5" y2="734" stroke="black" stroke-opacity="0.4"/>
<line x1="357.5" y1="-268" x2="357.5" y2="734" stroke="black" stroke-opacity="0.4"/>
<line x1="297.5" y1="-268" x2="297.5" y2="734" stroke="black" stroke-opacity="0.4"/>
<line x1="237.5" y1="-268" x2="237.5" y2="734" stroke="black" stroke-opacity="0.4"/>
<line x1="177.5" y1="-268" x2="177.5" y2="734" stroke="black" stroke-opacity="0.4"/>
<line x1="117.5" y1="-268" x2="117.5" y2="734" stroke="black" stroke-opacity="0.4"/>
<line x1="57.5" y1="-268" x2="57.5" y2="734" stroke="black" stroke-opacity="0.4"/>
</g>
<path d="M670.807 420.806C670.204 422.507 669.754 424.288 668.931 425.877C668.621 426.475 666.914 427.072 666.761 426.886C666.113 426.131 665.651 425.105 665.46 424.113C665.364 423.618 665.967 422.964 666.299 422.406C668.024 419.527 666.632 416.743 664.079 414.748C663.076 413.965 661.763 413.334 662.834 412.116C663.358 411.525 665.144 411.435 665.995 411.852C668.846 413.255 669.878 415.993 670.351 418.957C670.441 419.504 670.362 420.084 670.362 420.642C670.509 420.699 670.655 420.749 670.807 420.806Z" fill="black"/>
<path d="M659.529 404.582C661.755 402.344 666.01 402.389 667.666 404.52C668.01 404.959 668.117 405.771 667.993 406.328C667.903 406.734 667.176 407.365 666.855 407.298C664.736 406.864 662.646 406.3 660.572 405.692C660.2 405.585 659.958 405.055 659.529 404.576V404.582Z" fill="black"/>
<path d="M574.005 344.834C573.571 340.816 575.042 336.736 576.93 332.803C577.257 332.127 578.395 331.834 579.161 331.366C579.437 332.234 580.125 333.22 579.916 333.947C578.637 338.455 576.71 342.8 577.347 347.691C578.017 352.836 581.866 356.262 587.05 353.884C591.203 351.979 593.508 348.514 595.689 344.839C596.433 343.588 597.008 342.225 597.881 341.086C598.456 340.337 599.431 339.892 600.225 339.311C600.434 340.512 601.189 341.999 600.749 342.867C599.155 345.978 597.385 349.06 595.25 351.821C592.409 355.495 588.769 358.071 583.838 358.364C578.091 358.702 574.546 353.168 574.022 348.688C573.893 347.578 574.005 346.44 574.005 344.828V344.834Z" fill="black"/>
<path d="M589.736 325.384C590.83 326.658 591.991 327.604 591.844 327.909C591.241 329.137 590.238 330.163 589.381 331.261C588.767 330.546 587.561 329.729 587.663 329.131C587.86 327.993 588.795 326.979 589.742 325.384H589.736Z" fill="black"/>
<path d="M599.156 330.708C597.617 332.151 596.569 333.126 595.527 334.106C594.952 333.436 593.78 332.342 593.904 332.168C594.659 331.097 595.645 330.139 596.721 329.378C596.958 329.209 597.854 329.976 599.156 330.714V330.708Z" fill="black"/>
<path d="M521.411 445.912C535.707 427.012 549.559 408.704 563.41 390.395C563.274 390.187 563.145 389.984 563.009 389.776C555.797 395.878 547.552 398.42 538.238 397.27C538.39 397.529 538.548 397.794 538.7 398.054C537.071 399.102 535.381 400.065 533.842 401.232C533.217 401.705 532.445 402.731 532.58 403.305C532.946 404.889 533.763 406.371 534.417 407.937C532.552 410.462 531.47 410.31 529.83 407.667C529.12 406.517 528.833 404.737 526.156 405.452C523.012 406.292 519.529 403.446 518.16 400.285C517.94 399.778 517.258 399.49 516.869 399.034C515.652 397.62 514.091 396.34 513.364 394.701C512.333 392.362 511.161 389.657 511.437 387.274C511.865 383.577 509.127 380.111 511.099 376.409C511.978 374.758 513.009 373.513 514.891 373.27C517.033 373 519.191 372.859 521.473 372.656V370.058C518.712 370.295 516.058 370.65 513.398 370.718C510.637 370.791 505.115 366.644 504.5 363.973C504.359 363.358 505.233 362.068 505.926 361.775C511.33 359.481 516.419 360.056 521.293 364.192C521.496 360.822 521.682 357.695 521.873 354.46C519.67 355.582 517.433 356.624 515.297 357.83C512.497 359.408 509.651 359.042 506.687 358.49C503.424 357.881 501.745 355.514 501.452 352.792C501.136 349.84 501.874 346.746 504.793 344.808C507.504 343.004 510.124 341.072 512.699 339.257C510.671 338.344 508.338 337.538 506.253 336.304C500.911 333.143 500.302 327.79 502.759 322.955C503.926 320.661 506.552 320.132 509.02 320.244C513.455 320.441 517.444 321.94 521.163 324.747C520.803 323.868 520.414 322.994 520.076 322.104C517.974 316.525 520.729 310.022 526.629 308.839C532.355 307.689 538.384 312.609 538.435 318.509C538.457 321.337 538.012 324.178 537.787 326.927C540.948 326.527 544.425 326.184 547.862 325.575C548.572 325.451 549.237 324.431 549.699 323.687C555.498 314.35 564.537 309.588 574.691 307.267C583.724 305.204 592.926 305.514 601.773 309.284C608.62 312.197 613.832 316.88 618.65 322.448C624.071 328.702 626.63 336.135 627.881 343.855C629.058 351.085 627.92 358.478 624.832 365.319C623.17 368.993 622.415 372.324 623.908 376.539C625.238 380.297 624.674 384.681 622.144 388.333C621.783 388.851 621.581 389.477 621.254 390.159C627.858 394.802 634.395 399.395 640.926 403.999C647.091 408.338 653.244 412.688 659.409 417.027C661.37 418.407 662.289 419.636 660.897 422.375C657.859 428.359 654.304 433.893 649.559 438.632C644.978 443.207 639.433 444.853 633.307 442.796C629.69 441.579 626.844 438.964 625.26 435.217C624.201 432.704 622.809 430.331 621.733 427.829C620.955 426.02 620.442 424.093 619.653 421.755C618.825 423.361 618.07 424.719 617.411 426.122C613.41 434.642 607.949 442.08 599.407 446.29C594.11 448.899 588.215 449.147 582.732 445.732C576.336 441.754 572.86 435.989 571.107 428.725C569.078 420.318 569.09 412.012 571.034 403.621C570.803 403.525 570.572 403.424 570.346 403.328C556.304 424.46 542.261 445.591 527.914 467.174C537.866 464.728 547.147 462.344 556.484 460.192C561.206 459.104 566.024 458.4 570.808 457.6C575.615 456.794 580.433 456.01 585.262 455.357C588.734 454.883 592.239 454.376 595.732 454.342C601.548 454.292 607.375 454.495 613.184 454.788C625.221 455.396 637.139 456.968 648.849 459.859C653.47 461.003 658.028 462.401 662.576 463.821C663.207 464.018 663.596 464.998 664.092 465.618C663.28 465.939 662.384 466.666 661.674 466.514C653.436 464.745 645.293 462.429 636.993 461.088C628.923 459.786 620.702 459.363 612.536 458.721C607.859 458.355 603.143 458.033 598.465 458.208C592.83 458.417 587.184 458.935 581.6 459.735C573.682 460.873 565.788 462.22 557.949 463.809C550.584 465.303 543.309 467.236 535.989 468.949C532.783 469.698 529.543 470.329 526.348 471.135C525.671 471.304 524.832 471.851 524.573 472.442C523.496 474.905 521.71 475.029 519.811 473.84C517.562 472.437 515.399 472.527 512.801 472.578C506.354 472.696 499.891 471.924 493.444 471.343C492.233 471.236 490.125 470.921 491.061 468.898C491.41 468.148 493.326 467.765 494.498 467.827C500.511 468.171 506.512 468.712 512.682 468.548C506.552 463.984 500.409 459.437 494.29 454.855C489.156 451.018 484.101 447.062 478.889 443.331C476.708 441.771 476.663 439.584 477.514 437.865C480.703 431.396 483.239 424.516 488.863 419.489C492.334 416.39 496.183 414.322 500.764 413.612C507.025 412.643 511.984 416.931 514.66 421.811C518.594 428.985 520.183 436.924 521.417 445.912H521.411ZM587.111 398.944C586.88 402.229 588.384 403.435 591.715 402.331C592.932 401.925 594.098 401.271 595.338 401.046C596.189 400.888 597.141 401.271 598.048 401.412C597.71 402.381 597.654 403.672 596.978 404.235C595.885 405.154 594.352 405.537 593.073 406.264C592.295 406.703 591.647 407.363 590.937 407.926C591.878 408.507 592.937 409.696 593.738 409.543C595.648 409.177 597.4 408.039 599.299 407.492C600.286 407.211 601.446 407.526 602.528 407.571C602.173 408.659 601.959 409.825 601.407 410.806C601.046 411.448 600.195 411.82 599.153 412.637C601.875 413.212 603.954 413.404 606.05 411.775C610.153 408.591 611.595 404.416 611.212 399.406C611.161 398.735 611.088 397.901 611.415 397.389C612.998 394.915 614.779 392.559 616.374 390.091C619.242 385.651 621.913 381.069 619.603 375.541C618.526 372.972 618.65 370.667 619.62 368.126C620.955 364.626 622.133 361.059 623.153 357.453C625.125 350.493 625.418 343.213 622.702 336.665C619.062 327.88 613.686 320.148 605.019 315.06C599.502 311.82 593.777 310.208 587.55 309.881C582.05 309.594 576.776 310.462 571.417 311.978C563.855 314.119 558.406 318.785 553.458 324.459C551.728 326.443 552.094 328.094 553.689 329.925C556.647 333.323 555.943 338.716 552.032 341.072C549.423 342.644 546.482 343.658 543.32 345.089C544.087 345.974 544.87 346.943 545.721 347.839C549.051 351.333 548.747 357.723 545.191 361.003C544.707 361.454 544.617 362.575 544.712 363.341C544.797 364.006 545.4 364.604 545.772 365.235C548.043 369.061 549.852 373.287 552.709 376.612C556.574 381.114 561.415 384.552 566.836 387.33C572.082 390.024 577.475 391.241 583.206 391.551C583.679 391.573 584.395 391.01 584.648 390.531C588.136 383.893 591.917 381.841 599.328 383.256C601.463 383.667 603.351 385.268 605.436 386.124C606.152 386.417 607.577 386.462 607.887 386.045C610.096 383.008 613.015 380.072 610.412 375.755C610.13 375.288 610.649 374.003 611.173 373.507C611.488 373.214 613.06 373.53 613.196 373.885C613.968 376.009 615.292 378.37 614.937 380.388C613.804 386.851 609.048 390.672 603.216 394.543V389.776C597.057 385.38 593.969 385.352 589.821 389.539C588.565 390.812 587.618 392.311 588.779 393.748C589.252 394.334 591.151 393.698 592.396 393.754C593.371 393.799 594.335 394.053 595.304 394.21C594.853 395.27 594.656 396.943 593.895 397.265C591.867 398.11 589.596 398.375 587.105 398.944H587.111ZM571.327 394.988C568.312 391.703 567.394 391.838 564.892 395.18C561.139 400.195 557.211 405.08 553.43 410.073C545.614 420.402 537.849 430.771 530.044 441.111C527.283 444.768 524.561 448.459 521.648 451.993C521.09 452.669 519.687 452.928 518.712 452.86C518.306 452.832 517.72 451.44 517.692 450.657C517.365 440.576 515.292 430.996 510.158 422.172C508.405 419.163 505.971 417.641 502.534 417.523C497.885 417.365 494.526 420.042 491.309 422.78C486.631 426.764 484.355 432.416 481.661 437.719C480.895 439.223 481.47 440.644 483.16 441.833C488.807 445.794 494.273 450.015 499.818 454.123C506.907 459.38 514.001 464.632 521.237 469.997C537.911 445.033 554.585 420.059 571.327 394.988ZM619.597 393.9C619.034 395.692 618.549 397.434 617.935 399.124C616.154 404.015 614.469 408.952 612.452 413.747C610.868 417.517 608.986 421.186 606.98 424.758C604.179 429.74 600.139 433.256 594.341 434.411C589.348 435.409 584.682 431.926 582.434 425.727C580.957 421.653 580.213 417.54 580.568 413.212C580.963 408.462 581.036 403.677 581.69 398.972C582.039 396.453 581.791 395.022 579.374 394.594C577.069 394.188 576.573 396.115 576.286 397.704C575.401 402.686 574.629 407.695 573.936 412.71C572.612 422.29 574.353 431.053 580.366 438.947C584.767 444.723 593.411 445.298 597.846 442.796C605.757 438.333 610.806 431.272 614.587 423.22C616.227 419.726 617.619 416.114 619.343 412.671C619.76 411.837 621.068 411.442 621.964 410.845C622.482 412.012 623.209 413.139 623.451 414.361C623.632 415.286 622.978 416.356 623.074 417.32C623.683 423.564 625.92 429.345 629.334 434.479C632.299 438.942 637.348 441.658 643.214 438.181C649.581 434.405 653.43 428.438 656.541 421.958C656.811 421.394 656.197 419.946 655.566 419.484C650.027 415.376 644.408 411.375 638.779 407.385C632.473 402.917 626.134 398.493 619.591 393.9H619.597ZM552.449 382.36C549.88 379.137 547.147 376.296 545.135 373.017C543.118 369.72 541.827 365.973 540.12 362.22C533.127 363.522 530.168 358.236 526.449 352.916C526.359 359.825 524.663 366.086 526.319 372.746C529.813 370.329 533.386 370.025 536.479 372.014C541.393 375.169 540.678 380.078 539.179 385.098C544.267 386.102 548.488 384.569 552.449 382.365V382.36ZM607.284 415.776C600.534 417.371 600.241 417.286 597.079 415.314C595.811 414.525 594.374 413.911 592.926 413.516C587.894 412.147 586.435 410.253 587.319 405.847C586.361 405.424 585.381 404.996 583.887 404.337C584.096 408.332 584.575 411.882 584.389 415.393C584.181 419.365 585.02 422.904 586.891 426.364C589.151 430.557 593.484 431.768 597.541 429.266C602.573 426.161 604.585 420.96 607.284 415.765V415.776ZM524.009 383.65C525.626 382.98 526.945 382.523 528.173 381.886C528.895 381.515 529.402 380.585 530.129 380.41C530.94 380.213 532.09 380.32 532.704 380.793C533.048 381.064 532.867 382.518 532.456 383.126C531.915 383.921 530.709 384.264 530.174 385.059C529.548 385.994 528.714 387.482 529.058 388.254C530.427 391.365 532.214 394.289 533.977 397.529C534.462 396.966 535.009 396.617 534.992 396.301C534.857 393.675 536.603 393.816 538.362 393.872C539.579 393.912 540.796 393.872 542.019 393.878C548.341 393.917 553.768 391.494 558.947 387.927C557.69 385.459 555.999 384.856 553.712 385.966C548.138 388.677 542.351 389.59 536.243 388.226C534.017 387.73 533.431 386.282 534.676 384.411C535.476 383.205 536.237 381.909 536.665 380.545C537.415 378.173 535.46 375.034 533.346 374.674C529.182 373.969 523.446 377.998 524.009 383.65ZM528.094 343.709C530.906 343.703 534.428 340.401 534.428 337.769C534.428 335.414 530.58 331.199 528.528 331.312C525.288 331.492 522.262 334.98 522.358 338.423C522.454 341.793 524.544 343.72 528.094 343.709ZM514.305 385.972C514.644 389.139 517.089 389.494 519.152 389.838C521.563 390.243 523.93 389.77 525.367 387.285C521.761 385.741 518.205 384.467 514.305 385.966V385.972ZM520.679 378.325C520.876 375.496 518.971 376.556 517.861 376.404C515.759 376.105 513.99 376.849 514.041 379.142C514.097 381.689 516.559 381.813 518.312 381.96C521.321 382.208 519.969 379.384 520.679 378.331V378.325ZM528.01 392.497C527.227 392.34 526.5 392.024 525.807 392.08C523.226 392.289 520.651 392.61 518.081 392.914C517.67 392.965 517.269 393.151 516.869 393.275C517.05 393.816 517.089 394.695 517.439 394.847C519.101 395.563 520.91 396.679 522.55 396.515C524.55 396.318 526.984 395.811 528.01 392.497ZM530.518 398.099C530.287 398.003 530.061 397.901 529.83 397.806C527.368 398.702 524.911 399.598 522.448 400.488C522.431 400.725 522.42 400.961 522.403 401.192C524.133 401.339 526.032 401.976 527.542 401.468C528.771 401.057 529.543 399.271 530.512 398.093L530.518 398.099Z" fill="black"/>
<path d="M521.92 311.443C519.998 313.044 518.077 317.847 521.279 324.891C520.959 324.571 515.836 321.369 513.915 321.049C511.993 320.729 505.27 318.808 502.708 322.97C500.147 327.133 501.748 330.975 503.349 333.857C504.949 336.738 510.393 338.339 512.634 339.3C511.994 339.62 510.713 341.221 507.191 343.142C503.669 345.063 501.427 348.265 501.427 351.467C501.427 354.669 502.708 357.23 506.871 358.511C511.033 359.792 516.156 357.551 519.358 355.95C522.56 354.349 524.801 352.428 525.762 351.467C525.762 351.787 526.082 352.107 527.043 353.708C528.003 355.309 531.846 361.073 535.688 362.033C539.53 362.994 544.013 362.674 546.254 359.792C548.495 356.91 548.175 351.147 546.894 349.226C545.614 347.305 544.653 346.664 543.372 345.063C544.333 345.063 552.338 341.861 553.939 339.3C555.54 336.738 555.86 334.817 554.899 331.615C553.939 328.413 549.136 325.852 545.614 325.852C542.092 325.852 541.131 327.133 537.609 327.133C537.929 324.251 538.249 321.049 538.249 316.886C538.249 312.724 533.767 309.842 530.565 308.882C527.363 307.921 523.841 309.842 521.92 311.443Z" fill="#2D4EE0" stroke="#2D4EE0" stroke-width="0.640381"/>
<path d="M522.24 337.059C522.56 335.138 524.161 332.896 526.722 331.936C527.683 331.494 528.964 330.975 530.565 332.256C532.166 333.537 531.845 333.857 533.446 335.778C535.047 337.699 534.087 339.62 533.446 340.901C532.806 342.182 531.525 342.822 529.924 343.463C528.323 344.103 525.442 343.463 524.161 342.822C522.88 342.182 521.92 338.98 522.24 337.059Z" fill="white"/>
<path d="M102.2 140.524C87.1235 140.524 78 128.772 78 111.84C78 94.8296 87.6647 83 104.211 83C118.978 83 125.241 92.2008 126.478 99.7006L116.582 101.402C115.731 96.5306 112.406 90.8864 104.056 90.8864C94.0048 90.8864 88.2059 99.2367 88.2059 111.762C88.2059 123.824 93.4635 132.483 104.133 132.483C115.267 132.483 118.128 123.36 118.128 118.334V117.329H103.206V109.675H127.174V139.21H119.984L119.21 130.782C116.659 136.658 110.396 140.524 102.2 140.524Z" fill="black"/>
<path d="M168.325 117.948V122.2H141.187C141.264 128.695 145.362 132.87 151.47 132.87C155.8 132.87 159.124 130.628 160.825 126.453L168.016 129.7C165.078 136.427 159.047 140.138 151.083 140.138C139.254 140.138 132.141 132.947 132.141 120.267C132.141 107.51 139.176 99.6233 150.697 99.6233C161.908 99.6233 168.325 106.118 168.325 117.948ZM159.124 116.092V115.473C159.202 109.133 156.032 105.809 150.465 105.809C144.666 105.809 141.341 109.675 141.187 116.092H159.124Z" fill="black"/>
<path d="M182.853 139.21H173.575V100.551H182.466V108.051C185.018 102.407 189.27 99.6233 195.301 99.6233C203.729 99.6233 208.059 104.881 208.059 115.241V139.21H198.781V116.169C198.781 110.061 196.384 107.046 191.513 107.046C186.1 107.046 182.853 111.376 182.853 118.721V139.21Z" fill="black"/>
<path d="M248.745 117.948V122.2H221.606C221.683 128.695 225.781 132.87 231.889 132.87C236.219 132.87 239.544 130.628 241.245 126.453L248.435 129.7C245.497 136.427 239.467 140.138 231.503 140.138C219.673 140.138 212.56 132.947 212.56 120.267C212.56 107.51 219.596 99.6233 231.116 99.6233C242.327 99.6233 248.745 106.118 248.745 117.948ZM239.544 116.092V115.473C239.621 109.133 236.451 105.809 230.884 105.809C225.085 105.809 221.761 109.675 221.606 116.092H239.544Z" fill="black"/>
<path d="M262.654 100.551V109.907C264.587 103.798 268.762 99.6233 274.948 99.6233C275.334 99.6233 275.721 99.6233 276.107 99.7006V108.592C275.643 108.592 275.257 108.515 274.87 108.515C271.159 108.515 268.53 109.597 266.829 111.298C263.659 114.314 263.273 118.721 263.273 122.973V139.21H253.994V100.551H262.654Z" fill="black"/>
<path d="M289.66 140.138C281.696 140.138 276.438 135.576 276.438 128.695C276.438 124.984 278.062 121.891 281.155 119.958C283.938 118.334 287.649 117.329 293.757 116.479L301.953 115.473V114.468C301.953 108.669 299.711 106.195 294.763 106.195C290.201 106.195 287.495 108.592 287.185 112.999H277.675C278.294 104.726 284.789 99.6233 294.763 99.6233C306.206 99.6233 311.309 104.494 311.309 115.705V127.226C311.309 132.483 311.695 136.504 312.468 139.21H303.19C302.881 137.277 302.649 134.958 302.572 132.561C300.716 137.277 295.845 140.138 289.66 140.138ZM292.598 133.566C298.319 133.566 302.185 129.468 302.185 123.36V120.886L293.448 122.2C288.345 123.051 286.026 124.906 286.026 128.231C286.026 131.478 288.5 133.566 292.598 133.566Z" fill="black"/>
<path d="M318.482 83.1546H327.76V139.21H318.482V83.1546Z" fill="black"/>
<path d="M387.119 84.3144H397.17V139.21H387.119V115.241H362.532V139.21H352.558V84.3144H362.532V107.278H387.119V84.3144Z" fill="black"/>
<path d="M416.068 140.138C408.104 140.138 402.847 135.576 402.847 128.695C402.847 124.984 404.47 121.891 407.563 119.958C410.347 118.334 414.058 117.329 420.166 116.479L428.362 115.473V114.468C428.362 108.669 426.119 106.195 421.171 106.195C416.609 106.195 413.903 108.592 413.594 112.999H404.084C404.702 104.726 411.197 99.6233 421.171 99.6233C432.614 99.6233 437.717 104.494 437.717 115.705V127.226C437.717 132.483 438.104 136.504 438.877 139.21H429.599C429.289 137.277 429.057 134.958 428.98 132.561C427.124 137.277 422.253 140.138 416.068 140.138ZM419.006 133.566C424.728 133.566 428.593 129.468 428.593 123.36V120.886L419.857 122.2C414.754 123.051 412.434 124.906 412.434 128.231C412.434 131.478 414.908 133.566 419.006 133.566Z" fill="black"/>
<path d="M465.689 140.138C460.045 140.138 455.715 137.277 453.705 132.947L452.7 139.21H444.891V83.1546H454.169V106.582C456.179 102.561 460.431 99.6233 466.076 99.6233C475.586 99.6233 481.617 107.896 481.617 119.881C481.617 132.019 475.431 140.138 465.689 140.138ZM462.828 133.025C468.627 133.025 471.952 128.076 471.952 119.881C471.952 111.84 468.704 106.737 462.828 106.737C457.261 106.737 454.014 111.298 454.014 118.643V121.272C454.014 128.463 457.184 133.025 462.828 133.025Z" fill="black"/>
<path d="M496.313 94.1338H486.262V84.469H496.313V94.1338ZM495.926 139.21H486.648V100.551H495.926V139.21Z" fill="black"/>
<path d="M507.398 107.278H500.439V100.551H507.398V90.8091L516.676 87.0978V100.551H526.109V107.278H516.676V125.757C516.676 129.855 518.454 131.865 522.32 131.865C523.866 131.865 524.872 131.633 526.109 131.401V139.21C523.866 139.674 522.165 139.906 519.769 139.906C510.49 139.906 507.398 135.035 507.398 127.226V107.278Z" fill="black"/>
<path d="M566.314 140.524C553.324 140.524 545.593 134.107 543.35 125.138L551.855 121.427C553.634 127.612 558.118 132.561 566.7 132.561C572.345 132.561 577.602 130.318 577.602 124.597C577.602 119.262 574.355 117.406 568.324 116.169L560.67 114.546C552.01 112.767 546.211 108.128 546.211 98.7728C546.211 89.2627 554.02 83 566.391 83C576.752 83 585.025 87.2525 587.422 96.376L579.535 100.551C577.757 94.2111 573.195 90.5771 565.927 90.5771C559.896 90.5771 555.876 93.3606 555.876 97.9996C555.876 102.484 558.427 104.804 564.381 106.118L572.422 107.819C581.468 109.752 587.499 113.927 587.499 123.669C587.499 133.102 580.386 140.524 566.314 140.524Z" fill="black"/>
<path d="M594.389 107.278H587.431V100.551H594.389V90.8091L603.667 87.0978V100.551H613.1V107.278H603.667V125.757C603.667 129.855 605.446 131.865 609.312 131.865C610.858 131.865 611.863 131.633 613.1 131.401V139.21C610.858 139.674 609.157 139.906 606.76 139.906C597.482 139.906 594.389 135.035 594.389 127.226V107.278Z" fill="black"/>
<path d="M633.76 140.138C622.627 140.138 614.817 132.793 614.817 119.803C614.817 106.891 622.627 99.6233 633.76 99.6233C644.894 99.6233 652.78 106.891 652.78 119.803C652.78 132.793 644.894 140.138 633.76 140.138ZM633.76 133.102C639.714 133.102 643.27 128.617 643.27 119.803C643.27 110.989 639.714 106.659 633.76 106.659C627.807 106.659 624.328 110.989 624.328 119.803C624.328 128.617 627.807 133.102 633.76 133.102Z" fill="black"/>
<path d="M666.724 100.551V109.907C668.657 103.798 672.832 99.6233 679.017 99.6233C679.404 99.6233 679.79 99.6233 680.177 99.7006V108.592C679.713 108.592 679.326 108.515 678.94 108.515C675.229 108.515 672.6 109.597 670.899 111.298C667.729 114.314 667.342 118.721 667.342 122.973V139.21H658.064V100.551H666.724Z" fill="black"/>
<path d="M717 117.948V122.2H689.862C689.939 128.695 694.037 132.87 700.145 132.87C704.475 132.87 707.799 130.628 709.5 126.453L716.691 129.7C713.753 136.427 707.722 140.138 699.758 140.138C687.929 140.138 680.815 132.947 680.815 120.267C680.815 107.51 687.851 99.6233 699.372 99.6233C710.583 99.6233 717 106.118 717 117.948ZM707.799 116.092V115.473C707.877 109.133 704.706 105.809 699.14 105.809C693.341 105.809 690.016 109.675 689.862 116.092H707.799Z" fill="black"/>
<path d="M80.441 379.31V359.152H82.7638V366.593H82.9607C83.1313 366.331 83.3675 365.996 83.6693 365.589C83.9778 365.176 84.4174 364.808 84.9883 364.487C85.5657 364.159 86.3465 363.995 87.3308 363.995C88.6038 363.995 89.7258 364.313 90.697 364.949C91.6681 365.586 92.426 366.488 92.9706 367.656C93.5153 368.824 93.7876 370.202 93.7876 371.79C93.7876 373.391 93.5153 374.779 92.9706 375.953C92.426 377.121 91.6714 378.027 90.7068 378.67C89.7422 379.307 88.63 379.625 87.3702 379.625C86.399 379.625 85.6215 379.464 85.0375 379.142C84.4535 378.814 84.004 378.444 83.689 378.03C83.3741 377.61 83.1313 377.263 82.9607 376.987H82.6851V379.31H80.441ZM82.7245 371.751C82.7245 372.892 82.8918 373.9 83.2264 374.772C83.5611 375.639 84.0499 376.318 84.693 376.81C85.336 377.295 86.1234 377.538 87.0552 377.538C88.0263 377.538 88.8367 377.282 89.4863 376.77C90.1425 376.252 90.6346 375.556 90.9627 374.684C91.2974 373.805 91.4647 372.827 91.4647 371.751C91.4647 370.688 91.3007 369.73 90.9726 368.877C90.651 368.017 90.1622 367.338 89.506 366.839C88.8564 366.334 88.0395 366.081 87.0552 366.081C86.1103 366.081 85.3163 366.321 84.6733 366.8C84.0302 367.272 83.5447 367.935 83.2166 368.788C82.8885 369.635 82.7245 370.622 82.7245 371.751ZM98.2955 384.979C97.9018 384.979 97.5507 384.946 97.2423 384.881C96.9339 384.822 96.7207 384.763 96.6026 384.704L97.1931 382.656C97.7574 382.801 98.2561 382.853 98.6892 382.814C99.1223 382.774 99.5061 382.581 99.8408 382.233C100.182 381.892 100.494 381.337 100.776 380.57L101.209 379.389L95.6183 364.192H98.138L102.311 376.239H102.469L106.642 364.192H109.162L102.744 381.515C102.456 382.295 102.098 382.942 101.672 383.454C101.245 383.972 100.75 384.356 100.185 384.605C99.6275 384.854 98.9976 384.979 98.2955 384.979Z" fill="black"/>
<path d="M132.724 353.53C133.084 353.53 133.408 353.53 133.768 353.53C137.082 353.673 139.82 354.926 141.153 356.788C142.882 359.222 142.486 362.551 139.892 363.803C139.316 364.09 138.559 364.376 137.911 364.197C137.335 363.982 136.902 363.446 136.902 362.801C136.902 362.3 137.154 361.906 137.154 361.369C137.407 358.756 135.245 356.609 132.688 355.893C130.742 355.356 128.437 355.642 126.924 356.68C123.43 359.007 123.358 365.414 126.42 369.781C129.301 373.898 133.66 375.544 137.299 375.258C137.587 375.258 137.875 375.186 138.127 375.151V370.354C138.127 369.674 138.055 368.922 136.362 367.526C136.254 367.455 136.146 367.383 136.074 367.311C135.93 367.204 135.858 367.025 135.858 366.846C135.858 366.524 136.146 366.238 136.506 366.238H142.45C143.098 366.238 143.278 366.596 143.278 367.383V378.014C143.278 378.193 143.314 378.336 143.242 378.48C143.134 378.694 142.918 378.873 142.666 378.873C142.486 378.873 142.378 378.802 142.27 378.694C141.477 378.086 140.613 376.69 138.307 377.799C138.271 377.835 138.235 377.835 138.199 377.835C138.163 377.871 138.163 377.871 138.127 377.871C136.434 378.694 134.525 379.16 132.507 379.16C125.339 379.16 119.575 373.397 119.575 366.273C119.575 361.548 122.133 357.432 125.951 355.177C128.005 354.031 130.058 353.53 132.724 353.53Z" fill="black"/>
<path d="M154.835 359.723C155.7 359.723 156.6 359.83 157.465 360.045C161.535 361.19 164.525 365.056 164.525 369.638C164.525 375.115 160.239 379.589 154.979 379.589C149.684 379.589 145.433 375.115 145.433 369.638C145.433 365.128 148.315 361.298 152.313 360.081C153.142 359.866 153.97 359.723 154.835 359.723ZM151.989 362.3C151.557 362.3 151.197 362.372 150.873 362.551C148.891 363.696 149.143 367.777 151.413 371.678C153.682 375.58 157.141 377.835 159.086 376.726C161.031 375.58 160.779 371.499 158.509 367.598C156.672 364.448 154.007 362.264 151.989 362.3Z" fill="black"/>
<path d="M175.733 359.723C176.597 359.723 177.498 359.83 178.362 360.045C182.433 361.19 185.423 365.056 185.423 369.638C185.423 375.115 181.136 379.589 175.877 379.589C170.581 379.589 166.331 375.115 166.331 369.638C166.331 365.128 169.212 361.298 173.211 360.081C174.04 359.866 174.868 359.723 175.733 359.723ZM172.887 362.3C172.455 362.3 172.094 362.372 171.77 362.551C169.789 363.696 170.041 367.777 172.31 371.678C174.58 375.58 178.038 377.835 179.983 376.726C181.929 375.58 181.676 371.499 179.407 367.598C177.57 364.448 174.904 362.264 172.887 362.3Z" fill="black"/>
<path d="M204.483 352.098C204.555 352.063 204.627 352.027 204.699 352.027C204.771 351.991 204.844 351.991 204.916 352.027C205.168 352.063 205.384 352.242 205.42 352.492C205.456 352.6 205.456 352.743 205.456 352.85C205.456 360.475 205.456 366.488 205.456 374.721C205.456 375.401 205.528 376.189 207.221 377.549C207.329 377.656 207.437 377.692 207.509 377.764C207.653 377.871 207.725 378.05 207.725 378.229C207.725 378.587 207.437 378.838 207.077 378.838H201.133C200.485 378.838 200.305 378.48 200.305 377.728V377.012C200.233 377.084 200.124 377.191 200.052 377.263C197.459 379.625 194.037 379.482 191.731 377.943C189.029 376.153 187.228 373.11 187.228 369.638C187.228 364.877 190.578 360.904 195.045 359.938C195.838 359.794 196.594 359.723 197.351 359.723C197.927 359.723 198.503 359.759 199.044 359.866C199.476 359.938 199.872 360.045 200.305 360.188C200.269 357.36 199.512 355.929 198.323 355.034C198.143 354.926 198.035 354.711 198.035 354.497C198.035 354.282 198.143 354.103 198.287 353.996C198.431 353.888 198.612 353.852 198.756 353.781L204.483 352.098ZM196.378 361.62C196.126 361.62 195.838 361.656 195.586 361.727C192.956 362.443 191.983 365.772 192.344 369.352C192.632 372.144 194.469 376.296 197.603 376.296C198.648 376.296 199.728 375.437 200.125 374.184C200.341 373.504 200.305 372.681 200.305 371.893V369.531C200.305 368.314 200.305 367.097 200.305 365.88C200.305 365.235 200.305 364.77 200.088 364.126C199.512 362.586 197.891 361.62 196.378 361.62Z" fill="black"/>
<path d="M214.474 353.781H222.903C223.263 353.781 223.516 354.067 223.516 354.425C223.516 354.604 223.444 354.783 223.335 354.89C223.227 354.962 223.155 354.998 223.047 355.105C221.354 356.465 221.246 357.253 221.246 357.933V365.45H230.792V357.933C230.792 357.253 230.72 356.465 229.027 355.105C228.919 354.998 228.811 354.962 228.739 354.89C228.595 354.783 228.523 354.604 228.523 354.425C228.523 354.067 228.811 353.781 229.171 353.781H237.601C237.925 353.781 238.213 354.067 238.213 354.425C238.213 354.604 238.141 354.783 238.033 354.89C237.925 354.962 237.853 354.998 237.745 355.105C236.052 356.465 235.944 357.253 235.944 357.933V374.721C235.944 375.401 236.052 376.189 237.745 377.549C237.853 377.656 237.925 377.692 238.033 377.764C238.141 377.871 238.213 378.05 238.213 378.229C238.213 378.587 237.925 378.838 237.601 378.838H229.171C228.811 378.838 228.523 378.587 228.523 378.229C228.523 378.05 228.595 377.871 228.739 377.764C228.811 377.692 228.919 377.656 229.027 377.549C230.72 376.189 230.792 375.401 230.792 374.721V367.204H221.246V374.721C221.246 375.401 221.354 376.189 223.047 377.549C223.155 377.656 223.227 377.692 223.335 377.764C223.444 377.871 223.516 378.05 223.516 378.229C223.516 378.587 223.263 378.838 222.903 378.838H214.474C214.114 378.838 213.861 378.587 213.861 378.229C213.861 378.05 213.933 377.871 214.042 377.764C214.114 377.692 214.222 377.656 214.33 377.549C216.023 376.189 216.095 375.401 216.095 374.721V357.933C216.095 357.253 216.023 356.465 214.33 355.105C214.222 354.998 214.114 354.962 214.042 354.89C213.933 354.783 213.861 354.604 213.861 354.425C213.861 354.067 214.114 353.781 214.474 353.781Z" fill="black"/>
<path d="M243.313 360.224C244.322 360.081 245.295 360.117 246.375 360.331C249.077 360.976 251.383 363.088 252.499 367.132C252.715 367.992 252.896 369.101 253.076 370.103L253.652 373.039C253.796 373.826 253.94 374.399 254.048 375.115C254.444 376.654 254.841 377.084 255.633 377.692C255.813 377.799 255.921 378.014 255.921 378.229C255.921 378.587 255.633 378.838 255.309 378.838H252.103C250.482 378.838 249.653 377.871 249.293 377.298C249.221 377.155 249.149 377.048 249.077 376.869C247.636 378.265 245.763 379.446 243.493 379.446C241.008 379.446 238.774 378.336 238.558 375.544C238.342 373.182 240.035 371.428 241.764 369.817C243.385 368.278 245.295 366.846 246.339 365.092C245.871 364.197 245.295 363.625 244.646 363.267C243.205 362.479 241.188 362.694 239.855 364.018C239.675 364.269 239.351 364.376 239.063 364.269C238.81 364.161 238.666 363.875 238.702 363.625C238.702 363.41 238.847 363.267 238.919 363.052C239.819 361.441 241.512 360.51 243.313 360.224ZM247.096 366.918C246.015 368.528 244.502 370.175 243.854 371.285C242.989 372.788 243.025 373.898 243.602 374.757C244.826 376.547 247.204 376.332 248.717 374.757L248.501 373.54L247.96 370.64C247.708 369.173 247.42 367.92 247.096 366.918Z" fill="black"/>
<path d="M262.314 352.098C262.458 352.063 262.638 351.991 262.854 352.027C263.107 352.063 263.287 352.277 263.323 352.528C263.359 352.635 263.323 352.743 263.323 352.85C263.323 355.678 263.359 358.542 263.323 361.369V362.264C265.952 359.651 269.519 359.759 271.896 361.334C274.598 363.123 276.435 366.166 276.435 369.638C276.435 374.399 273.049 378.372 268.582 379.339C267.79 379.482 267.033 379.553 266.277 379.553C265.7 379.553 265.124 379.518 264.584 379.41C263.935 379.267 263.287 379.088 262.71 378.838H256.55C256.19 378.838 255.938 378.587 255.938 378.229C255.938 378.05 256.01 377.871 256.118 377.764C256.19 377.692 256.298 377.656 256.406 377.549C258.099 376.189 258.171 375.401 258.171 374.721V360.403C258.171 357.432 257.451 355.929 256.226 355.034C256.046 354.926 255.938 354.711 255.938 354.497C255.938 354.282 256.01 354.103 256.19 353.996C256.298 353.888 256.478 353.817 256.659 353.781L262.314 352.098ZM266.061 362.98C264.728 362.98 263.323 364.34 263.323 366.13V374.005C263.323 376.475 265.988 378.086 268.042 377.549C270.671 376.833 271.644 373.504 271.284 369.924C270.996 367.132 269.159 362.98 266.061 362.98Z" fill="black"/>
<path d="M281.087 353.28C281.664 353.28 282.204 353.459 282.78 353.745C283.645 354.318 284.221 355.248 284.221 356.358C284.221 358.076 282.816 359.472 281.087 359.472C279.394 359.472 277.989 358.076 277.989 356.358C277.989 355.141 278.71 354.067 279.754 353.566C280.187 353.351 280.655 353.244 281.087 353.28ZM283.609 360.475C283.645 360.475 283.645 360.475 283.681 360.475C283.933 360.546 284.149 360.725 284.185 360.976C284.221 361.047 284.185 361.155 284.185 361.226V374.721C284.185 375.401 284.293 376.189 285.986 377.549C286.094 377.656 286.166 377.692 286.275 377.764C286.383 377.871 286.455 378.05 286.455 378.229C286.455 378.587 286.203 378.838 285.842 378.838H277.413C277.053 378.838 276.8 378.587 276.8 378.229C276.8 378.05 276.873 377.871 276.981 377.764C277.053 377.692 277.161 377.656 277.269 377.549C278.962 376.189 279.034 375.401 279.034 374.721V368.851C279.034 365.88 278.313 364.412 277.089 363.517C276.909 363.41 276.8 363.195 276.8 362.98C276.8 362.765 276.873 362.551 277.053 362.443C277.161 362.372 277.377 362.336 277.521 362.228L283.321 360.51C283.393 360.51 283.501 360.475 283.609 360.475Z" fill="black"/>
<path d="M291.303 357.504C291.483 357.36 291.663 357.289 291.951 357.325C292.167 357.396 292.311 357.575 292.383 357.79C292.419 357.897 292.383 358.005 292.383 358.112C292.383 359.365 292.383 360.582 292.383 361.799H294.581C294.761 361.799 294.905 361.799 295.049 361.835C295.445 361.906 295.733 362.264 295.733 362.658C295.733 363.052 295.481 363.374 295.121 363.517C294.977 363.553 294.833 363.553 294.653 363.553H292.383V373.003C292.383 377.084 294.797 376.869 296.202 376.081C296.31 376.01 296.418 375.974 296.526 375.974C296.886 375.974 297.174 376.26 297.174 376.618C297.174 376.761 297.102 376.94 296.994 377.048C295.733 378.623 293.716 379.195 291.807 379.195C289.754 379.195 287.232 377.835 287.232 374.005V368.707C287.232 365.056 287.304 364.663 286.98 364.09C286.584 363.446 285.935 363.66 285.503 363.481C285.395 363.41 285.287 363.338 285.215 363.231C285.071 363.088 284.999 362.873 284.999 362.658C284.999 362.443 285.071 362.228 285.215 362.085C285.287 361.978 285.395 361.906 285.503 361.835L291.303 357.504Z" fill="black"/>
<path d="M304.186 359.973C306.492 359.973 309.122 360.367 310.851 362.157C312.328 363.696 311.787 366.273 309.95 367.204C309.518 367.383 309.014 367.598 308.545 367.455C308.113 367.311 307.825 366.918 307.825 366.452C307.825 366.094 308.005 365.808 307.969 365.414C308.185 363.231 306.348 361.727 304.078 361.727C302.421 361.727 301.269 363.338 302.241 364.698C302.782 365.414 303.682 366.094 304.943 366.81C307.32 368.171 311.391 370.605 311.571 373.647C311.787 376.905 309.626 379.267 304.655 379.267C302.349 379.267 299.72 378.873 297.99 377.084C296.514 375.509 297.054 372.967 298.891 372.036C299.287 371.857 299.828 371.643 300.296 371.786C300.728 371.929 301.016 372.323 301.016 372.788C301.016 373.11 300.836 373.432 300.836 373.79C300.656 375.974 302.493 377.513 304.619 377.513C305.339 377.513 306.996 377.191 306.996 375.688C306.996 374.148 305.591 373.289 303.214 371.75C300.548 370.032 297.594 368.278 297.594 364.842C297.594 361.584 301.088 359.973 304.186 359.973Z" fill="black"/>
<path d="M325.949 354.64C330.488 352.6 336.864 352.671 340.106 356.788C341.943 359.114 341.439 362.551 338.845 363.803C338.269 364.09 337.512 364.376 336.864 364.197C336.288 363.982 335.855 363.446 335.855 362.801C335.855 362.3 336.107 361.906 336.107 361.369C336.324 359.15 334.919 357.253 332.937 356.358C330.74 355.392 328.254 355.392 326.165 356.716C322.887 358.756 321.698 364.806 325.373 369.781C330.992 377.37 341.187 374.113 342.988 368.206C343.024 368.099 343.06 367.956 343.096 367.848C343.168 367.598 343.42 367.419 343.672 367.419C343.96 367.419 344.213 367.598 344.285 367.848C344.321 368.027 344.321 368.171 344.285 368.349C343.96 370.39 343.276 371.786 342.123 373.611C339.782 376.94 335.891 379.16 331.46 379.16C324.292 379.16 318.528 373.397 318.528 366.273C318.528 361.119 321.518 356.644 325.949 354.64Z" fill="black"/>
<path d="M349.881 352.134C349.953 352.098 350.061 352.063 350.133 352.063C350.241 352.027 350.385 351.991 350.493 352.027C350.709 352.063 350.89 352.242 350.962 352.456C350.998 352.564 350.998 352.671 350.962 352.779C350.998 358.04 350.998 363.338 350.998 368.6V374.721C350.998 375.401 351.07 376.189 352.763 377.549C352.871 377.656 352.979 377.692 353.051 377.764C353.159 377.871 353.267 378.05 353.267 378.229C353.231 378.587 352.979 378.838 352.619 378.838H344.189C343.829 378.838 343.577 378.587 343.577 378.229C343.577 378.05 343.649 377.871 343.757 377.764C343.865 377.692 343.937 377.656 344.045 377.549C345.738 376.189 345.846 375.401 345.846 374.721V360.403C345.846 357.432 345.09 355.964 343.865 355.034C343.685 354.926 343.577 354.711 343.577 354.497C343.577 354.282 343.649 354.103 343.829 353.996C343.937 353.888 344.153 353.852 344.297 353.781L349.881 352.134Z" fill="black"/>
<path d="M358.366 360.475C358.51 360.475 358.618 360.475 358.763 360.51C358.979 360.546 359.159 360.725 359.195 360.94C359.231 361.011 359.231 361.155 359.231 361.262C359.231 364.126 359.231 366.989 359.231 369.853V372.502C359.231 377.37 365.859 377.764 366.075 372.752C366.075 370.032 366.039 367.311 366.039 364.591C366.039 363.947 365.967 363.159 364.274 361.763C364.166 361.692 364.058 361.656 363.986 361.548C363.842 361.441 363.77 361.262 363.77 361.083C363.77 360.761 364.058 360.475 364.418 360.475H370.326C370.47 360.475 370.614 360.475 370.758 360.51C370.974 360.582 371.154 360.761 371.191 361.011C371.191 361.083 371.191 361.155 371.191 361.226C371.191 365.736 371.191 370.175 371.227 374.721C371.227 375.401 371.299 376.189 372.992 377.549C373.1 377.656 373.208 377.692 373.28 377.764C373.388 377.871 373.496 378.05 373.496 378.229C373.496 378.587 373.208 378.873 372.848 378.873H366.76C366.435 378.873 366.075 378.587 366.075 378.229V376.475C365.283 377.656 363.157 378.873 360.924 378.873C356.925 378.873 354.08 376.761 354.08 372.502C354.08 369.889 354.08 367.24 354.08 364.591C354.08 363.947 354.008 363.159 352.278 361.763C352.206 361.692 352.098 361.656 351.99 361.548C351.882 361.441 351.81 361.262 351.81 361.083C351.81 360.761 352.098 360.475 352.423 360.475H358.366Z" fill="black"/>
<path d="M379.858 352.098C380.002 352.063 380.182 351.991 380.398 352.027C380.65 352.063 380.83 352.277 380.866 352.528C380.902 352.635 380.866 352.743 380.866 352.85C380.866 355.678 380.902 358.542 380.866 361.369V362.264C383.496 359.651 387.062 359.759 389.44 361.334C392.142 363.123 393.979 366.166 393.979 369.638C393.979 374.399 390.593 378.372 386.126 379.339C385.333 379.482 384.577 379.553 383.82 379.553C383.244 379.553 382.668 379.518 382.127 379.41C381.479 379.267 380.83 379.088 380.254 378.838H374.094C373.734 378.838 373.482 378.587 373.482 378.229C373.482 378.05 373.554 377.871 373.662 377.764C373.734 377.692 373.842 377.656 373.95 377.549C375.643 376.189 375.715 375.401 375.715 374.721V360.403C375.715 357.432 374.995 355.929 373.77 355.034C373.59 354.926 373.482 354.711 373.482 354.497C373.482 354.282 373.554 354.103 373.734 353.996C373.842 353.888 374.022 353.817 374.202 353.781L379.858 352.098ZM383.604 362.98C382.271 362.98 380.866 364.34 380.866 366.13V374.005C380.866 376.475 383.532 378.086 385.585 377.549C388.215 376.833 389.188 373.504 388.827 369.924C388.539 367.132 386.702 362.98 383.604 362.98Z" fill="black"/>
<path d="M397 376.976C397 378.014 396.135 378.873 395.127 378.873C394.082 378.873 393.254 378.014 393.254 376.976C393.254 375.974 394.082 375.115 395.127 375.115C395.559 375.115 395.955 375.258 396.243 375.509C396.712 375.866 397 376.403 397 376.976Z" fill="black"/>
</g>
<defs>
<clipPath id="clip0_4233_1171">
<rect width="1024" height="512" fill="white"/>
</clipPath>
</defs>
</svg>
