<svg width="210" height="182" viewBox="0 0 210 182" fill="none" xmlns="http://www.w3.org/2000/svg">
<path d="M210 123.952C209.349 125.789 208.862 127.711 207.974 129.427C207.639 130.072 205.796 130.717 205.632 130.516C204.932 129.701 204.433 128.594 204.226 127.523C204.123 126.987 204.774 126.282 205.133 125.679C206.994 122.57 205.492 119.565 202.736 117.411C201.653 116.566 200.235 115.884 201.391 114.57C201.957 113.931 203.885 113.834 204.804 114.284C207.883 115.799 208.996 118.756 209.507 121.956C209.604 122.546 209.519 123.173 209.519 123.775C209.677 123.836 209.836 123.891 210 123.952Z" fill="#1D9BF0"/>
<path d="M197.824 106.435C200.227 104.019 204.82 104.068 206.609 106.368C206.98 106.842 207.096 107.718 206.962 108.321C206.864 108.759 206.08 109.44 205.733 109.367C203.445 108.899 201.188 108.29 198.949 107.633C198.548 107.518 198.286 106.946 197.824 106.429V106.435Z" fill="#1D9BF0"/>
<path d="M105.487 41.9276C105.018 37.5897 106.606 33.1849 108.644 28.9383C108.997 28.2082 110.226 27.8918 111.053 27.3868C111.352 28.3238 112.094 29.3885 111.869 30.1733C110.488 35.0405 108.407 39.7313 109.094 45.0122C109.818 50.5669 113.974 54.2659 119.571 51.6985C124.055 49.6421 126.543 45.9004 128.898 41.9337C129.701 40.583 130.322 39.1107 131.265 37.8817C131.885 37.0726 132.938 36.5919 133.795 35.9653C134.021 37.2612 134.836 38.8673 134.361 39.8043C132.64 43.1626 130.729 46.4906 128.423 49.4718C125.357 53.4385 121.427 56.2189 116.103 56.5353C109.898 56.9003 106.071 50.9258 105.505 46.0891C105.365 44.8905 105.487 43.6615 105.487 41.9215V41.9276Z" fill="#1D9BF0"/>
<path d="M122.471 20.9283C123.652 22.3033 124.905 23.3254 124.747 23.654C124.096 24.9803 123.013 26.0876 122.088 27.274C121.425 26.5013 120.123 25.6191 120.232 24.9742C120.445 23.7452 121.455 22.6501 122.477 20.9283H122.471Z" fill="#1D9BF0"/>
<path d="M132.64 26.6766C130.98 28.2341 129.848 29.2866 128.722 30.3453C128.102 29.6213 126.836 28.441 126.97 28.2524C127.785 27.0964 128.85 26.0621 130.012 25.2408C130.268 25.0583 131.235 25.8857 132.64 26.6827V26.6766Z" fill="#1D9BF0"/>
<path d="M48.7026 151.058C64.1377 130.652 79.0922 110.886 94.0467 91.1187C93.9007 90.8936 93.7607 90.6745 93.6147 90.4494C85.8272 97.0384 76.9263 99.7823 66.8694 98.5411C67.0337 98.821 67.2041 99.107 67.3683 99.3868C65.6101 100.518 63.7849 101.559 62.1239 102.818C61.4486 103.329 60.6151 104.437 60.7611 105.057C61.1566 106.767 62.0387 108.367 62.7445 110.058C60.7307 112.784 59.5626 112.62 57.7921 109.766C57.0255 108.525 56.7152 106.602 53.8253 107.375C50.4305 108.282 46.6706 105.209 45.1922 101.796C44.9549 101.249 44.2187 100.938 43.7989 100.445C42.4848 98.9184 40.7995 97.5373 40.0147 95.7668C38.9013 93.242 37.6358 90.3217 37.9339 87.7481C38.3963 83.757 35.4395 80.0154 37.5689 76.0182C38.518 74.2356 39.6314 72.891 41.6634 72.6294C43.9753 72.3374 46.3055 72.1853 48.7695 71.9662V69.1615C45.7884 69.417 42.9228 69.8003 40.0512 69.8733C37.07 69.9524 31.1077 65.4746 30.4445 62.5908C30.2924 61.9276 31.2355 60.5344 31.9838 60.218C37.8183 57.7419 43.3122 58.3624 48.5749 62.8281C48.7939 59.1898 48.9946 55.8132 49.2015 52.321C46.8227 53.5317 44.4073 54.6573 42.1015 55.9592C39.0777 57.6628 36.0053 57.2673 32.8051 56.6711C29.2825 56.014 27.4695 53.4587 27.1531 50.5201C26.8124 47.3321 27.6094 43.992 30.7609 41.8991C33.6873 39.9522 36.5164 37.8654 39.2968 35.9064C37.1065 34.9208 34.5877 34.0508 32.3367 32.7184C26.569 29.3052 25.912 23.5254 28.5646 18.3054C29.824 15.8292 32.6591 15.2573 35.3239 15.379C40.112 15.5919 44.4195 17.2102 48.4349 20.2401C48.0455 19.291 47.6257 18.348 47.2607 17.3867C44.9914 11.3635 47.9665 4.34259 54.3364 3.06495C60.5177 1.82381 67.0276 7.13514 67.0824 13.5051C67.1067 16.5593 66.6261 19.6256 66.3827 22.5946C69.7958 22.1626 73.5497 21.7915 77.2609 21.1344C78.0275 21.0006 78.7454 19.8994 79.2443 19.0963C85.5047 9.0151 95.2635 3.87412 106.227 1.36752C115.979 -0.859228 125.915 -0.524612 135.467 3.54558C142.859 6.69101 148.486 11.7468 153.688 17.7578C159.541 24.511 162.303 32.5358 163.654 40.8709C164.925 48.6767 163.696 56.6589 160.362 64.0449C158.567 68.0116 157.752 71.6073 159.364 76.1581C160.8 80.2161 160.192 84.9495 157.46 88.8919C157.071 89.4517 156.852 90.127 156.499 90.8631C163.629 95.8764 170.687 100.835 177.738 105.805C184.394 110.49 191.038 115.187 197.694 119.872C199.811 121.362 200.803 122.689 199.3 125.645C196.021 132.107 192.182 138.081 187.059 143.198C182.113 148.138 176.126 149.914 169.513 147.694C165.607 146.38 162.534 143.557 160.825 139.511C159.681 136.797 158.178 134.236 157.016 131.535C156.176 129.582 155.623 127.501 154.771 124.976C153.877 126.71 153.061 128.176 152.35 129.691C148.03 138.89 142.135 146.921 132.911 151.466C127.192 154.283 120.828 154.55 114.909 150.864C108.003 146.568 104.25 140.344 102.357 132.502C100.167 123.425 100.179 114.457 102.278 105.398C102.029 105.294 101.779 105.185 101.536 105.081C86.3747 127.896 71.2134 150.711 55.7236 174.013C66.4679 171.373 76.4883 168.799 86.5694 166.475C91.6678 165.301 96.8697 164.54 102.035 163.676C107.225 162.806 112.426 161.961 117.64 161.255C121.388 160.744 125.172 160.196 128.944 160.16C135.223 160.105 141.514 160.324 147.787 160.641C160.782 161.298 173.65 162.995 186.292 166.116C191.281 167.351 196.203 168.86 201.113 170.393C201.794 170.606 202.214 171.665 202.749 172.334C201.873 172.681 200.906 173.466 200.139 173.301C191.245 171.391 182.453 168.89 173.492 167.442C164.779 166.037 155.903 165.581 147.087 164.887C142.037 164.492 136.945 164.145 131.895 164.334C125.811 164.559 119.715 165.118 113.686 165.982C105.138 167.211 96.6141 168.665 88.1513 170.381C80.1995 171.993 72.345 174.08 64.4419 175.93C60.9801 176.739 57.4818 177.42 54.0322 178.29C53.3021 178.473 52.3956 179.063 52.1157 179.702C50.9537 182.36 49.0251 182.494 46.9748 181.211C44.5472 179.696 42.211 179.793 39.4063 179.848C32.4462 179.975 25.4678 179.142 18.5077 178.515C17.1997 178.4 14.9243 178.059 15.9342 175.875C16.3114 175.066 18.38 174.652 19.6454 174.719C26.1371 175.09 32.6165 175.674 39.2785 175.498C32.6591 170.57 26.0276 165.66 19.4203 160.714C13.8778 156.57 8.42046 152.299 2.79276 148.272C0.438249 146.586 0.38958 144.226 1.30826 142.37C4.75181 135.386 7.4896 127.957 13.5614 122.53C17.3092 119.184 21.4646 116.951 26.4108 116.185C33.1702 115.138 38.5241 119.768 41.414 125.037C45.6606 132.782 47.3763 141.354 48.7087 151.058H48.7026ZM119.636 100.348C119.387 103.895 121.011 105.197 124.607 104.005C125.921 103.567 127.18 102.861 128.519 102.617C129.437 102.447 130.465 102.861 131.445 103.013C131.08 104.059 131.019 105.453 130.289 106.061C129.109 107.053 127.454 107.466 126.073 108.251C125.233 108.726 124.534 109.438 123.767 110.046C124.783 110.673 125.927 111.956 126.791 111.792C128.853 111.397 130.745 110.168 132.796 109.578C133.86 109.273 135.114 109.614 136.282 109.663C135.898 110.837 135.667 112.096 135.071 113.155C134.682 113.848 133.763 114.25 132.637 115.132C135.576 115.753 137.821 115.96 140.084 114.201C144.513 110.764 146.071 106.256 145.657 100.847C145.602 100.123 145.523 99.2226 145.876 98.6689C147.586 95.998 149.508 93.4549 151.23 90.7901C154.327 85.9959 157.211 81.0497 154.716 75.0813C153.554 72.3069 153.688 69.8186 154.735 67.0747C156.176 63.2965 157.448 59.4454 158.549 55.5516C160.679 48.0379 160.995 40.1773 158.063 33.1077C154.132 23.6228 148.328 15.2755 138.971 9.78168C133.015 6.28338 126.833 4.54336 120.111 4.19049C114.173 3.88021 108.478 4.81714 102.692 6.45373C94.5273 8.76565 88.6441 13.8032 83.3023 19.9298C81.4345 22.0714 81.83 23.854 83.5518 25.8313C86.7459 29.4999 85.9854 35.3223 81.7631 37.8654C78.9462 39.5629 75.7703 40.658 72.3572 42.2033C73.1846 43.1585 74.0303 44.205 74.949 45.1723C78.5446 48.9444 78.2161 55.8436 74.3771 59.3845C73.8539 59.8713 73.7565 61.082 73.86 61.9094C73.9512 62.6273 74.6022 63.2722 75.0038 63.9536C77.4556 68.0847 79.4086 72.6476 82.4932 76.2372C86.6668 81.0983 91.8929 84.8096 97.7457 87.809C103.41 90.7171 109.232 92.0313 115.42 92.3659C115.931 92.3902 116.703 91.7818 116.977 91.2647C120.743 84.0977 124.826 81.8832 132.826 83.4102C135.132 83.8544 137.17 85.5822 139.421 86.507C140.194 86.8234 141.733 86.872 142.068 86.4218C144.453 83.1425 147.604 79.9728 144.793 75.3124C144.489 74.8075 145.049 73.4203 145.615 72.8849C145.955 72.5686 147.653 72.9093 147.799 73.2925C148.632 75.5862 150.062 78.1354 149.679 80.3135C148.456 87.2918 143.321 91.4168 137.024 95.5965V90.4494C130.374 85.7039 127.04 85.6735 122.562 90.1939C121.206 91.5689 120.184 93.1872 121.437 94.7386C121.948 95.3714 123.998 94.6839 125.343 94.7447C126.395 94.7934 127.436 95.0672 128.482 95.2375C127.995 96.3813 127.782 98.1883 126.961 98.5351C124.771 99.4477 122.319 99.7336 119.63 100.348H119.636ZM102.595 96.0771C99.3398 92.5302 98.3481 92.6762 95.6468 96.284C91.5948 101.699 87.3543 106.974 83.2719 112.364C74.8334 123.516 66.4496 134.711 58.0233 145.875C55.0421 149.823 52.1036 153.808 48.9581 157.623C48.3558 158.353 46.8409 158.633 45.7884 158.56C45.3503 158.529 44.7176 157.027 44.6872 156.181C44.3343 145.297 42.0954 134.954 36.5529 125.426C34.6608 122.177 32.0325 120.535 28.3212 120.407C23.3019 120.237 19.6759 123.127 16.2019 126.083C11.1522 130.385 8.69424 136.487 5.78608 142.212C4.95866 143.837 5.57923 145.37 7.40443 146.653C13.5006 150.93 19.4021 155.487 25.3887 159.923C33.0424 165.599 40.7022 171.269 48.514 177.061C66.5166 150.109 84.5191 123.145 102.595 96.0771ZM154.71 94.9029C154.102 96.8376 153.579 98.7176 152.915 100.543C150.993 105.824 149.174 111.153 146.996 116.331C145.286 120.401 143.254 124.362 141.088 128.219C138.064 133.597 133.702 137.394 127.442 138.641C122.051 139.718 117.014 135.958 114.586 129.265C112.992 124.867 112.189 120.425 112.572 115.753C112.998 110.624 113.077 105.459 113.783 100.379C114.16 97.659 113.893 96.1136 111.283 95.6512C108.794 95.2132 108.259 97.2939 107.949 99.0096C106.993 104.388 106.16 109.797 105.412 115.211C103.982 125.554 105.862 135.015 112.353 143.538C117.105 149.775 126.438 150.395 131.226 147.694C139.768 142.875 145.219 135.252 149.302 126.558C151.072 122.786 152.575 118.886 154.436 115.169C154.887 114.268 156.298 113.842 157.266 113.198C157.825 114.457 158.61 115.674 158.872 116.994C159.066 117.992 158.361 119.148 158.464 120.188C159.121 126.929 161.536 133.171 165.223 138.714C168.424 143.532 173.875 146.465 180.208 142.711C187.083 138.635 191.239 132.192 194.597 125.195C194.889 124.587 194.226 123.023 193.544 122.524C187.564 118.089 181.498 113.769 175.42 109.462C168.612 104.637 161.768 99.8614 154.704 94.9029H154.71ZM82.2133 82.4429C79.439 78.9628 76.4882 75.8965 74.3163 72.3556C72.1382 68.7965 70.7449 64.7506 68.9015 60.6987C61.3513 62.1041 58.1572 56.3973 54.1417 50.654C54.0444 58.113 52.2131 64.8723 54.0018 72.0636C57.7739 69.4535 61.6311 69.125 64.9712 71.2727C70.2765 74.6797 69.5038 79.9789 67.8855 85.3997C73.3793 86.4827 77.9362 84.8278 82.2133 82.449V82.4429ZM141.417 118.521C134.128 120.243 133.812 120.152 130.399 118.022C129.03 117.17 127.478 116.507 125.915 116.081C120.482 114.603 118.906 112.559 119.861 107.801C118.827 107.345 117.768 106.882 116.156 106.17C116.381 110.484 116.898 114.317 116.697 118.107C116.472 122.396 117.379 126.217 119.399 129.953C121.838 134.479 126.517 135.787 130.897 133.086C136.33 129.734 138.502 124.118 141.417 118.509V118.521ZM51.5073 83.8361C53.2535 83.1121 54.6771 82.6193 56.0034 81.9318C56.7822 81.5303 57.3297 80.5264 58.1146 80.3378C58.9907 80.1249 60.2318 80.2405 60.895 80.7515C61.2661 81.0436 61.0714 82.6132 60.6273 83.2703C60.0432 84.1282 58.7412 84.4993 58.1632 85.3571C57.4879 86.3671 56.5875 87.9732 56.9586 88.8067C58.437 92.1651 60.3656 95.3227 62.2699 98.821C62.7932 98.2126 63.3833 97.8354 63.3651 97.4947C63.219 94.6596 65.1051 94.8117 67.0033 94.8725C68.3174 94.9151 69.6316 94.8725 70.9518 94.8786C77.7781 94.9212 83.6369 92.305 89.2281 88.4539C87.8714 85.7891 86.0462 85.1381 83.5761 86.3366C77.559 89.263 71.3108 90.2486 64.7157 88.7763C62.3125 88.2409 61.6798 86.6774 63.0244 84.6575C63.8883 83.3555 64.7096 81.9562 65.172 80.4838C65.9812 77.9225 63.87 74.5337 61.5885 74.1443C57.0925 73.3838 50.8989 77.7339 51.5073 83.8361ZM55.9182 40.7127C58.9542 40.7066 62.7567 37.1414 62.7567 34.3002C62.7567 31.7571 58.6013 27.2063 56.3867 27.3279C52.8884 27.5226 49.6213 31.2886 49.7247 35.006C49.8282 38.6442 52.0853 40.7249 55.9182 40.7127ZM41.0307 86.3427C41.3957 89.7619 44.0362 90.1452 46.2629 90.5163C48.8669 90.9544 51.4222 90.4433 52.9736 87.7603C49.0798 86.0933 45.2408 84.7183 41.0307 86.3366V86.3427ZM47.9117 78.0867C48.1246 75.0326 46.0682 76.1764 44.8697 76.0121C42.6004 75.6897 40.69 76.4927 40.7447 78.9689C40.8056 81.7189 43.4643 81.8527 45.3564 82.0109C48.6053 82.2786 47.1451 79.2305 47.9117 78.0928V78.0867ZM55.827 93.388C54.9813 93.2176 54.1965 92.8769 53.4481 92.9378C50.6617 93.1629 47.8813 93.5097 45.107 93.8382C44.6628 93.893 44.2309 94.0937 43.7989 94.2276C43.9936 94.8117 44.0362 95.7608 44.4134 95.925C46.2082 96.6977 48.1611 97.9023 49.9316 97.7259C52.0914 97.5129 54.7197 96.9654 55.827 93.388ZM58.5344 99.4355C58.2849 99.3321 58.0416 99.2225 57.7921 99.1191C55.1334 100.086 52.4808 101.054 49.8221 102.015C49.8038 102.271 49.7917 102.526 49.7734 102.776C51.6412 102.934 53.6915 103.621 55.322 103.074C56.6483 102.63 57.4818 100.701 58.5283 99.4294L58.5344 99.4355Z" fill="#1D9BF0"/>
<path d="M49.2514 5.87662C47.1772 7.60511 45.103 12.7906 48.56 20.3959C48.2144 20.0501 42.683 16.5934 40.6088 16.2477C38.5346 15.902 31.2751 13.8278 28.5095 18.3219C25.744 22.816 27.4724 26.9644 29.2009 30.0756C30.9294 33.1869 36.8063 34.9154 39.2262 35.9525C38.5348 36.2982 37.152 38.0267 33.3493 40.1009C29.5466 42.1751 27.1267 45.6321 27.1267 49.089C27.1267 52.546 28.5095 55.3116 33.0036 56.6944C37.4977 58.0772 43.0289 55.6573 46.4858 53.9288C49.9428 52.2003 52.3627 50.1261 53.3998 49.089C53.3998 49.4347 53.7455 49.7804 54.7826 51.5089C55.8197 53.2374 59.9681 59.46 64.1164 60.4971C68.2648 61.5342 73.1046 61.1885 75.5245 58.0772C77.9444 54.9659 77.5987 48.7433 76.2159 46.6692C74.8331 44.595 73.796 43.9036 72.4132 42.1751C73.4503 42.1751 82.0928 38.7181 83.8212 35.9525C85.5497 33.1869 85.8954 31.1127 84.8583 27.6558C83.8212 24.1988 78.6358 21.4332 74.8331 21.4332C71.0304 21.4332 69.9933 22.816 66.1906 22.816C66.5363 19.7047 66.882 16.2477 66.882 11.7536C66.882 7.25956 62.0423 4.14813 58.5853 3.11104C55.1283 2.07394 51.3256 4.14813 49.2514 5.87662Z" fill="#FFBC12" stroke="#FFBC12" stroke-width="0.691396"/>
<path d="M49.5972 33.5329C49.9429 31.4587 51.6713 29.0388 54.4369 28.0017C55.4742 27.5243 56.8567 26.9646 58.5851 28.3474C60.3136 29.7302 59.9679 30.0759 61.6964 32.1501C63.4249 34.2243 62.3878 36.2985 61.6964 37.6813C61.005 39.0641 59.6222 39.7554 57.8938 40.4468C56.1653 41.1382 53.0541 40.4468 51.6713 39.7554C50.2885 39.0641 49.2515 35.6071 49.5972 33.5329Z" fill="white"/>
</svg>
