<svg width="664" height="36" viewBox="0 0 664 36" fill="none" xmlns="http://www.w3.org/2000/svg">
<path d="M452.736 9.6334C453.024 9.6334 453.284 9.6334 453.572 9.6334C456.222 9.74862 458.411 10.7569 459.477 12.2548C460.86 14.2137 460.543 16.8928 458.469 17.901C458.008 18.1315 457.403 18.3619 456.884 18.2179C456.424 18.0451 456.078 17.613 456.078 17.0944C456.078 16.6911 456.28 16.3742 456.28 15.9421C456.481 13.8392 454.753 12.1108 452.707 11.5347C451.152 11.1026 449.308 11.333 448.098 12.1684C445.304 14.0409 445.246 19.1973 447.695 22.7118C450 26.0246 453.485 27.3497 456.395 27.1193C456.625 27.1193 456.856 27.0617 457.057 27.0329V23.1727C457.057 22.6254 457 22.0204 455.646 20.897C455.559 20.8393 455.473 20.7817 455.415 20.7241C455.3 20.6377 455.242 20.4937 455.242 20.3496C455.242 20.0904 455.473 19.8599 455.761 19.8599H460.514C461.033 19.8599 461.177 20.148 461.177 20.7817V29.3374C461.177 29.4815 461.206 29.5967 461.148 29.7119C461.061 29.8848 460.889 30.0288 460.687 30.0288C460.543 30.0288 460.457 29.9712 460.37 29.8848C459.736 29.395 459.045 28.2716 457.201 29.1646C457.173 29.1934 457.144 29.1934 457.115 29.1934C457.086 29.2222 457.086 29.2222 457.057 29.2222C455.703 29.8848 454.177 30.2593 452.563 30.2593C446.831 30.2593 442.222 25.6213 442.222 19.8887C442.222 16.0862 444.267 12.7734 447.32 10.9585C448.962 10.0367 450.605 9.6334 452.736 9.6334Z" fill="#1C1A1B"/>
<path d="M470.418 14.617C471.11 14.617 471.83 14.7034 472.521 14.8763C475.776 15.7981 478.167 18.9093 478.167 22.5966C478.167 27.0041 474.739 30.6049 470.534 30.6049C466.299 30.6049 462.9 27.0041 462.9 22.5966C462.9 18.9669 465.204 15.8845 468.402 14.9051C469.064 14.7322 469.727 14.617 470.418 14.617ZM468.143 16.6911C467.797 16.6911 467.509 16.7487 467.25 16.8928C465.665 17.8146 465.867 21.0986 467.682 24.2386C469.497 27.3785 472.262 29.1934 473.818 28.3004C475.373 27.3785 475.172 24.0945 473.357 20.9546C471.888 18.4195 469.756 16.6623 468.143 16.6911Z" fill="#1C1A1B"/>
<path d="M487.13 14.617C487.821 14.617 488.541 14.7034 489.233 14.8763C492.488 15.7981 494.879 18.9093 494.879 22.5966C494.879 27.0041 491.451 30.6049 487.245 30.6049C483.01 30.6049 479.611 27.0041 479.611 22.5966C479.611 18.9669 481.916 15.8845 485.113 14.9051C485.776 14.7322 486.438 14.617 487.13 14.617ZM484.854 16.6911C484.508 16.6911 484.22 16.7487 483.961 16.8928C482.377 17.8146 482.578 21.0986 484.393 24.2386C486.208 27.3785 488.974 29.1934 490.529 28.3004C492.085 27.3785 491.883 24.0945 490.068 20.9546C488.599 18.4195 486.467 16.6623 484.854 16.6911Z" fill="#1C1A1B"/>
<path d="M510.121 8.48111C510.179 8.45231 510.236 8.4235 510.294 8.4235C510.352 8.39469 510.409 8.39469 510.467 8.4235C510.669 8.45231 510.841 8.59634 510.87 8.79799C510.899 8.88441 510.899 8.99964 510.899 9.08606C510.899 15.222 510.899 20.0616 510.899 26.6872C510.899 27.2345 510.957 27.8683 512.311 28.9629C512.397 29.0494 512.483 29.0782 512.541 29.1358C512.656 29.2222 512.714 29.3662 512.714 29.5103C512.714 29.7983 512.483 30 512.195 30H507.442C506.924 30 506.78 29.7119 506.78 29.107V28.5308C506.722 28.5884 506.636 28.6749 506.578 28.7325C504.504 30.6337 501.767 30.5185 499.924 29.2798C497.763 27.8395 496.323 25.3909 496.323 22.5966C496.323 18.7652 499.002 15.5676 502.574 14.7899C503.208 14.6746 503.812 14.617 504.417 14.617C504.878 14.617 505.339 14.6458 505.771 14.7322C506.117 14.7899 506.434 14.8763 506.78 14.9915C506.751 12.7158 506.146 11.5635 505.195 10.8433C505.051 10.7569 504.965 10.584 504.965 10.4112C504.965 10.2383 505.051 10.0943 505.166 10.0079C505.282 9.92147 505.426 9.89266 505.541 9.83504L510.121 8.48111ZM503.64 16.1438C503.438 16.1438 503.208 16.1726 503.006 16.2302C500.903 16.8064 500.125 19.4854 500.413 22.3661C500.644 24.6131 502.113 27.9547 504.619 27.9547C505.455 27.9547 506.319 27.2633 506.636 26.2551C506.808 25.7077 506.78 25.0452 506.78 24.4114V22.5102C506.78 21.5307 506.78 20.5513 506.78 19.5718C506.78 19.0533 506.78 18.6788 506.607 18.1603C506.146 16.9216 504.85 16.1438 503.64 16.1438Z" fill="#1C1A1B"/>
<path d="M518.11 9.83504H524.851C525.139 9.83504 525.341 10.0655 525.341 10.3536C525.341 10.4976 525.283 10.6416 525.197 10.7281C525.111 10.7857 525.053 10.8145 524.967 10.9009C523.613 11.9956 523.526 12.6293 523.526 13.1767V19.2261H531.16V13.1767C531.16 12.6293 531.102 11.9956 529.749 10.9009C529.662 10.8145 529.576 10.7857 529.518 10.7281C529.403 10.6416 529.345 10.4976 529.345 10.3536C529.345 10.0655 529.576 9.83504 529.864 9.83504H536.605C536.864 9.83504 537.094 10.0655 537.094 10.3536C537.094 10.4976 537.037 10.6416 536.95 10.7281C536.864 10.7857 536.806 10.8145 536.72 10.9009C535.366 11.9956 535.279 12.6293 535.279 13.1767V26.6872C535.279 27.2345 535.366 27.8683 536.72 28.9629C536.806 29.0494 536.864 29.0782 536.95 29.1358C537.037 29.2222 537.094 29.3662 537.094 29.5103C537.094 29.7983 536.864 30 536.605 30H529.864C529.576 30 529.345 29.7983 529.345 29.5103C529.345 29.3662 529.403 29.2222 529.518 29.1358C529.576 29.0782 529.662 29.0494 529.749 28.9629C531.102 27.8683 531.16 27.2345 531.16 26.6872V20.6377H523.526V26.6872C523.526 27.2345 523.613 27.8683 524.967 28.9629C525.053 29.0494 525.111 29.0782 525.197 29.1358C525.283 29.2222 525.341 29.3662 525.341 29.5103C525.341 29.7983 525.139 30 524.851 30H518.11C517.822 30 517.621 29.7983 517.621 29.5103C517.621 29.3662 517.678 29.2222 517.765 29.1358C517.822 29.0782 517.909 29.0494 517.995 28.9629C519.349 27.8683 519.407 27.2345 519.407 26.6872V13.1767C519.407 12.6293 519.349 11.9956 517.995 10.9009C517.909 10.8145 517.822 10.7857 517.765 10.7281C517.678 10.6416 517.621 10.4976 517.621 10.3536C517.621 10.0655 517.822 9.83504 518.11 9.83504Z" fill="#1C1A1B"/>
<path d="M541.173 15.0203C541.98 14.9051 542.757 14.9339 543.622 15.1067C545.782 15.6253 547.626 17.3249 548.519 20.5801C548.692 21.2715 548.836 22.1645 548.98 22.9711L549.441 25.3332C549.556 25.967 549.671 26.4279 549.758 27.0041C550.074 28.2428 550.391 28.5884 551.025 29.0782C551.169 29.1646 551.255 29.3374 551.255 29.5103C551.255 29.7983 551.025 30 550.766 30H548.202C546.906 30 546.243 29.2222 545.955 28.7613C545.897 28.6461 545.84 28.5596 545.782 28.4156C544.63 29.5391 543.132 30.4897 541.317 30.4897C539.329 30.4897 537.543 29.5967 537.37 27.3497C537.198 25.4485 538.552 24.0369 539.934 22.7406C541.231 21.5019 542.757 20.3496 543.593 18.9381C543.218 18.2179 542.757 17.757 542.239 17.4689C541.087 16.8352 539.473 17.008 538.408 18.0739C538.263 18.2755 538.004 18.3619 537.774 18.2755C537.572 18.1891 537.457 17.9586 537.486 17.757C537.486 17.5841 537.601 17.4689 537.659 17.2961C538.379 15.9998 539.733 15.2508 541.173 15.0203ZM544.198 20.4072C543.334 21.7036 542.124 23.0287 541.605 23.9217C540.914 25.1316 540.943 26.0246 541.403 26.716C542.383 28.1563 544.284 27.9835 545.494 26.716L545.321 25.7365L544.889 23.4032C544.687 22.2221 544.457 21.2138 544.198 20.4072Z" fill="#1C1A1B"/>
<path d="M556.368 8.48111C556.483 8.45231 556.627 8.39469 556.8 8.4235C557.001 8.45231 557.145 8.62515 557.174 8.8268C557.203 8.91322 557.174 8.99964 557.174 9.08606C557.174 11.3618 557.203 13.6664 557.174 15.9421V16.6623C559.277 14.5594 562.129 14.6458 564.03 15.9133C566.191 17.3537 567.66 19.8023 567.66 22.5966C567.66 26.4279 564.952 29.6255 561.38 30.4033C560.746 30.5185 560.141 30.5761 559.536 30.5761C559.075 30.5761 558.615 30.5473 558.182 30.4609C557.664 30.3457 557.145 30.2016 556.685 30H551.758C551.47 30 551.269 29.7983 551.269 29.5103C551.269 29.3662 551.326 29.2222 551.413 29.1358C551.47 29.0782 551.557 29.0494 551.643 28.9629C552.997 27.8683 553.055 27.2345 553.055 26.6872V15.1644C553.055 12.7734 552.479 11.5635 551.499 10.8433C551.355 10.7569 551.269 10.584 551.269 10.4112C551.269 10.2383 551.326 10.0943 551.47 10.0079C551.557 9.92147 551.701 9.86385 551.845 9.83504L556.368 8.48111ZM559.364 17.2385C558.298 17.2385 557.174 18.3331 557.174 19.7735V26.111C557.174 28.0987 559.306 29.395 560.948 28.9629C563.051 28.3868 563.829 25.7077 563.541 22.827C563.31 20.5801 561.841 17.2385 559.364 17.2385Z" fill="#1C1A1B"/>
<path d="M571.38 9.43175C571.841 9.43175 572.273 9.57578 572.734 9.80624C573.425 10.2671 573.886 11.0161 573.886 11.9092C573.886 13.2919 572.763 14.4154 571.38 14.4154C570.026 14.4154 568.903 13.2919 568.903 11.9092C568.903 10.9297 569.479 10.0655 570.314 9.6622C570.66 9.48936 571.034 9.40294 571.38 9.43175ZM573.397 15.222C573.425 15.222 573.425 15.222 573.454 15.222C573.656 15.2796 573.829 15.4236 573.858 15.6253C573.886 15.6829 573.858 15.7693 573.858 15.8269V26.6872C573.858 27.2345 573.944 27.8683 575.298 28.9629C575.384 29.0494 575.442 29.0782 575.528 29.1358C575.615 29.2222 575.672 29.3662 575.672 29.5103C575.672 29.7983 575.471 30 575.183 30H568.442C568.154 30 567.952 29.7983 567.952 29.5103C567.952 29.3662 568.01 29.2222 568.096 29.1358C568.154 29.0782 568.24 29.0494 568.327 28.9629C569.681 27.8683 569.738 27.2345 569.738 26.6872V21.9628C569.738 19.5718 569.162 18.3907 568.183 17.6706C568.039 17.5841 567.952 17.4113 567.952 17.2385C567.952 17.0656 568.01 16.8928 568.154 16.8064C568.24 16.7487 568.413 16.7199 568.528 16.6335L573.166 15.2508C573.224 15.2508 573.31 15.222 573.397 15.222Z" fill="#1C1A1B"/>
<path d="M579.549 12.831C579.693 12.7158 579.837 12.6581 580.068 12.6869C580.241 12.7446 580.356 12.8886 580.413 13.0614C580.442 13.1479 580.413 13.2343 580.413 13.3207C580.413 14.3289 580.413 15.3084 580.413 16.2878H582.171C582.315 16.2878 582.43 16.2878 582.545 16.3166C582.862 16.3742 583.092 16.6623 583.092 16.9792C583.092 17.2961 582.891 17.5553 582.603 17.6706C582.487 17.6994 582.372 17.6994 582.228 17.6994H580.413V25.3044C580.413 28.5884 582.344 28.4156 583.467 27.7818C583.553 27.7242 583.64 27.6954 583.726 27.6954C584.014 27.6954 584.245 27.9259 584.245 28.214C584.245 28.3292 584.187 28.4732 584.101 28.5596C583.092 29.8271 581.479 30.2881 579.953 30.2881C578.31 30.2881 576.294 29.1934 576.294 26.111V21.8476C576.294 18.9093 576.352 18.5924 576.092 18.1315C575.775 17.613 575.257 17.7858 574.911 17.6418C574.825 17.5841 574.738 17.5265 574.681 17.4401C574.566 17.3249 574.508 17.152 574.508 16.9792C574.508 16.8064 574.566 16.6335 574.681 16.5183C574.738 16.4319 574.825 16.3742 574.911 16.3166L579.549 12.831Z" fill="#1C1A1B"/>
<path d="M589.852 14.8187C591.696 14.8187 593.799 15.1355 595.182 16.5759C596.363 17.8146 595.931 19.8887 594.461 20.6377C594.116 20.7817 593.712 20.9546 593.338 20.8393C592.992 20.7241 592.762 20.4072 592.762 20.0327C592.762 19.7447 592.906 19.5142 592.877 19.1973C593.05 17.4401 591.581 16.2302 589.766 16.2302C588.441 16.2302 587.519 17.5265 588.297 18.6212C588.729 19.1973 589.449 19.7447 590.457 20.3208C592.358 21.4155 595.614 23.3744 595.758 25.823C595.931 28.4444 594.202 30.3457 590.227 30.3457C588.383 30.3457 586.28 30.0288 584.897 28.5884C583.716 27.3209 584.148 25.2756 585.618 24.5266C585.935 24.3826 586.367 24.2098 586.741 24.325C587.087 24.4402 587.317 24.7571 587.317 25.1316C587.317 25.3909 587.173 25.6501 587.173 25.9382C587.029 27.6954 588.498 28.9341 590.198 28.9341C590.774 28.9341 592.099 28.6749 592.099 27.465C592.099 26.2263 590.976 25.5349 589.074 24.2962C586.943 22.9135 584.581 21.5019 584.581 18.7364C584.581 16.115 587.375 14.8187 589.852 14.8187Z" fill="#1C1A1B"/>
<path d="M607.255 10.5264C610.885 8.88441 615.984 8.94203 618.576 12.2548C620.046 14.1273 619.642 16.8928 617.568 17.901C617.107 18.1315 616.502 18.3619 615.984 18.2179C615.523 18.0451 615.177 17.613 615.177 17.0944C615.177 16.6911 615.379 16.3742 615.379 15.9421C615.552 14.1561 614.428 12.6293 612.844 11.9092C611.087 11.1314 609.099 11.1314 607.428 12.1972C604.807 13.8392 603.856 18.7076 606.794 22.7118C611.288 28.8189 619.441 26.1975 620.881 21.4443C620.91 21.3579 620.939 21.2426 620.967 21.1562C621.025 20.9546 621.227 20.8105 621.428 20.8105C621.659 20.8105 621.86 20.9546 621.918 21.1562C621.947 21.3003 621.947 21.4155 621.918 21.5595C621.659 23.2015 621.112 24.325 620.19 25.7942C618.317 28.4732 615.206 30.2593 611.663 30.2593C605.93 30.2593 601.321 25.6213 601.321 19.8887C601.321 15.7405 603.712 12.1396 607.255 10.5264Z" fill="#1C1A1B"/>
<path d="M626.393 8.50992C626.451 8.48111 626.537 8.45231 626.595 8.45231C626.681 8.4235 626.797 8.39469 626.883 8.4235C627.056 8.45231 627.2 8.59634 627.258 8.76918C627.286 8.85561 627.286 8.94203 627.258 9.02845C627.286 13.2631 627.286 17.5265 627.286 21.7612V26.6872C627.286 27.2345 627.344 27.8683 628.698 28.9629C628.784 29.0494 628.871 29.0782 628.928 29.1358C629.015 29.2222 629.101 29.3662 629.101 29.5103C629.072 29.7983 628.871 30 628.583 30H621.842C621.554 30 621.352 29.7983 621.352 29.5103C621.352 29.3662 621.41 29.2222 621.496 29.1358C621.583 29.0782 621.64 29.0494 621.727 28.9629C623.081 27.8683 623.167 27.2345 623.167 26.6872V15.1644C623.167 12.7734 622.562 11.5923 621.583 10.8433C621.438 10.7569 621.352 10.584 621.352 10.4112C621.352 10.2383 621.41 10.0943 621.554 10.0079C621.64 9.92147 621.813 9.89266 621.928 9.83504L626.393 8.50992Z" fill="#1C1A1B"/>
<path d="M633.179 15.222C633.294 15.222 633.381 15.222 633.496 15.2508C633.669 15.2796 633.813 15.4236 633.841 15.5965C633.87 15.6541 633.87 15.7693 633.87 15.8557C633.87 18.1603 633.87 20.4649 633.87 22.7694V24.9011C633.87 28.8189 639.171 29.1358 639.344 25.1028C639.344 22.9135 639.315 20.7241 639.315 18.5348C639.315 18.0163 639.257 17.3825 637.903 16.259C637.817 16.2014 637.73 16.1726 637.673 16.0862C637.558 15.9998 637.5 15.8557 637.5 15.7117C637.5 15.4524 637.73 15.222 638.019 15.222H642.743C642.858 15.222 642.973 15.222 643.089 15.2508C643.261 15.3084 643.405 15.4524 643.434 15.6541C643.434 15.7117 643.434 15.7693 643.434 15.8269C643.434 19.4566 643.434 23.0287 643.463 26.6872C643.463 27.2345 643.521 27.8683 644.875 28.9629C644.961 29.0494 645.047 29.0782 645.105 29.1358C645.192 29.2222 645.278 29.3662 645.278 29.5103C645.278 29.7983 645.047 30.0288 644.759 30.0288H639.891C639.632 30.0288 639.344 29.7983 639.344 29.5103V28.0987C638.71 29.0494 637.01 30.0288 635.224 30.0288C632.027 30.0288 629.751 28.3292 629.751 24.9011C629.751 22.7982 629.751 20.6665 629.751 18.5348C629.751 18.0163 629.693 17.3825 628.311 16.259C628.253 16.2014 628.167 16.1726 628.08 16.0862C627.994 15.9998 627.936 15.8557 627.936 15.7117C627.936 15.4524 628.167 15.222 628.426 15.222H633.179Z" fill="#1C1A1B"/>
<path d="M650.084 8.48111C650.199 8.45231 650.343 8.39469 650.516 8.4235C650.718 8.45231 650.862 8.62515 650.891 8.8268C650.919 8.91322 650.891 8.99964 650.891 9.08606C650.891 11.3618 650.919 13.6664 650.891 15.9421V16.6623C652.993 14.5594 655.845 14.6458 657.747 15.9133C659.907 17.3537 661.376 19.8023 661.376 22.5966C661.376 26.4279 658.668 29.6255 655.096 30.4033C654.463 30.5185 653.858 30.5761 653.253 30.5761C652.792 30.5761 652.331 30.5473 651.899 30.4609C651.38 30.3457 650.862 30.2016 650.401 30H645.475C645.187 30 644.985 29.7983 644.985 29.5103C644.985 29.3662 645.043 29.2222 645.129 29.1358C645.187 29.0782 645.273 29.0494 645.36 28.9629C646.714 27.8683 646.771 27.2345 646.771 26.6872V15.1644C646.771 12.7734 646.195 11.5635 645.216 10.8433C645.072 10.7569 644.985 10.584 644.985 10.4112C644.985 10.2383 645.043 10.0943 645.187 10.0079C645.273 9.92147 645.417 9.86385 645.561 9.83504L650.084 8.48111ZM653.08 17.2385C652.014 17.2385 650.891 18.3331 650.891 19.7735V26.111C650.891 28.0987 653.022 29.395 654.664 28.9629C656.767 28.3868 657.545 25.7077 657.257 22.827C657.026 20.5801 655.557 17.2385 653.08 17.2385Z" fill="#1C1A1B"/>
<path d="M663.792 28.502C663.792 29.3374 663.101 30.0288 662.294 30.0288C661.459 30.0288 660.796 29.3374 660.796 28.502C660.796 27.6954 661.459 27.0041 662.294 27.0041C662.64 27.0041 662.957 27.1193 663.187 27.3209C663.562 27.609 663.792 28.0411 663.792 28.502Z" fill="#1C1A1B"/>
<path d="M419.98 22.66C421.68 22.96 422.76 24.2 422.76 26.1C422.76 27.92 421.66 30 418.06 30H412.7V15.8H417.64C421.38 15.8 422.36 17.9 422.36 19.58C422.36 20.92 421.6 22.2 419.98 22.66ZM417.64 17.4H414.6V21.96H417.64C420.08 21.96 420.48 20.7 420.48 19.72C420.48 18.6 419.94 17.4 417.64 17.4ZM414.6 28.4H417.96C420.18 28.4 420.88 27.2 420.88 25.92C420.88 24.6 420.1 23.56 418.16 23.56H414.6V28.4Z" fill="#030000"/>
<path d="M424.792 34C424.492 34 424.192 33.98 423.872 33.92V32.42C424.132 32.46 424.372 32.46 424.592 32.46C425.792 32.46 426.412 31.92 426.872 30.62L427.132 29.88L423.152 20H425.052L427.612 26.96C427.792 27.46 427.892 27.86 427.952 28.14H427.992C428.052 27.86 428.172 27.46 428.332 26.96L430.652 20H432.492L428.592 30.64C427.672 33.16 426.472 34 424.792 34Z" fill="#030000"/>
<path d="M15.5456 35.7991C6.37973 35.7991 0.833191 28.6544 0.833191 18.3604C0.833191 8.01934 6.70877 0.827637 16.7678 0.827637C25.7456 0.827637 29.553 6.42119 30.3051 10.9806L24.2885 12.0147C23.7714 9.05344 21.7502 5.62211 16.6737 5.62211C10.5631 5.62211 7.0378 10.6986 7.0378 18.3134C7.0378 25.6461 10.2341 30.9106 16.7207 30.9106C23.4894 30.9106 25.2286 25.364 25.2286 22.3087V21.6977H16.1567V17.0442H30.7281V35H26.3567L25.8866 29.8765C24.3355 33.4488 20.5281 35.7991 15.5456 35.7991Z" fill="black"/>
<path d="M55.7456 22.0737V24.659H39.247C39.294 28.6074 41.7852 31.1456 45.4986 31.1456C48.1308 31.1456 50.152 29.7825 51.1861 27.2442L55.5576 29.2184C53.7714 33.3078 50.105 35.564 45.2636 35.564C38.0719 35.564 33.7474 31.1926 33.7474 23.4839C33.7474 15.7281 38.0248 10.9336 45.0285 10.9336C51.8442 10.9336 55.7456 14.882 55.7456 22.0737ZM50.152 20.9456V20.5696C50.199 16.7152 48.2719 14.694 44.8875 14.694C41.3622 14.694 39.341 17.0442 39.247 20.9456H50.152Z" fill="black"/>
<path d="M64.5777 35H58.9371V11.4977H64.3427V16.0571C65.8938 12.6258 68.4791 10.9336 72.1454 10.9336C77.2689 10.9336 79.9012 14.1299 79.9012 20.4286V35H74.2606V20.9926C74.2606 17.2793 72.8035 15.4461 69.8422 15.4461C66.5519 15.4461 64.5777 18.0783 64.5777 22.5438V35Z" fill="black"/>
<path d="M104.636 22.0737V24.659H88.1373C88.1843 28.6074 90.6755 31.1456 94.3889 31.1456C97.0211 31.1456 99.0423 29.7825 100.076 27.2442L104.448 29.2184C102.662 33.3078 98.9953 35.564 94.1539 35.564C86.9622 35.564 82.6377 31.1926 82.6377 23.4839C82.6377 15.7281 86.9152 10.9336 93.9188 10.9336C100.735 10.9336 104.636 14.882 104.636 22.0737ZM99.0423 20.9456V20.5696C99.0893 16.7152 97.1622 14.694 93.7778 14.694C90.2525 14.694 88.2313 17.0442 88.1373 20.9456H99.0423Z" fill="black"/>
<path d="M113.092 11.4977V17.1852C114.267 13.4719 116.805 10.9336 120.566 10.9336C120.801 10.9336 121.036 10.9336 121.271 10.9806V16.3862C120.989 16.3862 120.754 16.3392 120.519 16.3392C118.262 16.3392 116.664 16.9972 115.63 18.0313C113.703 19.8645 113.468 22.5438 113.468 25.129V35H107.827V11.4977H113.092Z" fill="black"/>
<path d="M129.51 35.564C124.668 35.564 121.472 32.7908 121.472 28.6074C121.472 26.3511 122.459 24.471 124.339 23.2958C126.031 22.3087 128.288 21.6977 132.001 21.1806L136.984 20.5696V19.9585C136.984 16.4332 135.62 14.929 132.612 14.929C129.839 14.929 128.194 16.3862 128.006 19.0654H122.224C122.6 14.0359 126.548 10.9336 132.612 10.9336C139.569 10.9336 142.671 13.8949 142.671 20.7106V27.7143C142.671 30.9106 142.906 33.3548 143.376 35H137.736C137.548 33.8249 137.407 32.4147 137.36 30.9576C136.231 33.8249 133.27 35.564 129.51 35.564ZM131.296 31.5687C134.774 31.5687 137.125 29.0774 137.125 25.364V23.8599L131.813 24.659C128.711 25.176 127.301 26.3041 127.301 28.3253C127.301 30.2995 128.805 31.5687 131.296 31.5687Z" fill="black"/>
<path d="M147.032 0.921648H152.673V35H147.032V0.921648Z" fill="black"/>
<path d="M188.759 1.62672H194.87V35H188.759V20.4286H173.812V35H167.748V1.62672H173.812V15.5871H188.759V1.62672Z" fill="black"/>
<path d="M206.359 35.564C201.517 35.564 198.321 32.7908 198.321 28.6074C198.321 26.3511 199.308 24.471 201.188 23.2958C202.88 22.3087 205.137 21.6977 208.85 21.1806L213.832 20.5696V19.9585C213.832 16.4332 212.469 14.929 209.461 14.929C206.688 14.929 205.043 16.3862 204.854 19.0654H199.073C199.449 14.0359 203.397 10.9336 209.461 10.9336C216.418 10.9336 219.52 13.8949 219.52 20.7106V27.7143C219.52 30.9106 219.755 33.3548 220.225 35H214.584C214.396 33.8249 214.255 32.4147 214.208 30.9576C213.08 33.8249 210.119 35.564 206.359 35.564ZM208.145 31.5687C211.623 31.5687 213.973 29.0774 213.973 25.364V23.8599L208.662 24.659C205.56 25.176 204.149 26.3041 204.149 28.3253C204.149 30.2995 205.654 31.5687 208.145 31.5687Z" fill="black"/>
<path d="M236.525 35.564C233.094 35.564 230.462 33.8249 229.24 31.1926L228.629 35H223.881V0.921648H229.522V15.164C230.744 12.7198 233.329 10.9336 236.76 10.9336C242.542 10.9336 246.208 15.9631 246.208 23.2488C246.208 30.6286 242.448 35.564 236.525 35.564ZM234.786 31.2396C238.311 31.2396 240.333 28.2313 240.333 23.2488C240.333 18.3604 238.358 15.2581 234.786 15.2581C231.402 15.2581 229.428 18.0313 229.428 22.4968V24.0949C229.428 28.4663 231.355 31.2396 234.786 31.2396Z" fill="black"/>
<path d="M255.143 7.5963H249.032V1.72073H255.143V7.5963ZM254.908 35H249.267V11.4977H254.908V35Z" fill="black"/>
<path d="M261.882 15.5871H257.651V11.4977H261.882V5.5751L267.522 3.31888V11.4977H273.257V15.5871H267.522V26.8212C267.522 29.3124 268.603 30.5346 270.954 30.5346C271.894 30.5346 272.505 30.3935 273.257 30.2525V35C271.894 35.282 270.86 35.423 269.402 35.423C263.762 35.423 261.882 32.4617 261.882 27.7143V15.5871Z" fill="black"/>
<path d="M297.699 35.7991C289.802 35.7991 285.102 31.8977 283.739 26.4452L288.909 24.1889C289.991 27.9493 292.717 30.9576 297.934 30.9576C301.366 30.9576 304.562 29.5945 304.562 26.1161C304.562 22.8728 302.588 21.7447 298.921 20.9926L294.268 20.0055C289.003 18.9244 285.478 16.1041 285.478 10.4166C285.478 4.63501 290.225 0.827637 297.746 0.827637C304.045 0.827637 309.074 3.41289 310.531 8.95944L305.737 11.4977C304.656 7.64331 301.883 5.43409 297.464 5.43409C293.798 5.43409 291.354 7.12626 291.354 9.94653C291.354 12.6728 292.905 14.0829 296.524 14.882L301.413 15.9161C306.912 17.0912 310.579 19.6295 310.579 25.5521C310.579 31.2866 306.254 35.7991 297.699 35.7991Z" fill="black"/>
<path d="M314.767 15.5871H310.537V11.4977H314.767V5.5751L320.408 3.31888V11.4977H326.143V15.5871H320.408V26.8212C320.408 29.3124 321.489 30.5346 323.839 30.5346C324.779 30.5346 325.39 30.3935 326.143 30.2525V35C324.779 35.282 323.745 35.423 322.288 35.423C316.648 35.423 314.767 32.4617 314.767 27.7143V15.5871Z" fill="black"/>
<path d="M338.703 35.564C331.934 35.564 327.187 31.0986 327.187 23.2018C327.187 15.3521 331.934 10.9336 338.703 10.9336C345.471 10.9336 350.266 15.3521 350.266 23.2018C350.266 31.0986 345.471 35.564 338.703 35.564ZM338.703 31.2866C342.322 31.2866 344.484 28.5604 344.484 23.2018C344.484 17.8433 342.322 15.211 338.703 15.211C335.083 15.211 332.968 17.8433 332.968 23.2018C332.968 28.5604 335.083 31.2866 338.703 31.2866Z" fill="black"/>
<path d="M358.742 11.4977V17.1852C359.918 13.4719 362.456 10.9336 366.216 10.9336C366.451 10.9336 366.686 10.9336 366.921 10.9806V16.3862C366.639 16.3862 366.404 16.3392 366.169 16.3392C363.913 16.3392 362.315 16.9972 361.281 18.0313C359.353 19.8645 359.118 22.5438 359.118 25.129V35H353.478V11.4977H358.742Z" fill="black"/>
<path d="M389.308 22.0737V24.659H372.809C372.856 28.6074 375.347 31.1456 379.061 31.1456C381.693 31.1456 383.714 29.7825 384.748 27.2442L389.12 29.2184C387.333 33.3078 383.667 35.564 378.826 35.564C371.634 35.564 367.309 31.1926 367.309 23.4839C367.309 15.7281 371.587 10.9336 378.59 10.9336C385.406 10.9336 389.308 14.882 389.308 22.0737ZM383.714 20.9456V20.5696C383.761 16.7152 381.834 14.694 378.449 14.694C374.924 14.694 372.903 17.0442 372.809 20.9456H383.714Z" fill="black"/>
</svg>
