<svg width="244" height="284" viewBox="0 0 244 284" fill="none" xmlns="http://www.w3.org/2000/svg">
<path d="M9.21144 21.8956C3.47269 21.8956 0 17.4223 0 10.9772C0 4.50272 3.67869 0 9.97661 0C15.5977 0 17.9814 3.50212 18.4523 6.35678L14.6853 7.00423C14.3616 5.15017 13.0961 3.00181 9.91775 3.00181C6.09191 3.00181 3.8847 6.1802 3.8847 10.9478C3.8847 15.5388 5.88591 18.8349 9.94718 18.8349C14.185 18.8349 15.2739 15.3622 15.2739 13.4493V13.0667H9.59403V10.1532H18.7172V21.3953H15.9802L15.6859 18.1875C14.7148 20.4241 12.331 21.8956 9.21144 21.8956Z" fill="black"/>
<path d="M34.3806 13.3022V14.9208H24.0508C24.0803 17.3929 25.64 18.9821 27.965 18.9821C29.613 18.9821 30.8785 18.1286 31.5259 16.5394L34.2629 17.7754C33.1446 20.3358 30.8491 21.7484 27.8178 21.7484C23.3151 21.7484 20.6076 19.0115 20.6076 14.185C20.6076 9.32917 23.2857 6.32735 27.6707 6.32735C31.9379 6.32735 34.3806 8.79943 34.3806 13.3022ZM30.8785 12.5958V12.3604C30.9079 9.94719 29.7013 8.68172 27.5824 8.68172C25.3752 8.68172 24.1097 10.1532 24.0508 12.5958H30.8785Z" fill="black"/>
<path d="M39.9104 21.3953H36.3788V6.68051H39.7632V9.53517C40.7344 7.38682 42.353 6.32735 44.6485 6.32735C47.8563 6.32735 49.5044 8.32856 49.5044 12.2721V21.3953H45.9728V12.6253C45.9728 10.3003 45.0605 9.15259 43.2065 9.15259C41.1464 9.15259 39.9104 10.8006 39.9104 13.5964V21.3953Z" fill="black"/>
<path d="M64.9908 13.3022V14.9208H54.661C54.6904 17.3929 56.2502 18.9821 58.5751 18.9821C60.2232 18.9821 61.4886 18.1286 62.1361 16.5394L64.873 17.7754C63.7547 20.3358 61.4592 21.7484 58.428 21.7484C53.9253 21.7484 51.2177 19.0115 51.2177 14.185C51.2177 9.32917 53.8958 6.32735 58.2808 6.32735C62.5481 6.32735 64.9908 8.79943 64.9908 13.3022ZM61.4886 12.5958V12.3604C61.5181 9.94719 60.3115 8.68172 58.1925 8.68172C55.9853 8.68172 54.7199 10.1532 54.661 12.5958H61.4886Z" fill="black"/>
<path d="M70.2851 6.68051V10.2415C71.0208 7.91655 72.61 6.32735 74.9644 6.32735C75.1115 6.32735 75.2587 6.32735 75.4058 6.35678V9.74118C75.2292 9.74118 75.0821 9.71175 74.935 9.71175C73.5223 9.71175 72.5217 10.1238 71.8743 10.7712C70.6677 11.919 70.5205 13.5964 70.5205 15.2151V21.3953H66.989V6.68051H70.2851Z" fill="black"/>
<path d="M80.5643 21.7484C77.533 21.7484 75.5318 20.0121 75.5318 17.3929C75.5318 15.9802 76.1498 14.8031 77.327 14.0673C78.3865 13.4493 79.7991 13.0667 82.124 12.743L85.2436 12.3604V11.9778C85.2436 9.77061 84.3901 8.82886 82.5066 8.82886C80.7703 8.82886 79.7402 9.74118 79.6225 11.4187H76.0027C76.2381 8.2697 78.7102 6.32735 82.5066 6.32735C86.8622 6.32735 88.8045 8.18141 88.8045 12.4487V16.8337C88.8045 18.8349 88.9517 20.3652 89.246 21.3953H85.7144C85.5967 20.6595 85.5084 19.7767 85.479 18.8643C84.7727 20.6595 82.9186 21.7484 80.5643 21.7484ZM81.6826 19.2469C83.8604 19.2469 85.3319 17.6872 85.3319 15.3622V14.4205L82.0063 14.9208C80.064 15.2445 79.1811 15.9508 79.1811 17.2163C79.1811 18.4523 80.1228 19.2469 81.6826 19.2469Z" fill="black"/>
<path d="M91.535 0.0588601H95.0666V21.3953H91.535V0.0588601Z" fill="black"/>
<path d="M117.66 0.500303H121.486V21.3953H117.66V12.2721H108.302V21.3953H104.505V0.500303H108.302V9.24088H117.66V0.500303Z" fill="black"/>
<path d="M128.679 21.7484C125.648 21.7484 123.647 20.0121 123.647 17.3929C123.647 15.9802 124.265 14.8031 125.442 14.0673C126.501 13.4493 127.914 13.0667 130.239 12.743L133.359 12.3604V11.9778C133.359 9.77061 132.505 8.82886 130.622 8.82886C128.885 8.82886 127.855 9.74118 127.738 11.4187H124.118C124.353 8.2697 126.825 6.32735 130.622 6.32735C134.977 6.32735 136.92 8.18141 136.92 12.4487V16.8337C136.92 18.8349 137.067 20.3652 137.361 21.3953H133.829C133.712 20.6595 133.623 19.7767 133.594 18.8643C132.888 20.6595 131.034 21.7484 128.679 21.7484ZM129.798 19.2469C131.975 19.2469 133.447 17.6872 133.447 15.3622V14.4205L130.121 14.9208C128.179 15.2445 127.296 15.9508 127.296 17.2163C127.296 18.4523 128.238 19.2469 129.798 19.2469Z" fill="black"/>
<path d="M147.567 21.7484C145.418 21.7484 143.77 20.6595 143.005 19.0115L142.622 21.3953H139.65V0.0588601H143.182V8.97601C143.947 7.44567 145.565 6.32735 147.714 6.32735C151.334 6.32735 153.629 9.47631 153.629 14.0379C153.629 18.6583 151.275 21.7484 147.567 21.7484ZM146.478 19.0409C148.685 19.0409 149.95 17.1574 149.95 14.0379C149.95 10.9772 148.714 9.03487 146.478 9.03487C144.359 9.03487 143.123 10.7712 143.123 13.567V14.5676C143.123 17.3046 144.329 19.0409 146.478 19.0409Z" fill="black"/>
<path d="M159.223 4.23786H155.397V0.559163H159.223V4.23786ZM159.076 21.3953H155.544V6.68051H159.076V21.3953Z" fill="black"/>
<path d="M163.442 9.24088H160.794V6.68051H163.442V2.97238L166.974 1.55977V6.68051H170.564V9.24088H166.974V16.2745C166.974 17.8343 167.651 18.5995 169.122 18.5995C169.711 18.5995 170.093 18.5112 170.564 18.4229V21.3953C169.711 21.5719 169.063 21.6601 168.151 21.6601C164.619 21.6601 163.442 19.8061 163.442 16.8337V9.24088Z" fill="black"/>
<path d="M185.868 21.8956C180.923 21.8956 177.98 19.4529 177.127 16.0391L180.364 14.6265C181.041 16.9808 182.748 18.8643 186.015 18.8643C188.163 18.8643 190.164 18.0109 190.164 15.8331C190.164 13.8025 188.928 13.0961 186.633 12.6253L183.719 12.0073C180.423 11.3304 178.216 9.5646 178.216 6.00363C178.216 2.38379 181.188 0 185.897 0C189.841 0 192.989 1.61862 193.902 5.09131L190.9 6.68051C190.223 4.26728 188.487 2.8841 185.72 2.8841C183.425 2.8841 181.895 3.94356 181.895 5.70933C181.895 7.41625 182.866 8.29913 185.132 8.79943L188.192 9.44688C191.636 10.1826 193.931 11.7718 193.931 15.4799C193.931 19.0703 191.224 21.8956 185.868 21.8956Z" fill="black"/>
<path d="M196.554 9.24088H193.905V6.68051H196.554V2.97238L200.085 1.55977V6.68051H203.676V9.24088H200.085V16.2745C200.085 17.8343 200.762 18.5995 202.234 18.5995C202.822 18.5995 203.205 18.5112 203.676 18.4229V21.3953C202.822 21.5719 202.175 21.6601 201.263 21.6601C197.731 21.6601 196.554 19.8061 196.554 16.8337V9.24088Z" fill="black"/>
<path d="M211.54 21.7484C207.302 21.7484 204.329 18.9526 204.329 14.0085C204.329 9.09373 207.302 6.32735 211.54 6.32735C215.778 6.32735 218.779 9.09373 218.779 14.0085C218.779 18.9526 215.778 21.7484 211.54 21.7484ZM211.54 19.0703C213.806 19.0703 215.16 17.3634 215.16 14.0085C215.16 10.6535 213.806 9.00544 211.54 9.00544C209.274 9.00544 207.949 10.6535 207.949 14.0085C207.949 17.3634 209.274 19.0703 211.54 19.0703Z" fill="black"/>
<path d="M224.087 6.68051V10.2415C224.822 7.91655 226.412 6.32735 228.766 6.32735C228.913 6.32735 229.06 6.32735 229.207 6.35678V9.74118C229.031 9.74118 228.884 9.71175 228.736 9.71175C227.324 9.71175 226.323 10.1238 225.676 10.7712C224.469 11.919 224.322 13.5964 224.322 15.2151V21.3953H220.79V6.68051H224.087Z" fill="black"/>
<path d="M243.223 13.3022V14.9208H232.894C232.923 17.3929 234.483 18.9821 236.808 18.9821C238.456 18.9821 239.721 18.1286 240.369 16.5394L243.106 17.7754C241.987 20.3358 239.692 21.7484 236.661 21.7484C232.158 21.7484 229.45 19.0115 229.45 14.185C229.45 9.32917 232.128 6.32735 236.513 6.32735C240.781 6.32735 243.223 8.79943 243.223 13.3022ZM239.721 12.5958V12.3604C239.751 9.94719 238.544 8.68172 236.425 8.68172C234.218 8.68172 232.952 10.1532 232.894 12.5958H239.721Z" fill="black"/>
<path d="M3.824 46.1881C2.608 46.1881 1.696 45.5481 1.28 44.6201L1.04 45.9961H0V34.3961H1.36V39.3881C1.776 38.4921 2.656 37.8041 3.904 37.8041C5.856 37.8041 7.12 39.5481 7.12 41.9961C7.12 44.4921 5.824 46.1881 3.824 46.1881ZM3.456 44.9881C4.848 44.9881 5.68 43.8201 5.68 41.9961C5.68 40.2041 4.896 39.0041 3.472 39.0041C2.128 39.0041 1.328 40.0761 1.328 41.8201V42.2361C1.328 43.9001 2.112 44.9881 3.456 44.9881Z" fill="black"/>
<path d="M8.427 49.1961C8.187 49.1961 7.947 49.1801 7.691 49.1321V47.9321C7.899 47.9641 8.091 47.9641 8.267 47.9641C9.227 47.9641 9.723 47.5321 10.091 46.4921L10.299 45.9001L7.115 37.9961H8.635L10.683 43.5641C10.827 43.9641 10.907 44.2841 10.955 44.5081H10.987C11.035 44.2841 11.131 43.9641 11.259 43.5641L13.115 37.9961H14.587L11.467 46.5081C10.731 48.5241 9.771 49.1961 8.427 49.1961Z" fill="black"/>
<path d="M24.4926 34.6586C24.6486 34.6586 24.7889 34.6586 24.9449 34.6586C26.3798 34.7206 27.5651 35.263 28.1421 36.0689C28.8907 37.1227 28.7192 38.564 27.5963 39.1064C27.3467 39.2304 27.0192 39.3544 26.7385 39.2769C26.4889 39.1839 26.3018 38.9514 26.3018 38.6725C26.3018 38.4555 26.4109 38.285 26.4109 38.0526C26.5201 36.9213 25.5843 35.9914 24.477 35.6815C23.6348 35.449 22.6367 35.573 21.9816 36.0224C20.4688 37.0297 20.4376 39.8038 21.7633 41.6945C23.011 43.4767 24.8981 44.1896 26.4733 44.0656C26.5981 44.0656 26.7229 44.0346 26.832 44.0191V41.9425C26.832 41.648 26.8009 41.3226 26.0678 40.7182C26.021 40.6872 25.9743 40.6562 25.9431 40.6252C25.8807 40.5787 25.8495 40.5012 25.8495 40.4237C25.8495 40.2842 25.9743 40.1603 26.1302 40.1603H28.7036C28.9843 40.1603 29.0623 40.3152 29.0623 40.6562V45.259C29.0623 45.3364 29.0779 45.3984 29.0467 45.4604C28.9999 45.5534 28.9063 45.6309 28.7972 45.6309C28.7192 45.6309 28.6724 45.5999 28.6256 45.5534C28.2825 45.2899 27.9082 44.6855 26.91 45.166C26.8944 45.1815 26.8788 45.1815 26.8632 45.1815C26.8476 45.197 26.8476 45.197 26.832 45.197C26.099 45.5534 25.2724 45.7549 24.399 45.7549C21.2954 45.7549 18.8 43.2598 18.8 40.1757C18.8 38.1301 19.9073 36.3478 21.5605 35.3715C22.4495 34.8756 23.3385 34.6586 24.4926 34.6586Z" fill="black"/>
<path d="M34.0658 37.3397C34.4401 37.3397 34.83 37.3862 35.2043 37.4792C36.9667 37.9751 38.2611 39.6488 38.2611 41.6325C38.2611 44.0036 36.4052 45.9408 34.1281 45.9408C31.8355 45.9408 29.9951 44.0036 29.9951 41.6325C29.9951 39.6798 31.2428 38.0216 32.974 37.4947C33.3327 37.4017 33.6914 37.3397 34.0658 37.3397ZM32.8337 38.4555C32.6465 38.4555 32.4905 38.4865 32.3502 38.564C31.4924 39.0599 31.6016 40.8266 32.5841 42.5159C33.5667 44.2051 35.0639 45.1815 35.9061 44.701C36.7483 44.2051 36.6391 42.4384 35.6566 40.7492C34.8612 39.3854 33.707 38.44 32.8337 38.4555Z" fill="black"/>
<path d="M43.1134 37.3397C43.4877 37.3397 43.8776 37.3862 44.2519 37.4792C46.0143 37.9751 47.3088 39.6488 47.3088 41.6325C47.3088 44.0036 45.4528 45.9408 43.1758 45.9408C40.8831 45.9408 39.0428 44.0036 39.0428 41.6325C39.0428 39.6798 40.2905 38.0216 42.0216 37.4947C42.3804 37.4017 42.7391 37.3397 43.1134 37.3397ZM41.8813 38.4555C41.6941 38.4555 41.5382 38.4865 41.3978 38.564C40.54 39.0599 40.6492 40.8266 41.6317 42.5159C42.6143 44.2051 44.1115 45.1815 44.9537 44.701C45.7959 44.2051 45.6868 42.4384 44.7042 40.7492C43.9088 39.3854 42.7547 38.44 41.8813 38.4555Z" fill="black"/>
<path d="M55.561 34.0387C55.5922 34.0232 55.6234 34.0077 55.6546 34.0077C55.6857 33.9922 55.7169 33.9922 55.7481 34.0077C55.8573 34.0232 55.9509 34.1007 55.9665 34.2092C55.9821 34.2557 55.9821 34.3177 55.9821 34.3642C55.9821 37.6651 55.9821 40.2687 55.9821 43.8332C55.9821 44.1276 56.0133 44.4686 56.7463 45.0575C56.7931 45.104 56.8399 45.1195 56.8711 45.1505C56.9334 45.197 56.9646 45.2745 56.9646 45.3519C56.9646 45.5069 56.8399 45.6154 56.6839 45.6154H54.1105C53.8298 45.6154 53.7518 45.4604 53.7518 45.135V44.825C53.7206 44.856 53.6738 44.9025 53.6426 44.9335C52.5197 45.9563 51.0381 45.8944 50.0399 45.228C48.8702 44.4531 48.0904 43.1358 48.0904 41.6325C48.0904 39.5713 49.5408 37.8511 51.4748 37.4327C51.8179 37.3707 52.1454 37.3397 52.4729 37.3397C52.7225 37.3397 52.972 37.3552 53.206 37.4017C53.3931 37.4327 53.5647 37.4792 53.7518 37.5412C53.7362 36.3169 53.4087 35.697 52.894 35.3095C52.8161 35.263 52.7693 35.17 52.7693 35.077C52.7693 34.9841 52.816 34.9066 52.8784 34.8601C52.9408 34.8136 53.0188 34.7981 53.0812 34.7671L55.561 34.0387ZM52.0518 38.1611C51.9427 38.1611 51.8179 38.1766 51.7087 38.2076C50.5702 38.5175 50.1491 39.9588 50.3051 41.5085C50.4298 42.7174 51.2252 44.5151 52.5821 44.5151C53.0344 44.5151 53.5023 44.1431 53.6738 43.6007C53.7674 43.3063 53.7518 42.9498 53.7518 42.6089V41.586C53.7518 41.0591 53.7518 40.5322 53.7518 40.0053C53.7518 39.7263 53.7518 39.5249 53.6582 39.2459C53.4087 38.5795 52.7069 38.1611 52.0518 38.1611Z" fill="black"/>
<path d="M59.8864 34.7671H63.5359C63.6918 34.7671 63.801 34.8911 63.801 35.0461C63.801 35.1235 63.7698 35.201 63.723 35.2475C63.6763 35.2785 63.6451 35.294 63.5983 35.3405C62.8652 35.9294 62.8185 36.2704 62.8185 36.5648V39.8193H66.9514V36.5648C66.9514 36.2704 66.9203 35.9294 66.1872 35.3405C66.1404 35.294 66.0937 35.2785 66.0625 35.2475C66.0001 35.201 65.9689 35.1235 65.9689 35.0461C65.9689 34.8911 66.0937 34.7671 66.2496 34.7671H69.8991C70.0395 34.7671 70.1643 34.8911 70.1643 35.0461C70.1643 35.1235 70.1331 35.201 70.0863 35.2475C70.0395 35.2785 70.0083 35.294 69.9615 35.3405C69.2285 35.9294 69.1817 36.2704 69.1817 36.5648V43.8332C69.1817 44.1276 69.2285 44.4686 69.9615 45.0575C70.0083 45.104 70.0395 45.1195 70.0863 45.1505C70.1331 45.197 70.1643 45.2745 70.1643 45.3519C70.1643 45.5069 70.0395 45.6154 69.8991 45.6154H66.2496C66.0937 45.6154 65.9689 45.5069 65.9689 45.3519C65.9689 45.2745 66.0001 45.197 66.0625 45.1505C66.0937 45.1195 66.1404 45.104 66.1872 45.0575C66.9203 44.4686 66.9514 44.1276 66.9514 43.8332V40.5787H62.8185V43.8332C62.8185 44.1276 62.8652 44.4686 63.5983 45.0575C63.6451 45.104 63.6763 45.1195 63.723 45.1505C63.7698 45.197 63.801 45.2745 63.801 45.3519C63.801 45.5069 63.6918 45.6154 63.5359 45.6154H59.8864C59.7304 45.6154 59.6212 45.5069 59.6212 45.3519C59.6212 45.2745 59.6524 45.197 59.6992 45.1505C59.7304 45.1195 59.7772 45.104 59.824 45.0575C60.557 44.4686 60.5882 44.1276 60.5882 43.8332V36.5648C60.5882 36.2704 60.557 35.9294 59.824 35.3405C59.7772 35.294 59.7304 35.2785 59.6992 35.2475C59.6524 35.201 59.6212 35.1235 59.6212 35.0461C59.6212 34.8911 59.7304 34.7671 59.8864 34.7671Z" fill="black"/>
<path d="M72.3725 37.5567C72.8092 37.4947 73.2303 37.5102 73.6981 37.6032C74.8679 37.8821 75.866 38.7965 76.3495 40.5477C76.4431 40.9196 76.5211 41.4001 76.599 41.834L76.8486 43.1048C76.911 43.4457 76.9733 43.6937 77.0201 44.0036C77.1917 44.67 77.3633 44.856 77.7064 45.1195C77.7843 45.166 77.8311 45.259 77.8311 45.3519C77.8311 45.5069 77.7064 45.6154 77.566 45.6154H76.1779C75.4761 45.6154 75.1174 45.197 74.9614 44.949C74.9302 44.887 74.899 44.8405 74.8679 44.763C74.244 45.3674 73.433 45.8789 72.4504 45.8789C71.3743 45.8789 70.4073 45.3984 70.3138 44.1896C70.2202 43.1668 70.9532 42.4074 71.7018 41.71C72.4037 41.0436 73.2303 40.4237 73.6825 39.6643C73.4798 39.2769 73.2303 39.0289 72.9495 38.874C72.3257 38.533 71.4523 38.626 70.8752 39.1994C70.7972 39.3079 70.6569 39.3544 70.5321 39.3079C70.4229 39.2614 70.3606 39.1374 70.3762 39.0289C70.3762 38.9359 70.4385 38.874 70.4697 38.781C70.8596 38.0836 71.5927 37.6806 72.3725 37.5567ZM74.0101 40.4547C73.5422 41.1521 72.8871 41.865 72.6064 42.3454C72.2321 42.9963 72.2477 43.4767 72.4972 43.8487C73.0275 44.6236 74.0569 44.5306 74.7119 43.8487L74.6183 43.3218L74.3844 42.0665C74.2752 41.4311 74.1504 40.8886 74.0101 40.4547Z" fill="black"/>
<path d="M80.5989 34.0387C80.6612 34.0232 80.7392 33.9922 80.8328 34.0077C80.942 34.0232 81.02 34.1162 81.0355 34.2247C81.0511 34.2712 81.0355 34.3177 81.0355 34.3642C81.0355 35.5885 81.0511 36.8283 81.0355 38.0526V38.44C82.1741 37.3087 83.7181 37.3552 84.7475 38.0371C85.9172 38.812 86.7126 40.1293 86.7126 41.6325C86.7126 43.6937 85.2465 45.4139 83.3126 45.8324C82.9695 45.8944 82.642 45.9253 82.3144 45.9253C82.0649 45.9253 81.8154 45.9099 81.5814 45.8634C81.3007 45.8014 81.02 45.7239 80.7704 45.6154H78.1035C77.9475 45.6154 77.8383 45.5069 77.8383 45.3519C77.8383 45.2745 77.8695 45.197 77.9163 45.1505C77.9475 45.1195 77.9943 45.104 78.0411 45.0575C78.7741 44.4686 78.8053 44.1276 78.8053 43.8332V37.6341C78.8053 36.3478 78.4934 35.697 77.9631 35.3095C77.8851 35.263 77.8383 35.17 77.8383 35.077C77.8383 34.9841 77.8695 34.9066 77.9475 34.8601C77.9943 34.8136 78.0723 34.7826 78.1503 34.7671L80.5989 34.0387ZM82.2209 38.75C81.6438 38.75 81.0355 39.3389 81.0355 40.1138V43.5232C81.0355 44.5926 82.1897 45.2899 83.0787 45.0575C84.2172 44.7475 84.6383 43.3063 84.4823 41.7565C84.3575 40.5477 83.5621 38.75 82.2209 38.75Z" fill="black"/>
<path d="M88.7267 34.5501C88.9762 34.5501 89.2102 34.6276 89.4597 34.7516C89.834 34.9996 90.0835 35.4025 90.0835 35.8829C90.0835 36.6268 89.4753 37.2312 88.7267 37.2312C87.9937 37.2312 87.3854 36.6268 87.3854 35.8829C87.3854 35.356 87.6973 34.8911 88.1496 34.6741C88.3368 34.5811 88.5395 34.5346 88.7267 34.5501ZM89.8184 37.6651C89.834 37.6651 89.834 37.6651 89.8496 37.6651C89.9588 37.6961 90.0524 37.7736 90.0679 37.8821C90.0835 37.9131 90.0679 37.9596 90.0679 37.9906V43.8332C90.0679 44.1276 90.1147 44.4686 90.8478 45.0575C90.8945 45.104 90.9257 45.1195 90.9725 45.1505C91.0193 45.197 91.0505 45.2745 91.0505 45.3519C91.0505 45.5069 90.9413 45.6154 90.7854 45.6154H87.1359C86.9799 45.6154 86.8707 45.5069 86.8707 45.3519C86.8707 45.2745 86.9019 45.197 86.9487 45.1505C86.9799 45.1195 87.0267 45.104 87.0735 45.0575C87.8065 44.4686 87.8377 44.1276 87.8377 43.8332V41.2916C87.8377 40.0053 87.5258 39.3699 86.9955 38.9824C86.9175 38.9359 86.8707 38.843 86.8707 38.75C86.8707 38.657 86.9019 38.564 86.9799 38.5175C87.0267 38.4865 87.1203 38.471 87.1826 38.4245L89.6936 37.6806C89.7248 37.6806 89.7716 37.6651 89.8184 37.6651Z" fill="black"/>
<path d="M93.1494 36.3788C93.2274 36.3169 93.3054 36.2859 93.4301 36.3014C93.5237 36.3324 93.5861 36.4098 93.6173 36.5028C93.6329 36.5493 93.6173 36.5958 93.6173 36.6423C93.6173 37.1847 93.6173 37.7116 93.6173 38.2386H94.5687C94.6466 38.2386 94.709 38.2386 94.7714 38.2541C94.943 38.285 95.0677 38.44 95.0677 38.6105C95.0677 38.781 94.9586 38.9204 94.8026 38.9824C94.7402 38.9979 94.6778 38.9979 94.5999 38.9979H93.6173V43.0893C93.6173 44.856 94.6622 44.763 95.2705 44.4221C95.3173 44.3911 95.3641 44.3756 95.4109 44.3756C95.5668 44.3756 95.6916 44.4996 95.6916 44.6545C95.6916 44.7165 95.6604 44.794 95.6136 44.8405C95.0677 45.5224 94.1944 45.7704 93.3678 45.7704C92.4788 45.7704 91.387 45.1815 91.387 43.5232V41.2296C91.387 39.6488 91.4182 39.4784 91.2779 39.2304C91.1063 38.9514 90.8256 39.0444 90.6384 38.9669C90.5916 38.9359 90.5448 38.9049 90.5136 38.8585C90.4513 38.7965 90.4201 38.7035 90.4201 38.6105C90.4201 38.5175 90.4513 38.4245 90.5136 38.3625C90.5448 38.316 90.5916 38.285 90.6384 38.2541L93.1494 36.3788Z" fill="black"/>
<path d="M98.7275 37.4482C99.7256 37.4482 100.864 37.6187 101.613 38.3935C102.252 39.0599 102.018 40.1758 101.223 40.5787C101.036 40.6562 100.817 40.7492 100.615 40.6872C100.427 40.6252 100.303 40.4547 100.303 40.2532C100.303 40.0983 100.381 39.9743 100.365 39.8038C100.459 38.8585 99.6633 38.2076 98.6807 38.2076C97.9633 38.2076 97.4642 38.9049 97.8853 39.4939C98.1192 39.8038 98.5091 40.0983 99.055 40.4082C100.084 40.9971 101.847 42.051 101.925 43.3682C102.018 44.7785 101.083 45.8014 98.9302 45.8014C97.9321 45.8014 96.7936 45.6309 96.0449 44.856C95.4055 44.1741 95.6394 43.0738 96.4348 42.6709C96.6064 42.5934 96.8403 42.5004 97.0431 42.5624C97.2303 42.6244 97.355 42.7948 97.355 42.9963C97.355 43.1358 97.2771 43.2753 97.2771 43.4302C97.1991 44.3756 97.9945 45.042 98.9146 45.042C99.2266 45.042 99.944 44.9025 99.944 44.2516C99.944 43.5852 99.3357 43.2133 98.3064 42.5469C97.1523 41.803 95.8734 41.0436 95.8734 39.5558C95.8734 38.1456 97.3862 37.4482 98.7275 37.4482Z" fill="black"/>
<path d="M108.15 35.139C110.115 34.2557 112.875 34.2867 114.279 36.0689C115.074 37.0762 114.856 38.564 113.733 39.1064C113.483 39.2304 113.156 39.3544 112.875 39.2769C112.626 39.1839 112.438 38.9514 112.438 38.6725C112.438 38.4555 112.548 38.285 112.548 38.0526C112.641 37.0917 112.033 36.2704 111.175 35.8829C110.224 35.4645 109.148 35.4645 108.243 36.0379C106.824 36.9213 106.309 39.5403 107.9 41.6945C110.333 44.98 114.747 43.5697 115.527 41.0126C115.542 40.9661 115.558 40.9041 115.573 40.8576C115.605 40.7492 115.714 40.6717 115.823 40.6717C115.948 40.6717 116.057 40.7492 116.088 40.8576C116.104 40.9351 116.104 40.9971 116.088 41.0746C115.948 41.958 115.651 42.5624 115.152 43.3528C114.138 44.794 112.454 45.7549 110.536 45.7549C107.432 45.7549 104.937 43.2598 104.937 40.1757C104.937 37.9441 106.231 36.0069 108.15 35.139Z" fill="black"/>
<path d="M118.511 34.0542C118.542 34.0387 118.589 34.0232 118.62 34.0232C118.667 34.0077 118.729 33.9922 118.776 34.0077C118.87 34.0232 118.948 34.1007 118.979 34.1937C118.994 34.2402 118.994 34.2867 118.979 34.3332C118.994 36.6113 118.994 38.9049 118.994 41.1831V43.8332C118.994 44.1276 119.026 44.4686 119.759 45.0575C119.805 45.104 119.852 45.1195 119.883 45.1505C119.93 45.197 119.977 45.2745 119.977 45.3519C119.961 45.5069 119.852 45.6154 119.696 45.6154H116.047C115.891 45.6154 115.782 45.5069 115.782 45.3519C115.782 45.2745 115.813 45.197 115.86 45.1505C115.906 45.1195 115.938 45.104 115.984 45.0575C116.717 44.4686 116.764 44.1276 116.764 43.8332V37.6341C116.764 36.3478 116.437 35.7124 115.906 35.3095C115.828 35.263 115.782 35.17 115.782 35.077C115.782 34.9841 115.813 34.9066 115.891 34.8601C115.938 34.8136 116.031 34.7981 116.094 34.7671L118.511 34.0542Z" fill="black"/>
<path d="M122.185 37.6651C122.247 37.6651 122.294 37.6651 122.356 37.6806C122.45 37.6961 122.528 37.7736 122.543 37.8666C122.559 37.8976 122.559 37.9596 122.559 38.0061C122.559 39.2459 122.559 40.4857 122.559 41.7255V42.8723C122.559 44.98 125.429 45.1505 125.522 42.9808C125.522 41.803 125.507 40.6252 125.507 39.4474C125.507 39.1684 125.475 38.8275 124.742 38.2231C124.696 38.1921 124.649 38.1766 124.618 38.1301C124.555 38.0836 124.524 38.0061 124.524 37.9286C124.524 37.7891 124.649 37.6651 124.805 37.6651H127.363C127.425 37.6651 127.487 37.6651 127.55 37.6806C127.643 37.7116 127.721 37.7891 127.737 37.8976C127.737 37.9286 127.737 37.9596 127.737 37.9906C127.737 39.9433 127.737 41.865 127.753 43.8332C127.753 44.1276 127.784 44.4686 128.517 45.0575C128.564 45.104 128.61 45.1195 128.641 45.1505C128.688 45.197 128.735 45.2745 128.735 45.3519C128.735 45.5069 128.61 45.6309 128.454 45.6309H125.819C125.678 45.6309 125.522 45.5069 125.522 45.3519V44.5926C125.179 45.104 124.259 45.6309 123.292 45.6309C121.561 45.6309 120.329 44.7165 120.329 42.8723C120.329 41.741 120.329 40.5942 120.329 39.4474C120.329 39.1684 120.298 38.8275 119.549 38.2231C119.518 38.1921 119.471 38.1766 119.424 38.1301C119.377 38.0836 119.346 38.0061 119.346 37.9286C119.346 37.7891 119.471 37.6651 119.611 37.6651H122.185Z" fill="black"/>
<path d="M131.489 34.0387C131.552 34.0232 131.63 33.9922 131.723 34.0077C131.833 34.0232 131.91 34.1162 131.926 34.2247C131.942 34.2712 131.926 34.3177 131.926 34.3642C131.926 35.5885 131.942 36.8283 131.926 38.0526V38.44C133.065 37.3087 134.609 37.3552 135.638 38.0371C136.808 38.812 137.603 40.1293 137.603 41.6325C137.603 43.6937 136.137 45.4139 134.203 45.8324C133.86 45.8944 133.532 45.9253 133.205 45.9253C132.955 45.9253 132.706 45.9099 132.472 45.8634C132.191 45.8014 131.91 45.7239 131.661 45.6154H128.994C128.838 45.6154 128.729 45.5069 128.729 45.3519C128.729 45.2745 128.76 45.197 128.807 45.1505C128.838 45.1195 128.885 45.104 128.932 45.0575C129.665 44.4686 129.696 44.1276 129.696 43.8332V37.6341C129.696 36.3478 129.384 35.697 128.854 35.3095C128.776 35.263 128.729 35.17 128.729 35.077C128.729 34.9841 128.76 34.9066 128.838 34.8601C128.885 34.8136 128.963 34.7826 129.041 34.7671L131.489 34.0387ZM133.111 38.75C132.534 38.75 131.926 39.3389 131.926 40.1138V43.5232C131.926 44.5926 133.08 45.2899 133.969 45.0575C135.108 44.7475 135.529 43.3063 135.373 41.7565C135.248 40.5477 134.453 38.75 133.111 38.75Z" fill="black"/>
<path d="M138.911 44.8095C138.911 45.259 138.537 45.6309 138.1 45.6309C137.648 45.6309 137.289 45.259 137.289 44.8095C137.289 44.3756 137.648 44.0036 138.1 44.0036C138.287 44.0036 138.459 44.0656 138.584 44.1741C138.786 44.3291 138.911 44.5616 138.911 44.8095Z" fill="black"/>
<path d="M212.695 224.994C212.034 226.862 211.539 228.816 210.636 230.56C210.296 231.216 208.422 231.871 208.255 231.667C207.544 230.838 207.037 229.713 206.827 228.624C206.721 228.08 207.383 227.363 207.748 226.751C209.64 223.59 208.113 220.535 205.311 218.346C204.211 217.487 202.77 216.794 203.945 215.458C204.52 214.809 206.48 214.71 207.414 215.167C210.543 216.707 211.675 219.713 212.195 222.966C212.293 223.566 212.207 224.203 212.207 224.815C212.368 224.877 212.528 224.932 212.695 224.994Z" fill="#1D9BF0"/>
<path d="M200.318 207.189C202.761 204.734 207.43 204.783 209.249 207.121C209.626 207.603 209.743 208.494 209.607 209.106C209.508 209.551 208.711 210.244 208.358 210.17C206.033 209.693 203.738 209.075 201.463 208.407C201.054 208.29 200.788 207.708 200.318 207.183V207.189Z" fill="#1D9BF0"/>
<path d="M106.459 141.619C105.983 137.21 107.597 132.732 109.669 128.416C110.028 127.674 111.277 127.352 112.118 126.839C112.421 127.791 113.176 128.873 112.947 129.671C111.543 134.619 109.428 139.387 110.127 144.755C110.863 150.401 115.087 154.161 120.776 151.551C125.334 149.461 127.863 145.658 130.257 141.625C131.073 140.253 131.704 138.756 132.662 137.507C133.293 136.684 134.363 136.196 135.235 135.559C135.464 136.876 136.292 138.509 135.81 139.461C134.06 142.875 132.118 146.258 129.774 149.288C126.657 153.32 122.662 156.146 117.251 156.468C110.943 156.839 107.053 150.766 106.478 145.849C106.336 144.631 106.459 143.382 106.459 141.613V141.619Z" fill="#1D9BF0"/>
<path d="M123.724 120.273C124.924 121.671 126.198 122.71 126.037 123.044C125.375 124.392 124.274 125.518 123.334 126.724C122.66 125.938 121.337 125.042 121.448 124.386C121.665 123.137 122.691 122.024 123.73 120.273H123.724Z" fill="#1D9BF0"/>
<path d="M134.061 126.116C132.373 127.7 131.222 128.769 130.078 129.845C129.447 129.11 128.161 127.91 128.297 127.718C129.126 126.543 130.208 125.492 131.389 124.657C131.649 124.471 132.632 125.312 134.061 126.123V126.116Z" fill="#1D9BF0"/>
<path d="M48.7396 252.548C64.4291 231.806 79.6301 211.713 94.8311 191.621C94.6826 191.392 94.5404 191.169 94.392 190.94C86.4761 197.638 77.4285 200.427 67.2059 199.165C67.3728 199.45 67.546 199.741 67.713 200.025C65.9257 201.175 64.0704 202.233 62.3821 203.513C61.6957 204.032 60.8484 205.158 60.9968 205.789C61.3988 207.527 62.2955 209.153 63.0129 210.872C60.9659 213.643 59.7785 213.476 57.9789 210.575C57.1997 209.314 56.8843 207.36 53.9467 208.145C50.4959 209.066 46.674 205.943 45.1712 202.474C44.9301 201.917 44.1818 201.602 43.755 201.101C42.4192 199.549 40.7062 198.145 39.9084 196.345C38.7767 193.779 37.4904 190.81 37.7934 188.195C38.2634 184.138 35.2578 180.334 37.4223 176.271C38.3871 174.459 39.5188 173.093 41.5844 172.827C43.9344 172.53 46.303 172.375 48.8076 172.153V169.302C45.7773 169.561 42.8645 169.951 39.9455 170.025C36.9152 170.106 30.8546 165.554 30.1805 162.623C30.0259 161.948 30.9845 160.532 31.7452 160.211C37.6759 157.694 43.2603 158.324 48.6097 162.864C48.8323 159.166 49.0364 155.733 49.2467 152.183C46.8286 153.414 44.3735 154.558 42.0296 155.882C38.956 157.613 35.833 157.211 32.58 156.605C28.9993 155.937 27.1564 153.34 26.8348 150.353C26.4885 147.112 27.2987 143.717 30.5021 141.59C33.4768 139.611 36.3525 137.49 39.1787 135.498C36.9523 134.496 34.392 133.612 32.1038 132.258C26.2411 128.788 25.5732 122.913 28.2696 117.607C29.5497 115.09 32.4316 114.509 35.1403 114.632C40.0074 114.849 44.3858 116.494 48.4675 119.574C48.0717 118.609 47.645 117.65 47.2739 116.673C44.9672 110.551 47.9913 103.414 54.4662 102.115C60.7495 100.854 67.3666 106.253 67.4223 112.728C67.447 115.832 66.9585 118.949 66.7111 121.967C70.1805 121.528 73.9962 121.151 77.7686 120.483C78.5478 120.347 79.2776 119.227 79.7847 118.411C86.1483 108.164 96.0679 102.938 107.212 100.39C117.125 98.1266 127.224 98.4667 136.934 102.604C144.448 105.801 150.168 110.94 155.456 117.051C161.405 123.915 164.213 132.072 165.585 140.545C166.878 148.479 165.629 156.593 162.24 164.101C160.415 168.133 159.587 171.788 161.226 176.413C162.685 180.538 162.067 185.35 159.29 189.357C158.894 189.926 158.671 190.613 158.313 191.361C165.561 196.457 172.735 201.497 179.902 206.549C186.668 211.311 193.421 216.086 200.187 220.848C202.339 222.363 203.347 223.711 201.819 226.716C198.486 233.284 194.584 239.357 189.376 244.558C184.349 249.58 178.263 251.386 171.541 249.128C167.571 247.792 164.448 244.923 162.71 240.81C161.547 238.052 160.02 235.449 158.838 232.703C157.985 230.718 157.422 228.603 156.556 226.036C155.647 227.799 154.819 229.289 154.095 230.829C149.704 240.18 143.712 248.343 134.336 252.963C128.523 255.826 122.054 256.098 116.037 252.35C109.018 247.984 105.202 241.658 103.279 233.686C101.052 224.459 101.065 215.344 103.198 206.135C102.945 206.03 102.691 205.919 102.444 205.814C87.0327 229.005 71.6214 252.196 55.8762 275.882C66.7977 273.198 76.9832 270.582 87.2306 268.219C92.413 267.026 97.7006 266.253 102.951 265.374C108.226 264.49 113.514 263.63 118.814 262.913C122.623 262.394 126.47 261.837 130.304 261.8C136.686 261.744 143.081 261.967 149.457 262.288C162.666 262.956 175.746 264.682 188.597 267.854C193.668 269.11 198.671 270.643 203.662 272.202C204.355 272.418 204.781 273.494 205.326 274.175C204.435 274.527 203.452 275.325 202.673 275.158C193.631 273.216 184.695 270.674 175.585 269.202C166.73 267.774 157.707 267.31 148.746 266.605C143.613 266.203 138.436 265.851 133.303 266.042C127.119 266.271 120.923 266.84 114.794 267.718C106.105 268.967 97.4408 270.446 88.8385 272.189C80.7556 273.828 72.7717 275.95 64.7383 277.83C61.2195 278.652 57.6635 279.345 54.157 280.229C53.4149 280.415 52.4934 281.014 52.209 281.664C51.0278 284.366 49.0673 284.502 46.9832 283.198C44.5157 281.658 42.1409 281.757 39.29 281.812C32.2152 281.942 25.1218 281.095 18.047 280.458C16.7173 280.34 14.4044 279.994 15.431 277.774C15.8144 276.951 17.9171 276.531 19.2034 276.599C25.8021 276.976 32.3883 277.57 39.1601 277.39C32.4316 272.381 25.6907 267.391 18.9746 262.363C13.3407 258.151 7.79342 253.81 2.07295 249.716C-0.320365 248.003 -0.369836 245.603 0.563992 243.717C4.0643 236.617 6.84722 229.066 13.0191 223.55C16.8287 220.149 21.0525 217.879 26.0804 217.1C32.9511 216.036 38.3933 220.742 41.3308 226.098C45.6474 233.971 47.3914 242.684 48.7458 252.548H48.7396ZM120.842 201.002C120.589 204.608 122.24 205.931 125.895 204.719C127.231 204.274 128.511 203.556 129.871 203.309C130.805 203.136 131.85 203.556 132.846 203.711C132.475 204.775 132.413 206.191 131.671 206.809C130.471 207.817 128.789 208.238 127.385 209.036C126.532 209.518 125.821 210.242 125.041 210.86C126.074 211.497 127.237 212.802 128.115 212.635C130.211 212.233 132.135 210.984 134.219 210.384C135.301 210.075 136.575 210.421 137.762 210.47C137.373 211.664 137.138 212.944 136.532 214.02C136.136 214.725 135.202 215.133 134.058 216.03C137.045 216.661 139.327 216.871 141.628 215.084C146.13 211.59 147.713 207.007 147.292 201.509C147.237 200.773 147.156 199.858 147.515 199.295C149.253 196.58 151.207 193.995 152.957 191.287C156.105 186.413 159.036 181.386 156.501 175.319C155.32 172.499 155.456 169.969 156.519 167.18C157.985 163.34 159.277 159.425 160.397 155.467C162.561 147.83 162.883 139.84 159.902 132.653C155.907 123.012 150.007 114.527 140.496 108.943C134.441 105.387 128.158 103.618 121.325 103.26C115.289 102.944 109.5 103.897 103.619 105.56C95.3196 107.91 89.3394 113.031 83.9096 119.258C82.011 121.435 82.413 123.247 84.1632 125.257C87.4099 128.986 86.6369 134.905 82.345 137.49C79.4817 139.215 76.2535 140.328 72.7841 141.899C73.6251 142.87 74.4848 143.934 75.4186 144.917C79.0735 148.751 78.7395 155.764 74.8373 159.363C74.3054 159.858 74.2065 161.089 74.3116 161.93C74.4044 162.66 75.0661 163.315 75.4742 164.008C77.9665 168.207 79.9517 172.845 83.0871 176.494C87.3295 181.435 92.6418 185.208 98.5911 188.256C104.349 191.212 110.267 192.548 116.556 192.888C117.076 192.913 117.861 192.295 118.14 191.769C121.968 184.484 126.117 182.233 134.25 183.785C136.594 184.237 138.665 185.993 140.953 186.933C141.739 187.255 143.303 187.304 143.644 186.846C146.068 183.513 149.271 180.291 146.414 175.554C146.105 175.041 146.674 173.631 147.249 173.086C147.595 172.765 149.321 173.111 149.469 173.501C150.316 175.832 151.77 178.423 151.38 180.637C150.137 187.731 144.918 191.924 138.517 196.172V190.94C131.757 186.117 128.368 186.086 123.817 190.681C122.438 192.078 121.399 193.723 122.673 195.3C123.192 195.943 125.276 195.245 126.643 195.306C127.713 195.356 128.77 195.634 129.834 195.807C129.339 196.97 129.123 198.807 128.288 199.159C126.062 200.087 123.569 200.378 120.836 201.002H120.842ZM103.52 196.661C100.211 193.055 99.2034 193.204 96.4575 196.871C92.3388 202.375 88.0283 207.737 83.8787 213.216C75.3011 224.552 66.7791 235.931 58.2139 247.279C55.1836 251.293 52.1966 255.344 48.9993 259.221C48.3871 259.963 46.8472 260.248 45.7773 260.173C45.332 260.143 44.6889 258.615 44.6579 257.755C44.2993 246.692 42.0234 236.178 36.3896 226.494C34.4662 223.191 31.7946 221.522 28.0222 221.392C22.9202 221.219 19.2344 224.156 15.7031 227.162C10.5702 231.534 8.07171 237.737 5.11562 243.556C4.27456 245.207 4.90536 246.766 6.76064 248.071C12.9573 252.418 18.9561 257.05 25.0414 261.559C32.8212 267.329 40.6072 273.092 48.5479 278.98C66.8472 251.583 85.1465 224.175 103.52 196.661ZM156.495 195.467C155.876 197.434 155.344 199.345 154.67 201.2C152.716 206.568 150.867 211.985 148.653 217.248C146.915 221.386 144.85 225.412 142.648 229.332C139.574 234.799 135.14 238.658 128.777 239.926C123.297 241.021 118.177 237.199 115.709 230.396C114.089 225.925 113.273 221.41 113.662 216.661C114.095 211.447 114.176 206.197 114.893 201.033C115.276 198.269 115.004 196.698 112.351 196.228C109.822 195.783 109.278 197.898 108.962 199.642C107.991 205.109 107.144 210.606 106.383 216.11C104.93 226.624 106.841 236.24 113.44 244.904C118.27 251.243 127.756 251.874 132.623 249.128C141.306 244.23 146.847 236.481 150.997 227.644C152.796 223.81 154.324 219.846 156.216 216.067C156.674 215.152 158.109 214.719 159.092 214.063C159.661 215.344 160.459 216.58 160.725 217.922C160.923 218.937 160.205 220.112 160.31 221.169C160.978 228.021 163.433 234.366 167.181 240C170.434 244.898 175.975 247.879 182.413 244.063C189.401 239.92 193.625 233.371 197.039 226.259C197.336 225.64 196.662 224.051 195.969 223.544C189.89 219.036 183.724 214.645 177.546 210.266C170.626 205.362 163.668 200.507 156.488 195.467H156.495ZM82.8026 182.802C79.9826 179.264 76.9832 176.148 74.7754 172.548C72.5614 168.93 71.1452 164.818 69.2714 160.699C61.5967 162.128 58.35 156.327 54.2683 150.489C54.1694 158.071 52.3079 164.942 54.1261 172.251C57.9603 169.598 61.8812 169.264 65.2764 171.447C70.6691 174.911 69.8837 180.297 68.2386 185.807C73.823 186.908 78.4551 185.226 82.8026 182.808V182.802ZM142.982 219.475C135.573 221.225 135.252 221.132 131.782 218.968C130.391 218.102 128.814 217.428 127.224 216.995C121.702 215.492 120.1 213.414 121.071 208.578C120.02 208.114 118.944 207.644 117.305 206.921C117.534 211.305 118.059 215.201 117.855 219.054C117.626 223.414 118.548 227.298 120.601 231.095C123.081 235.696 127.837 237.026 132.289 234.28C137.812 230.872 140.02 225.164 142.982 219.462V219.475ZM51.5905 184.218C53.3654 183.482 54.8125 182.981 56.1607 182.282C56.9523 181.874 57.5089 180.854 58.3067 180.662C59.1972 180.446 60.4588 180.563 61.1329 181.083C61.5101 181.379 61.3122 182.975 60.8608 183.643C60.2671 184.515 58.9436 184.892 58.3561 185.764C57.6697 186.791 56.7544 188.423 57.1316 189.271C58.6344 192.684 60.5948 195.894 62.5305 199.45C63.0624 198.832 63.6623 198.448 63.6437 198.102C63.4953 195.22 65.4124 195.374 67.3419 195.436C68.6777 195.48 70.0135 195.436 71.3555 195.443C78.2943 195.486 84.2497 192.827 89.9331 188.912C88.554 186.203 86.6987 185.541 84.1879 186.76C78.0716 189.734 71.7204 190.736 65.0166 189.24C62.5738 188.695 61.9307 187.106 63.2974 185.053C64.1756 183.729 65.0104 182.307 65.4804 180.811C66.3029 178.207 64.157 174.762 61.8379 174.366C57.2677 173.593 50.9721 178.015 51.5905 184.218ZM56.0741 140.384C59.1601 140.378 63.0253 136.754 63.0253 133.866C63.0253 131.281 58.8014 126.655 56.5503 126.778C52.9944 126.976 49.6734 130.804 49.7785 134.583C49.8837 138.281 52.178 140.396 56.0741 140.384ZM40.9412 186.766C41.3122 190.242 43.9962 190.631 46.2597 191.008C48.9065 191.454 51.5039 190.934 53.0809 188.207C49.123 186.512 45.2207 185.115 40.9412 186.76V186.766ZM47.9356 178.374C48.1521 175.269 46.0618 176.432 44.8435 176.265C42.5367 175.937 40.5949 176.754 40.6505 179.271C40.7124 182.066 43.4149 182.202 45.3382 182.363C48.6406 182.635 47.1564 179.537 47.9356 178.38V178.374ZM55.9814 193.927C55.1218 193.754 54.324 193.408 53.5633 193.47C50.7309 193.699 47.9047 194.051 45.0847 194.385C44.6332 194.441 44.1941 194.645 43.755 194.781C43.9529 195.374 43.9962 196.339 44.3797 196.506C46.204 197.292 48.1892 198.516 49.9888 198.337C52.1842 198.12 54.8558 197.564 55.9814 193.927ZM58.7334 200.075C58.4798 199.969 58.2325 199.858 57.9789 199.753C55.2764 200.736 52.58 201.72 49.8775 202.697C49.8589 202.956 49.8466 203.216 49.828 203.47C51.7266 203.631 53.8107 204.329 55.4681 203.773C56.8162 203.321 57.6635 201.361 58.7272 200.068L58.7334 200.075Z" fill="#1D9BF0"/>
<path d="M49.2974 104.974C47.189 106.731 45.0806 112.002 48.5946 119.732C48.2433 119.381 42.6207 115.867 40.5123 115.516C38.404 115.164 31.0248 113.056 28.2137 117.624C25.4025 122.192 27.1595 126.409 28.9165 129.572C30.6734 132.734 36.6472 134.491 39.1069 135.545C38.4042 135.897 36.9986 137.654 33.1332 139.762C29.2678 141.87 26.8081 145.384 26.8081 148.898C26.8081 152.412 28.2137 155.224 32.7818 156.629C37.35 158.035 42.9723 155.575 46.4863 153.818C50.0002 152.061 52.46 149.953 53.5142 148.898C53.5142 149.25 53.8656 149.601 54.9198 151.358C55.974 153.115 60.1907 159.44 64.4075 160.494C68.6243 161.549 73.5438 161.197 76.0036 158.035C78.4634 154.872 78.112 148.547 76.7064 146.439C75.3008 144.33 74.2466 143.627 72.841 141.87C73.8952 141.87 82.6801 138.356 84.4371 135.545C86.1941 132.734 86.5455 130.626 85.4913 127.112C84.4371 123.598 79.1661 120.787 75.3008 120.787C71.4354 120.787 70.3812 122.192 66.5159 122.192C66.8673 119.03 67.2187 115.516 67.2187 110.948C67.2187 106.379 62.2991 103.217 58.7852 102.162C55.2712 101.108 51.4058 103.217 49.2974 104.974Z" fill="#FFBC12" stroke="#FFBC12" stroke-width="0.702793"/>
<path d="M49.6488 133.085C50.0002 130.976 51.7572 128.517 54.5683 127.462C55.6227 126.977 57.028 126.408 58.7849 127.814C60.5419 129.219 60.1905 129.571 61.9475 131.679C63.7045 133.788 62.6503 135.896 61.9475 137.302C61.2447 138.707 59.8391 139.41 58.0821 140.113C56.3252 140.815 53.1628 140.113 51.7572 139.41C50.3516 138.707 49.2974 135.193 49.6488 133.085Z" fill="white"/>
</svg>
