<svg width="331" height="319" viewBox="0 0 331 319" fill="none" xmlns="http://www.w3.org/2000/svg">
<path d="M46.1041 47.2996C45.9841 46.3296 46.4741 45.7696 46.9441 45.0296C77.5041 -2.32039 143.404 -14.9504 188.504 19.7596C198.834 27.7096 206.854 36.9796 213.964 47.7796C213.204 49.7196 213.174 53.7896 213.864 55.8096C214.434 57.4796 218.534 61.4996 220.204 62.1596L221.644 65.9996L225.954 63.5996C225.924 63.9096 226.004 64.2596 225.954 64.5596C225.954 64.5896 225.504 64.7296 225.474 65.0396C225.454 65.1996 225.474 65.3596 225.474 65.5196C223.274 67.4696 221.144 70.2796 219.524 72.7496C215.624 78.6896 210.164 90.3696 209.644 97.3996C209.554 98.5896 209.744 97.9096 210.144 97.8996C210.544 97.8896 212.434 97.7096 212.514 97.6296C212.684 97.4596 213.004 93.8296 213.244 92.8496C215.594 83.2596 219.474 74.3396 225.474 66.4796C225.544 70.5296 230.114 78.0496 233.924 79.4096C240.304 81.6896 246.984 78.5296 248.024 71.7496C249.864 72.5396 251.734 73.9396 253.744 74.3296C254.974 74.5696 256.354 74.1096 257.614 74.1496L253.784 86.6096L276.824 81.0196C281.434 64.6596 287.784 48.8596 293.584 32.9096C286.334 34.5296 279.164 31.7896 272.954 28.3296L264.484 53.9096C264.434 56.4296 262.374 59.2996 262.414 61.6696C262.074 60.6896 259.954 57.8696 260.084 57.1896C260.214 56.5096 264.484 52.8796 265.064 50.6596C265.544 48.8396 265.444 44.7396 264.814 42.9696L270.974 25.4096C273.764 19.1896 283.944 21.2296 289.124 23.2196C294.704 25.3596 297.454 27.9496 295.504 34.3396C299.414 34.2296 303.734 35.7896 305.474 39.4896L302.234 53.5096C302.534 53.5396 303.024 53.4396 303.234 53.5796C310.674 58.6696 321.084 63.3596 328.564 69.1396C331.954 71.7596 329.504 73.5096 327.344 76.4896C323.244 82.1596 318.194 87.3096 314.204 93.0896C316.174 98.1796 316.134 106.34 319.024 110.69C319.774 111.82 321.714 113.24 322.564 114.45C327.724 121.79 328.324 130.85 327.644 139.61C327.414 142.59 326.044 145.74 326.154 148.71C326.324 153.29 328.704 160.22 329.404 165.15C329.754 167.59 330.294 170.1 329.894 172.57C321.634 182.61 313.634 193.07 304.454 202.27C280.684 207.93 257.024 214.15 233.244 219.78C216.594 223.73 198.504 228.68 181.824 231.66C180.324 231.93 176.414 232.87 175.294 231.94C173.944 230.83 172.024 218.38 171.444 217.94C171.084 217.66 166.614 215.56 165.984 215.36C162.794 214.34 158.154 214.78 154.774 215.18C153.604 215.32 148.484 215.98 147.994 216.55L144.594 227.12C147.274 230.67 150.014 234.19 152.784 237.67C154.324 239.61 155.424 240.96 157.124 242.92C159.064 245.15 160.824 247.54 162.934 249.61C163.844 249.78 168.884 244.93 171.044 245.03C171.514 245.05 175.394 247.78 176.684 248.3C177.974 248.82 179.584 248.89 180.854 249.63C188.354 236.33 202.874 227.08 218.534 228.52C224.084 229.03 232.454 234.86 236.014 238.99C238.274 241.61 241.584 245.68 243.684 248.45C251.834 259.22 239.714 275.78 232.434 284.16C221.734 296.46 193.774 318.83 176.584 313.6C173.934 312.79 167.334 307.93 165.094 305.89C164.184 305.06 160.264 300.37 159.584 300.49C156.544 303.26 153.494 306.07 149.844 308.04C121.934 323.11 88.1241 324.23 69.6841 294.84C66.3441 289.52 60.7541 276.69 62.4941 270.59C63.0941 268.5 66.8441 266.9 67.1141 266.09C67.5341 264.82 67.3241 262.22 67.9141 260.17C69.4441 254.87 74.0841 249.74 78.9341 247.21C80.7541 246.26 88.5541 243.99 90.5241 243.89C92.1141 243.81 93.2841 245.01 94.1941 244.76C95.8941 244.31 96.6241 242.48 100.364 242.27C102.384 242.16 103.294 242.84 105.084 243.19C110.404 236.53 115.774 229.83 119.754 222.26C119.104 220.39 117.714 218.72 116.884 216.96C116.124 215.35 113.244 207.7 112.634 207.06C111.464 205.83 103.074 201.52 100.654 199.73C95.3941 195.83 91.8141 190.4 87.2941 186.6C81.8541 182.02 72.5441 178.09 66.0641 172.81C48.0841 158.15 35.4941 134.54 32.6641 111.53C33.7141 111.62 35.4941 111.66 36.5041 111.53C40.4041 139.03 57.5941 164.35 81.5841 178.17C80.5741 175.66 79.0841 173.47 78.0041 170.96C76.7241 167.99 75.3141 164.13 74.5341 161.01C74.1141 159.35 72.3041 151.21 73.4841 150.41C77.3741 149.89 76.3741 153.95 76.9041 156.24C85.5541 193.28 117.364 213.65 154.554 211.93C156.834 211.82 159.684 210.86 161.924 210.87C172.244 210.93 184.964 223.88 197.434 220.38C198.094 220.2 198.924 220.33 199.094 219.4C196.684 219.19 194.524 220.52 192.174 219.45C190.634 215.45 197.824 216.52 200.644 215.92C202.844 215.45 205.604 214.07 206.284 211.73C202.964 212.61 198.954 214.58 195.494 214.6C195.104 214.6 192.514 214.21 192.404 214.1C192.224 213.91 192.304 211.63 192.584 211.22C192.864 210.81 200.124 210.11 202.144 209.27C203.794 208.58 209.124 204.47 209.534 202.78C209.694 202.14 210.074 200.96 208.924 201.19C204.984 205.7 196.664 209.16 190.664 208.4C188.634 208.14 188.974 207.42 189.004 205.5C194.704 205.5 201.274 203.52 205.754 199.94C207.254 198.75 209.274 196.98 209.154 194.95C204.474 193.29 200.064 197.96 195.854 198.67C193.024 199.15 190.574 198.23 188.324 198.33C187.344 198.38 186.404 199.14 185.374 199.22C184.544 199.29 178.754 199.77 178.434 199.54C177.744 199.05 177.734 197.08 178.434 196.6C178.734 196.39 184.214 196.13 185.754 195.77C188.614 195.1 193.284 193.17 194.284 190.16C189.774 191.2 177.374 188.83 174.034 190.65C173.154 191.13 170.274 196.72 169.744 197.99C169.294 199.04 168.144 203.92 167.674 204.08C165.704 204.71 166.474 201.86 165.694 201.65C163.814 201.13 158.184 201.86 155.664 201.7C132.194 200.18 103.614 187.75 93.0041 165.57C92.0241 163.51 88.2841 152.91 90.1741 151.55C93.2941 149.29 93.9541 157.52 94.5141 159.27C98.1341 170.79 109.794 181.64 120.104 187.38C124.934 190.07 126.964 191.27 132.694 191.14C142.574 190.9 153.754 188.16 162.914 184.44L153.994 148.46C151.534 148.92 136.084 152.94 135.304 151.81L138.174 141.75C127.484 144.74 112.654 138.79 106.124 129.92C105.124 128.56 102.484 124.86 104.594 123.75C106.504 122.75 107.424 126.37 108.434 127.6C113.784 134.13 126.674 139.36 135.054 138.39C142.654 137.51 142.484 128.79 144.524 123.4C145.164 121.72 146.274 120.39 146.804 118.74C145.684 117.7 136.884 125.95 134.844 123.98C134.724 123.86 134.334 121.03 134.414 120.53C134.684 118.82 139.414 111.54 140.664 109.48C142.584 106.3 147.324 98.2096 149.734 96.0096C151.704 94.2196 164.854 86.4196 167.424 85.4096C180.344 80.3496 198.284 77.9096 212.054 73.9296C213.744 73.4396 217.694 72.5796 218.174 70.9296C218.654 69.2796 216.104 63.0396 215.274 61.0796C204.364 34.9896 180.874 14.5696 153.614 7.16961C114.534 -3.43039 72.0441 12.9496 50.3941 46.8296C49.5941 46.8296 46.8941 47.1296 46.0741 47.3096L46.1041 47.2996ZM293.584 30.0296C292.924 25.1596 274.554 21.9196 273.924 25.0096C277.644 30.4696 287.574 31.9996 293.584 30.0296ZM302.224 40.0996C302.284 40.0296 302.274 38.8096 302.164 38.4796C301.844 37.5296 295.164 35.6396 294.504 36.5496C291.784 40.2796 301.784 40.5596 302.224 40.0996ZM302.694 42.0296C299.254 42.2696 296.274 41.9396 293.104 40.5896L283.034 74.1496L298.584 56.8496L302.694 42.0296ZM304.514 56.5296L302.424 56.8496L280.134 82.0496L306.274 98.1296L326.194 71.7496L304.504 56.5196L304.514 56.5296ZM275.844 85.1796L151.134 116.08L140.124 148.46L266.884 119.23L275.844 85.1796ZM311.814 96.6796C311.134 95.8696 308.404 100.35 307.494 100.74C306.394 101.21 305.154 101.1 304.024 100.87L279.214 85.1696L296.004 162.36L303.674 153.94C305.254 153.38 306.384 154.5 307.054 155.86C308.014 157.79 311.904 171.07 312.174 173.27C312.324 174.51 312.634 175.91 311.844 177.01L301.234 186.66L303.674 198.32L305.094 197.11L326.224 170.25C325.164 164.59 323.284 159 322.854 153.26C321.734 152.95 322.044 153.55 321.764 153.87C319.444 156.47 318.464 159.3 314.104 158.42C311.414 157.88 311.664 156.04 311.014 155.64C310.214 155.14 308.674 155.27 307.274 154.22C305.874 153.17 305.624 151.48 305.114 151.11C304.604 150.74 302.944 150.59 301.904 150C300.524 149.22 300.154 147.92 299.714 147.64C299.054 147.22 295.304 146.27 295.044 145.25C293.654 139.74 303.104 137.04 306.074 133.83L302.544 132.58C301.254 131.39 299.664 130.59 299.844 128.61C300.384 122.76 314.924 126.72 316.084 122.71L311.834 96.6896L311.814 96.6796ZM209.654 87.0896H199.344C198.744 87.0896 198.114 90.1596 198.144 90.9096C198.454 91.3396 208.294 91.2696 208.674 90.9096C208.814 90.7696 208.894 87.7496 209.654 87.0896ZM244.184 89.0096L217.624 87.5296L216.364 92.3496C221.194 92.5096 226.104 91.9796 230.884 92.7296L244.184 88.9996V89.0096ZM292.564 165.18L277.754 90.9296L271.204 119.61C270.774 121.28 267.464 122.41 265.874 122.92C252.494 127.19 235.924 129.49 222.004 132.76C201.344 137.61 180.644 142.91 159.884 147.38C159.054 147.56 158.204 147.51 157.364 147.5L168.884 192.09C170.514 190.68 171.114 187.94 173.534 187.4C175.954 186.86 189.374 187.86 189.974 187.3C187.414 178.06 185.094 168.55 184.434 159.01L185.664 158.3C206.764 153.82 227.584 147.56 248.804 143.72C250.524 143.41 258.884 142.03 259.424 142.82C261.744 148.9 264.014 155.07 265.544 161.42C265.744 162.24 265.434 163 265.604 163.72C266.894 169.34 268.524 175 269.034 180.73L268.414 181.58C249.834 186.95 231.024 191.51 212.084 195.51C212.534 197 210.764 198.47 210.654 199.13C210.544 199.79 212.534 201.25 211.914 204.21C211.454 206.43 208.614 208.55 208.284 209.69C207.554 212.19 209.134 213.06 206.764 215.84C205.214 217.65 204.064 217.42 202.664 218.45C201.434 219.36 200.914 221.25 199.244 222.23C193.274 225.72 181.944 222.62 176.054 219.91C176.264 221.28 177.974 229.28 178.674 229.41L300.274 199.77L297.874 188.75L283.424 190.9C281.564 190.47 280.794 186.55 280.364 184.92C278.974 179.63 278.404 173.98 277.444 168.6L292.534 165.2L292.564 165.18ZM163.614 91.4096L151.274 98.2396L138.204 120.17C142.224 117.81 146.084 115.2 149.724 112.27L163.624 91.4096H163.614ZM207.734 92.8496C200.364 93.6896 192.844 93.4696 185.444 94.2896C180.914 94.7896 176.414 96.1996 171.834 96.2696L167.454 108.67L206.174 98.7196C207.974 97.7796 207.214 94.6796 207.734 92.8596V92.8496ZM221.644 94.7696C219.254 95.3796 214.734 92.9496 214.934 96.6796L221.644 94.7696ZM319.484 151.34C319.644 151.25 320.054 151.59 320.484 151.04C326.864 142.9 325.484 122.03 319.114 114.07C318.664 113.51 318.574 112.76 317.574 112.98C318.454 116.54 319.564 119.14 318.604 122.88C317.224 128.27 309.164 127.19 304.974 127.95C304.394 128.06 301.634 129.04 302.964 129.75C305.864 130.47 308.244 130.81 310.614 128.8C312.654 130.95 308.884 134.98 307.274 136.48C305.664 137.98 297.554 142.36 297.914 143.89C298.634 146.95 305.944 142.62 307.314 141.54C308.594 140.54 313.474 134.41 314.694 135.51C315.974 139.66 310.744 141.99 308.434 144.83L302.714 147.97C306.294 149.16 308.844 148.43 311.614 146.08C312.844 145.04 314.074 142.2 315.784 142.31C318.634 142.5 316.314 145.46 315.424 146.54C313.324 149.09 310.654 150.67 307.514 151.57C308.694 152.91 310.784 153.05 312.444 152.67C314.104 152.29 321.204 144.22 319.494 151.33C317.064 152.73 316.014 154.7 313.264 155.4C316.134 157.64 318.874 153.91 319.494 151.33L319.484 151.34ZM240.824 160.45C241.374 158.83 239.354 156.54 239.384 155.39C239.414 154.11 241.334 154.28 241.304 153.02C241.054 151.83 235.984 153.17 235.284 153.7C234.754 154.11 234.644 154.97 234.124 155.41L237.944 154.68C238.374 155.11 237.964 161.27 240.824 160.43V160.45ZM234.104 161.39C234.404 161.02 232.984 156.21 232.664 155.42C232.364 154.68 232.284 154.02 231.244 154.21C230.604 154.72 232.304 161.85 232.914 161.87C232.974 161.87 234.064 161.44 234.104 161.39ZM229.644 159.64C229.384 159.33 228.554 159.28 228.444 158.75C228.294 158.03 229.534 156.69 227.884 155.9C227.024 155.49 223.334 155.38 222.824 156.11C222.224 156.97 223.774 163.55 224.104 163.76C225.254 164.5 232.084 162.49 229.644 159.65V159.64ZM305.094 157.09C304.384 156.43 302.794 159.8 301.804 159.81C299.624 161.97 296.444 166.44 293.784 167.59C290.014 169.23 283.814 169.08 279.684 170.04L284.004 188.25C284.554 188.79 297.884 186.15 299.004 185.4C300.034 184.71 303.534 180.41 304.844 179.13C306.384 177.62 308.324 176.54 309.684 174.82C310.044 173.98 305.774 157.72 305.104 157.1L305.094 157.09ZM220.694 165.24C221.054 165.5 222.044 164.88 222.124 164.5C222.424 163.05 213.944 150.95 214.914 162.62C214.964 163.24 215.714 167.49 216.614 165.73C217.304 164.37 216.484 162.66 219.014 161.91C219.924 162.24 220.544 165.13 220.694 165.24ZM211.084 159.01C209.524 157.71 211.164 161.6 209.324 162.27C209.054 162.37 206.254 162.82 206.094 162.78C205.174 162.54 205.454 160.1 203.904 160.45C203.814 161.87 204.624 168.02 206.064 168.59C207.794 169.28 206.124 164.42 206.294 164.28C207.084 164.65 211.234 163.57 211.534 163.83C211.834 164.09 211.724 166.84 213.964 166.19C214.244 165.91 211.374 159.25 211.084 159V159.01ZM250.424 166.68C250.704 166.42 250.264 164.87 249.684 164.76C247.494 164.35 244.294 168.94 246.364 171.46C247.764 173.16 249.954 171.27 250.444 171.67C250.964 172.09 250.934 174.13 252.094 173.87C253.894 173.46 251.694 166.62 249.944 168.12C249.794 168.25 249.774 171.22 247.544 170.52C247.144 170.1 247.914 167.46 248.454 167C249.204 166.35 250.264 166.83 250.424 166.69V166.68ZM237.954 171C243.524 175.56 243.014 172.64 242.274 167.4C241.704 163.35 239.454 167.56 240.344 170.04C238.884 169.74 237.684 165.61 236.254 167.63C235.314 168.97 237.624 178.24 237.954 171ZM234.594 175.31C235.304 174.61 232.274 166.97 231.244 168.12C231.004 168.39 232.854 174.66 233.114 175.02C233.424 175.43 234.464 175.43 234.594 175.31ZM223.564 169.56L225.934 176.53C234.204 176.78 230.984 167.4 223.564 169.56ZM219.264 176.26C218.704 175.87 218.954 170.6 217.564 170.53C216.674 170.48 217.044 172 217.074 172.44C217.114 173.18 217.734 177.86 217.884 178.1C218.774 179.47 223.354 177.87 223.074 176.52C222.744 174.97 219.674 176.56 219.254 176.26H219.264ZM213.494 179.15C213.884 179.43 214.734 178.89 214.874 178.36C214.994 177.92 213.654 171.16 212.054 171.48C211.894 172.44 213.174 178.92 213.494 179.15ZM209.644 172.44C209.504 172.33 208.614 172.5 208.224 172.44C207.834 173.4 209.324 178.39 207.974 178.67C206.154 179.06 206.474 173.16 204.384 173.4C204.214 175.1 205.494 180.92 207.504 180.91C207.894 180.91 209.874 179.4 210.054 178.82C210.324 177.94 210.074 172.78 209.654 172.44H209.644ZM202.114 177.1C201.704 176.44 202.154 175.16 201.024 174.57C200.434 174.26 197.354 174.72 197.214 174.86C196.824 175.26 197.404 180.72 197.794 181.66C198.794 184.13 202.144 182.38 203.344 180.75C205.524 177.81 202.814 178.24 202.114 177.1ZM233.624 178.67C232.654 178 229.784 180.68 230.274 182.02C232.794 179.89 233.644 182.25 233.664 184.69C233.664 185.36 231.824 185.93 232.674 186.81C232.844 186.99 237.314 186.03 237.464 185.85C237.514 185.8 237.524 184.47 237.464 184.42C237.274 184.23 235.954 184.8 235.484 184.14C235.014 183.48 233.854 178.84 233.614 178.67H233.624ZM225.144 187.63C227.254 189.41 231.584 186.01 228.554 182.54C224.424 177.8 222.324 185.26 225.144 187.63ZM220.214 188.26C219.814 187.75 219.984 183.71 219.514 182.97C218.724 181.73 216.124 183.28 215.884 184.66C215.554 186.61 217.884 183.94 218.284 184.43C217.834 185.65 218.914 187.57 218.804 188.43C218.724 189.01 216.944 188.92 217.334 190.18C218.544 190.51 224.704 189.45 223.084 187.79C222.564 187.26 220.304 188.38 220.214 188.27V188.26ZM166.494 197.84C165.884 196.43 165.124 190.52 164.094 189.9L156.024 192.19L154.974 197.85H166.484L166.494 197.84ZM153.054 193.05L140.594 195.2C142.124 196.02 144.514 196.43 146.244 196.74C147.144 196.9 151.224 197.54 151.814 197.39C152.074 197.32 153.274 193.26 153.054 193.04V193.05ZM134.704 214.28C128.634 213.37 122.954 211.05 117.094 209.36C118.324 212.84 130.404 235.75 132.254 236.12C134.624 236.6 141.384 230.52 141.364 227.81C141.364 227.06 135.334 214.69 134.704 214.28ZM145.384 215.11C142.874 216.01 140.654 214.48 138.194 215.11L142.274 222.29L145.384 215.1V215.11ZM125.564 245C126.344 245.5 126.944 247.36 128.944 246.41C129.984 245.92 132.114 242.49 131.874 241.35C131.594 240 128.674 237.67 127.724 236.35C126.994 235.34 121.524 224.72 120.934 225.17C119.774 229.08 117.144 232.23 115.174 235.71C118.194 237.17 119.814 240.81 122.424 243.1C123.374 243.93 124.534 244.34 125.564 245ZM151.914 242.61C151.674 242.3 151.114 242.13 150.744 241.65C148.214 238.42 146.284 234.62 143.714 231.41C141.234 234.92 137.864 236.55 134.374 238.83L151.934 259.66C152.824 259.93 156.854 256.07 157.164 255.35C157.864 253.78 155.284 251.35 158.824 250.81C156.554 248.03 154.164 245.41 151.924 242.6L151.914 242.61ZM223.924 233.52C208.774 226.26 185.004 242.32 181.024 257.2C179.444 263.12 178.184 271.23 181.354 276.72C181.824 277.04 182.914 275.68 183.284 275.29C186.024 272.42 188.474 269.35 191.414 266.64C203.114 255.88 219.224 245.41 235.544 244.83C233.624 239.59 229.044 236.72 224.364 234.27C224.094 234.13 224.034 233.58 223.904 233.52H223.924ZM121.684 246.95C120.164 245.77 118.584 244.37 117.324 242.92C116.214 241.64 115.324 239.61 114.434 238.61C114.054 238.18 113.794 237.78 113.234 238.34C109.884 242.73 106.794 247.59 102.634 251.24C102.274 251.56 101.344 251.36 101.214 251.82C100.664 253.67 105.494 262.71 106.814 262.94C107.354 263.03 108.134 262.49 109.044 262.64C110.604 262.9 111.474 264.14 113.864 263.42L126.184 250.32L121.674 246.94L121.684 246.95ZM145.644 258.01C142.704 254.33 138.224 248.53 135.044 245.35C133.604 243.91 132.854 247.16 131.964 248.31C131.604 248.78 130.984 248.95 130.604 249.45C127.484 253.46 124.624 258.29 120.514 261.22C121.234 265.52 121.764 270.01 125.084 273.14C133.224 270.07 141.564 271.03 149.614 273.94C151.034 274.45 151.574 275.7 153.064 275.53C152.464 274.22 154.274 272.04 153.784 271.21C153.404 270.56 151.924 271.31 150.964 271.2C147.204 270.78 142.774 267.05 145.184 263.1C146.644 260.71 149.034 262.25 145.644 258.02V258.01ZM100.304 245.32C93.0541 246.23 94.3041 256.18 94.5441 261.62C88.9941 258.83 91.4141 252.03 92.6241 247.24C85.5641 247.82 76.9641 250.85 73.0541 257.16C64.0741 271.65 78.7041 298.08 92.3041 305.34C96.6341 307.65 102.034 309.78 107.024 309.57C105.894 303.8 107.424 297.78 109.884 292.55C109.864 292.18 104.964 291.03 104.624 287.71C104.504 286.58 105.184 285.77 104.704 284.36C104.404 283.47 102.944 282.95 102.704 280.99C102.484 279.14 103.464 278.71 103.674 277.23C103.954 275.22 103.444 272.71 103.704 270.54C103.834 269.41 105.134 266.15 105.034 265.73C104.924 265.24 103.974 265.08 103.634 264.61C99.8241 259.25 95.4941 251.29 100.284 245.32H100.304ZM177.524 252.03C174.784 251.68 172.954 249.45 170.634 248.22C167.804 251.17 163.984 252.69 160.264 254.18C160.814 254.66 161.044 255.39 161.584 255.87C162.354 256.56 169.034 260.17 169.614 260.17C170.734 260.17 173.804 257.06 174.664 256.11C175.134 255.59 177.844 252.43 177.524 252.03ZM242.264 252.98C239.974 247.47 232.494 248.13 227.664 249.18C208.774 253.26 181.354 277.05 174.284 295.07C173.394 297.34 171.784 302.21 172.244 304.52C172.364 305.13 174.034 308 174.644 306.93C175.884 294.71 185.304 281.48 194.044 273.11C205.894 261.76 225.144 248.5 242.264 252.99V252.98ZM159.284 256.82C158.364 256.04 158.034 258.16 157.594 258.71C153.774 263.45 153.404 262.38 148.304 264.31C147.824 264.49 146.554 264.95 146.834 265.66C147.824 268.22 151.384 268.03 153.644 267.71C155.244 267.49 159.694 264.88 160.214 266.69C160.704 268.4 158.634 269.02 158.124 269.79C156.074 272.86 155.574 281.91 156.144 285.6C157.094 291.74 163.504 299.81 168.394 303.56C168.874 303.93 169.004 304.49 169.834 304.27C169.274 298.54 171.284 292.98 173.964 288.02C174.734 286.58 178.844 281.26 178.744 280.26C178.644 279.36 176.744 275.64 176.284 274.09C176.014 273.19 176.264 271.79 175.974 271.29C175.804 270.99 174.304 270.62 173.824 270.09C173.074 269.26 173.034 267.57 172.464 266.9C171.894 266.23 170.454 266.25 169.804 265.24C169.274 264.4 169.434 263.13 169.354 263.04C169.194 262.87 168.134 263.49 167.654 263.46C166.504 263.4 161.364 259.52 160.214 258.5C159.524 257.9 159.344 256.87 159.274 256.81L159.284 256.82ZM171.814 264.44C173.564 265.63 178.884 259.64 177.514 257.3C176.874 258.62 171.534 261.82 171.344 262.17C171.134 262.54 171.634 264.33 171.814 264.45V264.44ZM119.004 264.97C115.464 266.46 111.694 266.31 107.944 266.62C107.454 268.64 105.254 276.4 106.524 277.69C108.594 279.79 120.344 277.28 121.674 274.57C121.894 274.12 117.764 266.93 118.994 264.97H119.004ZM176.084 265.93C173.594 265.72 175.234 269.29 176.084 268.32V265.93ZM80.3541 299.3C78.0641 296.59 75.4141 292.89 73.8441 289.75C70.6841 283.42 67.9241 276.29 66.9741 269.29C63.5441 273.35 66.5341 281.63 68.4141 286.07C82.6941 319.77 118.784 321 147.734 305.44C149.234 304.63 158.094 299.03 157.854 297.83C157.224 296.97 156.874 297 155.914 297.31C154.204 297.87 149.424 301.83 147.254 303.04C126.184 314.86 97.7241 319.88 80.3541 299.3ZM154.424 294.15C154.254 291.1 152.594 288.58 152.154 285.29C151.674 281.66 153.514 279.47 149.374 277.52C134.634 270.57 122.494 275.86 114.594 289.1C110.884 295.3 108.664 302.79 110.414 309.99C126.484 310.13 141.214 302.51 154.414 294.15H154.424ZM117.094 280.32C114.364 280.82 111.484 281.02 108.704 280.8C107.594 280.71 104.874 279.09 105.104 280.56C106.034 286.54 115.344 284.9 117.104 280.32H117.094ZM112.764 286.55C110.984 287.62 109.424 286.8 107.704 286.57C106.084 286.35 107.734 288.73 108.474 289.17C108.934 289.44 111.614 290.09 111.804 289.91C111.934 289.79 112.474 287.13 112.764 286.56V286.55Z" fill="#1FA7E8"/>
<path d="M32.6743 111.539C26.4543 111.029 20.3543 106.109 18.2143 100.329C17.5743 98.5891 17.6043 94.0791 16.6543 93.2791C15.6343 92.4191 13.5543 92.6891 12.4243 92.3191C10.8743 91.8191 8.43426 91.0491 6.64426 90.3391C4.45426 89.4691 2.15426 87.3991 1.13426 85.2991C-1.85574 79.1091 1.47426 70.1391 6.36426 65.8391C10.7743 61.9591 14.3443 63.0591 19.7243 64.0691C20.3443 62.0391 18.6843 62.0391 18.2643 61.3491C17.8743 60.7091 17.9243 59.6491 17.5343 58.8391C16.0843 55.8891 15.6243 56.4191 15.8843 52.3091C16.1243 48.5291 17.0243 47.1091 20.2743 45.1891C24.6143 42.6191 29.8043 42.4591 34.2543 44.8891C35.6443 45.8291 39.3543 50.2591 40.6143 50.1491C41.3243 50.0891 43.9843 47.7591 46.1143 47.2891C46.9343 47.1091 49.6243 46.7991 50.4343 46.8091C55.8243 46.8591 61.9343 49.6691 62.4443 55.6491C62.6143 57.6591 62.5443 61.6391 60.8243 62.7291L59.0743 65.7391C65.2643 67.7691 70.7143 72.5691 70.1143 79.6291C69.8643 82.5691 68.8243 85.8691 67.0343 88.0891C66.0243 89.3491 64.4943 90.2191 63.3243 91.0791C58.5143 94.6091 54.2743 96.8291 48.0543 95.2391C48.2243 98.2091 47.2543 102.029 45.6543 104.589C44.2743 106.789 39.0943 111.209 36.5443 111.549C35.5343 111.679 33.7643 111.639 32.7043 111.549L32.6743 111.539ZM43.0643 70.9691C40.8143 69.3091 37.6543 68.4291 34.8643 68.8991C29.7343 69.7691 28.0743 80.7891 34.3943 81.7891C38.3143 82.4091 44.9143 81.2091 45.1243 76.2691C45.2043 74.3491 44.6243 72.1191 43.0743 70.9691H43.0643Z" fill="#FFC205"/>
<path d="M213.97 47.7782C215.04 45.0682 220.14 40.8882 222.9 40.1682C223.84 39.9182 226.91 39.8282 227.32 39.5582C227.73 39.2882 229.14 32.1982 229.67 31.1082C230.02 30.3782 230.75 30.3082 231.08 29.8682C231.83 28.8582 231.65 28.0982 233.53 27.3082C236.8 25.9282 239.83 26.2982 243.09 27.5582C245.04 28.3082 248.99 31.3682 249.83 33.2882C251.18 36.4082 249.79 38.8782 249.95 42.0382C253.23 39.6382 255.44 38.1482 259.79 38.6682C261.85 38.9182 264.16 41.1582 264.81 42.9982C265.46 44.8382 265.54 48.8682 265.06 50.6882C264.48 52.9082 260.22 56.5082 260.08 57.2182C259.94 57.9282 262.07 60.7282 262.41 61.6982C262.41 61.7682 262.92 62.2482 262.91 62.8582C262.8 67.8882 262.47 71.6082 257.62 74.1682C256.37 74.1382 254.98 74.5882 253.75 74.3482C251.73 73.9582 249.87 72.5582 248.03 71.7682C246.99 78.5482 240.31 81.7082 233.93 79.4282C230.12 78.0682 225.55 70.5382 225.48 66.4982C225.48 66.1782 225.46 65.8582 225.48 65.5382C225.48 65.3782 225.46 65.2182 225.48 65.0582L225.96 64.5782C226.01 64.2782 225.93 63.9282 225.96 63.6182L225.67 63.2082C223.82 63.0682 221.95 62.8682 220.21 62.1782C218.47 61.4882 214.44 57.4982 213.87 55.8282C213.18 53.7982 213.21 49.7282 213.97 47.7982V47.7782ZM245.01 51.2582C243.76 50.0382 240.49 49.3982 238.77 49.7982C233.53 50.9882 235.91 64.1782 243.08 60.3282C245.89 58.8182 247.34 53.5282 245.01 51.2582Z" fill="#FFC205"/>
<path d="M113.713 70.7994C115.133 74.5194 113.123 78.7394 111.243 81.9594C104.193 94.0194 86.9833 101.189 74.4433 93.0494C73.2133 92.2494 69.0033 88.6594 70.1033 87.0994C71.0433 85.7694 75.8833 90.1594 77.5933 90.8594C91.0633 96.4394 105.433 87.5594 110.413 74.8894C111.223 72.8194 110.333 70.6594 113.723 70.7994H113.713Z" fill="#1FA7E8"/>
<path d="M132.99 65.4469C132.62 64.8669 132.86 62.8669 133.67 62.6669C134.48 62.4669 138.42 64.7869 139.73 65.1769C151.79 68.8269 163.34 61.7869 168.5 50.9769C169.38 49.1269 171.93 39.7969 172.96 39.7169C175.28 39.5369 174.21 43.4669 173.95 44.9169C171.08 61.0569 155.26 74.3769 138.59 68.2269C137.88 67.9669 133.16 65.6969 133 65.4369L132.99 65.4469Z" fill="#1FA7E8"/>
<path d="M139.964 81.9693C144.644 86.1893 140.454 97.6493 136.154 97.0893C131.514 96.4793 137.084 92.2693 137.514 90.4793C139.484 82.2793 133.874 83.3193 128.954 80.2793C128.284 79.8593 127.854 79.6093 128.134 78.7093C128.954 76.1393 138.524 80.6693 139.974 81.9693H139.964Z" fill="#1FA7E8"/>
<path d="M89.7392 106.27C90.7692 106.96 89.6992 114.35 88.0792 114.32C87.9892 114.32 86.5392 113.44 86.4992 113.36C85.9692 112.49 87.5992 104.83 89.7492 106.27H89.7392Z" fill="#1FA7E8"/>
<path d="M82.0843 107.228C82.2543 107.088 83.2243 107.208 83.5443 107.438C84.4143 108.068 84.4743 115.858 82.3243 115.868C79.9143 115.878 81.7243 107.518 82.0843 107.228Z" fill="#1FA7E8"/>
<path d="M164.09 73.1861C164.87 72.6461 166.36 73.8261 166.49 74.8961C166.63 76.0661 165.81 80.6261 164.33 80.7261C163.93 80.7561 162.84 80.0761 162.73 79.6161C162.65 79.2961 163.82 73.3761 164.09 73.1861Z" fill="#1FA7E8"/>
<path d="M173.65 71.2986C173.99 71.5786 175.51 79.6186 172.05 78.4186C170.1 77.7486 171 69.1286 173.65 71.2986Z" fill="#1FA7E8"/>
<path d="M226.922 158.519C226.842 158.619 224.972 159.029 224.532 159.479C222.422 155.259 227.822 157.339 226.922 158.519Z" fill="#1FA7E8"/>
<path d="M228.348 160.448C229.528 161.388 225.458 162.308 224.998 162.358C224.448 159.478 226.078 160.598 228.348 160.448Z" fill="#1FA7E8"/>
<path d="M202.464 179.146C202.914 179.546 199.624 181.476 199.114 181.536C198.784 178.936 200.354 178.596 202.464 179.146Z" fill="#1FA7E8"/>
<path d="M200.538 175.789C200.608 177.089 199.788 177.869 198.628 178.179L198.148 175.789H200.538Z" fill="#1FA7E8"/>
<path d="M216.852 161.406L217.082 159.496C218.372 160.486 218.692 161.266 216.852 161.406Z" fill="#1FA7E8"/>
<path d="M226.92 175.309C226.48 173.329 224.62 169.319 228.06 171.529C230.12 172.859 228.83 174.719 226.92 175.309Z" fill="#1FA7E8"/>
<path d="M227.835 185.806C227.175 186.866 225.305 186.406 225.445 184.176C225.655 180.656 228.655 184.486 227.835 185.806Z" fill="#1FA7E8"/>
</svg>
